M48
;DRILL file {KiCad 4.0.6} date Thu Apr 20 11:48:15 2017
;FORMAT={-:-/ absolute / metric / decimal}
FMAT,2
METRIC,TZ
T1C0.400
T2C1.000
T3C1.250
%
G90
G05
M71
T1
X100.875Y-105.125
X101.35Y-108.575
X101.9Y-119.75
X101.925Y-117.125
X101.95Y-127.2
X101.975Y-114.25
X101.975Y-123.4
X102.4Y-105.1
X104.95Y-101.025
X105.025Y-108.9
X105.2Y-104.2
X105.2Y-107.6
X105.512Y-132.508
X105.512Y-145.335
X105.837Y-119.154
X105.858Y-105.344
X105.99Y-125.301
X106.223Y-135.607
X106.375Y-142.4
X106.575Y-126.95
X107.061Y-133.854
X107.29Y-143.633
X107.475Y-101.025
X107.6Y-108.05
X108.174Y-117.859
X108.735Y-126.925
X109.4Y-104.7
X109.4Y-113.875
X109.625Y-116.975
X109.85Y-129.15
X109.975Y-142.325
X109.982Y-143.379
X110.125Y-144.801
X110.2Y-108.298
X110.275Y-115.9
X110.8Y-118.1
X111.149Y-136.776
X111.15Y-135.962
X111.324Y-116.95
X111.325Y-101.025
X111.7Y-127.45
X111.7Y-129.275
X111.785Y-144.801
X111.875Y-108.6
X112.35Y-135.375
X112.375Y-136.125
X112.54Y-139.722
X112.903Y-142.312
X112.991Y-140.847
X113.255Y-134.668
X114.Y-134.376
X114.Y-133.5
X114.Y-137.6
X114.351Y-140.331
X114.45Y-132.775
X114.7Y-141.6
X115.189Y-142.49
X115.75Y-99.75
X115.75Y-101.
X115.79Y-112.187
X115.925Y-136.963
X116.073Y-137.749
X116.1Y-141.7
X116.423Y-101.746
X116.871Y-137.693
X117.Y-99.75
X117.035Y-110.714
X117.036Y-109.484
X117.094Y-142.363
X117.432Y-137.123
X117.643Y-138.561
X117.724Y-109.892
X117.831Y-140.737
X118.022Y-142.25
X118.184Y-104.415
X118.231Y-137.02
X118.379Y-102.058
X118.403Y-138.205
X118.635Y-103.297
X118.729Y-105.518
X118.75Y-99.75
X118.901Y-110.597
X118.976Y-144.584
X119.054Y-111.403
X119.767Y-111.766
X120.11Y-134.397
X120.25Y-99.75
X120.324Y-136.078
X120.406Y-136.902
X120.523Y-133.575
X120.548Y-132.686
X120.87Y-111.522
X122.184Y-107.428
X122.276Y-142.084
X122.3Y-102.
X122.7Y-143.
X122.724Y-102.916
X122.816Y-137.572
X124.13Y-133.478
X124.452Y-112.314
X124.477Y-111.425
X124.594Y-108.098
X124.676Y-108.922
X124.75Y-145.25
X124.89Y-110.603
X125.233Y-133.234
X125.946Y-133.597
X126.024Y-100.416
X126.099Y-134.403
X126.25Y-145.25
X126.271Y-139.482
X126.365Y-141.703
X126.597Y-106.795
X126.621Y-142.942
X126.769Y-107.98
X126.816Y-140.585
X126.978Y-102.75
X127.169Y-104.263
X127.276Y-135.108
X127.357Y-106.439
X127.568Y-107.877
X127.906Y-102.637
X127.964Y-135.516
X127.965Y-134.286
X128.Y-145.25
X128.129Y-107.307
X128.577Y-143.254
X128.9Y-103.3
X128.927Y-107.251
X129.075Y-108.037
X129.21Y-132.813
X129.25Y-144.
X129.25Y-145.25
X129.811Y-102.51
X130.3Y-103.4
X130.55Y-112.225
X130.649Y-104.669
X131.Y-107.4
X131.Y-111.5
X131.Y-110.624
X131.745Y-110.332
X132.009Y-104.153
X132.097Y-102.688
X132.46Y-105.278
X132.625Y-108.875
X132.65Y-109.625
X133.125Y-136.4
X133.215Y-100.199
X133.3Y-115.725
X133.3Y-117.55
X133.675Y-143.975
X133.676Y-128.05
X133.85Y-109.038
X133.851Y-108.224
X134.2Y-126.9
X134.725Y-129.1
X134.8Y-136.702
X134.875Y-100.199
X135.018Y-101.621
X135.025Y-102.675
X135.15Y-115.85
X135.375Y-128.025
X135.6Y-131.125
X135.6Y-140.3
X136.265Y-118.075
X136.826Y-127.141
X137.4Y-136.95
X137.525Y-143.975
X137.71Y-101.367
X137.939Y-111.146
X138.425Y-118.05
X138.625Y-102.6
X138.777Y-109.393
X139.01Y-119.699
X139.142Y-139.656
X139.163Y-125.846
X139.488Y-99.665
X139.488Y-112.492
X139.8Y-137.4
X139.8Y-140.8
X139.975Y-136.1
X140.05Y-143.975
X142.6Y-139.9
X143.025Y-121.6
X143.025Y-130.75
X143.05Y-117.8
X143.075Y-127.875
X143.1Y-125.25
X143.65Y-136.425
X144.125Y-139.875
T2
X104.374Y-113.269
X104.374Y-115.809
X104.374Y-118.349
X104.374Y-120.889
X104.374Y-123.429
X104.374Y-125.969
X104.374Y-128.509
X140.626Y-116.491
X140.626Y-119.031
X140.626Y-121.571
X140.626Y-124.111
X140.626Y-126.651
X140.626Y-129.191
X140.626Y-131.731
T3
X102.284Y-134.175
X102.284Y-143.825
X105.584Y-134.175
X105.584Y-143.825
X139.415Y-101.175
X139.415Y-110.825
X142.715Y-101.175
X142.715Y-110.825
T0
M30
