%TF.GenerationSoftware,KiCad,Pcbnew,4.0.6*%
%TF.CreationDate,2017-04-20T11:48:03-04:00*%
%TF.ProjectId,Panel,50616E656C2E6B696361645F70636200,rev?*%
%TF.FileFunction,Paste,Top*%
%FSLAX46Y46*%
G04 Gerber Fmt 4.6, Leading zero omitted, Abs format (unit mm)*
G04 Created by KiCad (PCBNEW 4.0.6) date Thu Apr 20 11:48:03 2017*
%MOMM*%
%LPD*%
G01*
G04 APERTURE LIST*
%ADD10C,0.100000*%
%ADD11R,2.400000X0.760000*%
%ADD12R,1.699260X1.198880*%
%ADD13R,1.198880X1.699260*%
%ADD14R,1.300000X0.250000*%
%ADD15R,0.250000X1.300000*%
%ADD16R,0.800000X0.750000*%
%ADD17R,0.500000X0.900000*%
%ADD18R,0.800000X0.800000*%
%ADD19R,0.750000X0.800000*%
%ADD20R,1.400000X0.398780*%
%ADD21R,0.500000X0.375000*%
%ADD22R,1.198880X0.548640*%
G04 APERTURE END LIST*
D10*
D11*
X133676200Y-119571000D03*
X137576200Y-119571000D03*
X133676200Y-120841000D03*
X137576200Y-120841000D03*
X133676200Y-122111000D03*
X137576200Y-122111000D03*
X133676200Y-123381000D03*
X137576200Y-123381000D03*
X133676200Y-124651000D03*
X137576200Y-124651000D03*
D12*
X142600000Y-142073080D03*
X142600000Y-137750000D03*
D11*
X133600000Y-137730000D03*
X137500000Y-137730000D03*
X133600000Y-139000000D03*
X137500000Y-139000000D03*
X133600000Y-140270000D03*
X137500000Y-140270000D03*
X133600000Y-141540000D03*
X137500000Y-141540000D03*
X133600000Y-142810000D03*
X137500000Y-142810000D03*
D13*
X133464660Y-131111000D03*
X137787740Y-131111000D03*
D11*
X111400000Y-107270000D03*
X107500000Y-107270000D03*
X111400000Y-106000000D03*
X107500000Y-106000000D03*
X111400000Y-104730000D03*
X107500000Y-104730000D03*
X111400000Y-103460000D03*
X107500000Y-103460000D03*
X111400000Y-102190000D03*
X107500000Y-102190000D03*
D12*
X102400000Y-102926920D03*
X102400000Y-107250000D03*
D13*
X111535340Y-113889000D03*
X107212260Y-113889000D03*
D11*
X111323800Y-125429000D03*
X107423800Y-125429000D03*
X111323800Y-124159000D03*
X107423800Y-124159000D03*
X111323800Y-122889000D03*
X107423800Y-122889000D03*
X111323800Y-121619000D03*
X107423800Y-121619000D03*
X111323800Y-120349000D03*
X107423800Y-120349000D03*
D14*
X120091400Y-142984000D03*
X120091400Y-142484000D03*
X120091400Y-141984000D03*
X120091400Y-141484000D03*
X120091400Y-140984000D03*
X120091400Y-140484000D03*
X120091400Y-139984000D03*
X120091400Y-139484000D03*
X120091400Y-138984000D03*
X120091400Y-138484000D03*
X120091400Y-137984000D03*
X120091400Y-137484000D03*
D15*
X118491400Y-135884000D03*
X117991400Y-135884000D03*
X117491400Y-135884000D03*
X116991400Y-135884000D03*
X116491400Y-135884000D03*
X115991400Y-135884000D03*
X115491400Y-135884000D03*
X114991400Y-135884000D03*
X114491400Y-135884000D03*
X113991400Y-135884000D03*
X113491400Y-135884000D03*
X112991400Y-135884000D03*
D14*
X111391400Y-137484000D03*
X111391400Y-137984000D03*
X111391400Y-138484000D03*
X111391400Y-138984000D03*
X111391400Y-139484000D03*
X111391400Y-139984000D03*
X111391400Y-140484000D03*
X111391400Y-140984000D03*
X111391400Y-141484000D03*
X111391400Y-141984000D03*
X111391400Y-142484000D03*
X111391400Y-142984000D03*
D15*
X112991400Y-144584000D03*
X113491400Y-144584000D03*
X113991400Y-144584000D03*
X114491400Y-144584000D03*
X114991400Y-144584000D03*
X115491400Y-144584000D03*
X115991400Y-144584000D03*
X116491400Y-144584000D03*
X116991400Y-144584000D03*
X117491400Y-144584000D03*
X117991400Y-144584000D03*
X118491400Y-144584000D03*
D11*
X128450000Y-141540000D03*
X124550000Y-141540000D03*
X128450000Y-140270000D03*
X124550000Y-140270000D03*
X128450000Y-139000000D03*
X124550000Y-139000000D03*
X128450000Y-137730000D03*
X124550000Y-137730000D03*
X128450000Y-136460000D03*
X124550000Y-136460000D03*
D16*
X112414000Y-132800000D03*
X113914000Y-132800000D03*
D17*
X108000000Y-137600000D03*
X109500000Y-137600000D03*
D18*
X103835400Y-132718600D03*
X103835400Y-134318600D03*
D19*
X121800000Y-138450000D03*
X121800000Y-139950000D03*
X108839000Y-143494000D03*
X108839000Y-141994000D03*
D16*
X119700000Y-144800000D03*
X121200000Y-144800000D03*
D20*
X106223000Y-139000000D03*
X106223000Y-138350000D03*
X106223000Y-140300000D03*
X106223000Y-139650000D03*
X106223000Y-137700000D03*
D21*
X121350000Y-134900000D03*
X123050000Y-134900000D03*
X121350000Y-134400000D03*
X123050000Y-134400000D03*
X121350000Y-133900000D03*
X123050000Y-133900000D03*
D22*
X108347460Y-132781640D03*
X108347460Y-133731600D03*
X108347460Y-134681560D03*
X110943340Y-134681560D03*
X110943340Y-132781640D03*
D18*
X103937000Y-145266000D03*
X103937000Y-143666000D03*
X118000000Y-134200000D03*
X119600000Y-134200000D03*
X118000000Y-132800000D03*
X119600000Y-132800000D03*
D17*
X108000000Y-140600000D03*
X109500000Y-140600000D03*
X108000000Y-139200000D03*
X109500000Y-139200000D03*
X109500800Y-136190800D03*
X108000800Y-136190800D03*
X115200000Y-132800000D03*
X116700000Y-132800000D03*
X115200000Y-134200000D03*
X116700000Y-134200000D03*
X121400000Y-132800000D03*
X122900000Y-132800000D03*
D14*
X124908600Y-102016000D03*
X124908600Y-102516000D03*
X124908600Y-103016000D03*
X124908600Y-103516000D03*
X124908600Y-104016000D03*
X124908600Y-104516000D03*
X124908600Y-105016000D03*
X124908600Y-105516000D03*
X124908600Y-106016000D03*
X124908600Y-106516000D03*
X124908600Y-107016000D03*
X124908600Y-107516000D03*
D15*
X126508600Y-109116000D03*
X127008600Y-109116000D03*
X127508600Y-109116000D03*
X128008600Y-109116000D03*
X128508600Y-109116000D03*
X129008600Y-109116000D03*
X129508600Y-109116000D03*
X130008600Y-109116000D03*
X130508600Y-109116000D03*
X131008600Y-109116000D03*
X131508600Y-109116000D03*
X132008600Y-109116000D03*
D14*
X133608600Y-107516000D03*
X133608600Y-107016000D03*
X133608600Y-106516000D03*
X133608600Y-106016000D03*
X133608600Y-105516000D03*
X133608600Y-105016000D03*
X133608600Y-104516000D03*
X133608600Y-104016000D03*
X133608600Y-103516000D03*
X133608600Y-103016000D03*
X133608600Y-102516000D03*
X133608600Y-102016000D03*
D15*
X132008600Y-100416000D03*
X131508600Y-100416000D03*
X131008600Y-100416000D03*
X130508600Y-100416000D03*
X130008600Y-100416000D03*
X129508600Y-100416000D03*
X129008600Y-100416000D03*
X128508600Y-100416000D03*
X128008600Y-100416000D03*
X127508600Y-100416000D03*
X127008600Y-100416000D03*
X126508600Y-100416000D03*
D11*
X116550000Y-103460000D03*
X120450000Y-103460000D03*
X116550000Y-104730000D03*
X120450000Y-104730000D03*
X116550000Y-106000000D03*
X120450000Y-106000000D03*
X116550000Y-107270000D03*
X120450000Y-107270000D03*
X116550000Y-108540000D03*
X120450000Y-108540000D03*
D16*
X132586000Y-112200000D03*
X131086000Y-112200000D03*
D17*
X137000000Y-107400000D03*
X135500000Y-107400000D03*
D18*
X141164600Y-112281400D03*
X141164600Y-110681400D03*
D19*
X123200000Y-106550000D03*
X123200000Y-105050000D03*
X136161000Y-101506000D03*
X136161000Y-103006000D03*
D16*
X125300000Y-100200000D03*
X123800000Y-100200000D03*
D20*
X138777000Y-106000000D03*
X138777000Y-106650000D03*
X138777000Y-104700000D03*
X138777000Y-105350000D03*
X138777000Y-107300000D03*
D21*
X123650000Y-110100000D03*
X121950000Y-110100000D03*
X123650000Y-110600000D03*
X121950000Y-110600000D03*
X123650000Y-111100000D03*
X121950000Y-111100000D03*
D22*
X136652540Y-112218360D03*
X136652540Y-111268400D03*
X136652540Y-110318440D03*
X134056660Y-110318440D03*
X134056660Y-112218360D03*
D18*
X141063000Y-99734000D03*
X141063000Y-101334000D03*
X127000000Y-110800000D03*
X125400000Y-110800000D03*
X127000000Y-112200000D03*
X125400000Y-112200000D03*
D17*
X137000000Y-104400000D03*
X135500000Y-104400000D03*
X137000000Y-105800000D03*
X135500000Y-105800000D03*
X135499200Y-108809200D03*
X136999200Y-108809200D03*
X129800000Y-112200000D03*
X128300000Y-112200000D03*
X129800000Y-110800000D03*
X128300000Y-110800000D03*
X123600000Y-112200000D03*
X122100000Y-112200000D03*
M02*
