%TF.GenerationSoftware,KiCad,Pcbnew,4.0.6*%
%TF.CreationDate,2017-04-20T11:48:03-04:00*%
%TF.ProjectId,Panel,50616E656C2E6B696361645F70636200,rev?*%
%TF.FileFunction,Profile,NP*%
%FSLAX46Y46*%
G04 Gerber Fmt 4.6, Leading zero omitted, Abs format (unit mm)*
G04 Created by KiCad (PCBNEW 4.0.6) date Thu Apr 20 11:48:03 2017*
%MOMM*%
%LPD*%
G01*
G04 APERTURE LIST*
%ADD10C,0.100000*%
%ADD11C,0.150000*%
G04 APERTURE END LIST*
D10*
D11*
X137500000Y-113000000D02*
X142750000Y-113000000D01*
X124500000Y-113000000D02*
X133500000Y-113000000D01*
X115750000Y-113000000D02*
X120250000Y-113000000D01*
X120500000Y-132000000D02*
X111500000Y-132000000D01*
X129250000Y-132000000D02*
X124750000Y-132000000D01*
X115000000Y-115000000D02*
X120250000Y-115000000D01*
X133500000Y-115000000D02*
G75*
G03X133500000Y-113000000I0J1000000D01*
G01*
X124500000Y-113000000D02*
G75*
G03X124500000Y-115000000I0J-1000000D01*
G01*
X133500000Y-115000000D02*
X132000000Y-115000000D01*
X124500000Y-115000000D02*
X130000000Y-115000000D01*
X120250000Y-115000000D02*
G75*
G03X120250000Y-113000000I0J1000000D01*
G01*
X137500000Y-113000000D02*
G75*
G03X137500000Y-115000000I0J-1000000D01*
G01*
X132000000Y-145000000D02*
X132000000Y-135500000D01*
X132000000Y-145000000D02*
X132000000Y-145000000D01*
X136250000Y-135500000D02*
X132000000Y-135500000D01*
X136250000Y-135500000D02*
G75*
G03X136250000Y-133500000I0J1000000D01*
G01*
X145000000Y-135500000D02*
X140000000Y-135500000D01*
X140000000Y-133500000D02*
G75*
G03X140000000Y-135500000I0J-1000000D01*
G01*
X145000000Y-135500000D02*
X145000000Y-145000000D01*
X145000000Y-145000000D02*
X132000000Y-145000000D01*
X130000000Y-125000000D02*
X130000000Y-130000000D01*
X145000000Y-133500000D02*
X140000000Y-133500000D01*
X132000000Y-133500000D02*
X132000000Y-125000000D01*
X145000000Y-115000000D02*
X145000000Y-133500000D01*
X136250000Y-133500000D02*
X132000000Y-133500000D01*
X132000000Y-125000000D02*
G75*
G03X130000000Y-125000000I-1000000J0D01*
G01*
X130000000Y-121000000D02*
G75*
G03X132000000Y-121000000I1000000J0D01*
G01*
X137500000Y-115000000D02*
X145000000Y-115000000D01*
X132000000Y-121000000D02*
X132000000Y-115000000D01*
X130000000Y-115000000D02*
X130000000Y-121000000D01*
X120500000Y-130000000D02*
X115000000Y-130000000D01*
X115000000Y-130000000D02*
X115000000Y-124000000D01*
X113000000Y-124000000D02*
X113000000Y-130000000D01*
X113000000Y-120000000D02*
G75*
G03X115000000Y-120000000I1000000J0D01*
G01*
X115000000Y-124000000D02*
G75*
G03X113000000Y-124000000I-1000000J0D01*
G01*
X124750000Y-130000000D02*
G75*
G03X124750000Y-132000000I0J-1000000D01*
G01*
X120500000Y-132000000D02*
G75*
G03X120500000Y-130000000I0J1000000D01*
G01*
X107500000Y-130000000D02*
X100000000Y-130000000D01*
X111500000Y-130000000D02*
X113000000Y-130000000D01*
X111500000Y-130000000D02*
G75*
G03X111500000Y-132000000I0J-1000000D01*
G01*
X107500000Y-132000000D02*
G75*
G03X107500000Y-130000000I0J1000000D01*
G01*
X100000000Y-111500000D02*
X105000000Y-111500000D01*
X108750000Y-111500000D02*
X113000000Y-111500000D01*
X108750000Y-109500000D02*
X113000000Y-109500000D01*
X108750000Y-109500000D02*
G75*
G03X108750000Y-111500000I0J-1000000D01*
G01*
X113000000Y-100000000D02*
X113000000Y-109500000D01*
X105000000Y-111500000D02*
G75*
G03X105000000Y-109500000I0J1000000D01*
G01*
X100000000Y-109500000D02*
X100000000Y-100000000D01*
X100000000Y-109500000D02*
X105000000Y-109500000D01*
X115000000Y-120000000D02*
X115000000Y-115000000D01*
X130000000Y-130000000D02*
X124750000Y-130000000D01*
X100000000Y-130000000D02*
X100000000Y-111500000D01*
X100000000Y-100000000D02*
X113000000Y-100000000D01*
X113000000Y-100000000D02*
X113000000Y-100000000D01*
X113000000Y-111500000D02*
X113000000Y-120000000D01*
X129250000Y-146000000D02*
G75*
G03X130000000Y-145250000I0J750000D01*
G01*
X130000000Y-132750000D02*
G75*
G03X129250000Y-132000000I-750000J0D01*
G01*
X100000000Y-143750000D02*
G75*
G03X102250000Y-146000000I2250000J0D01*
G01*
X102250000Y-132000000D02*
G75*
G03X100000000Y-134250000I0J-2250000D01*
G01*
X100000000Y-142815000D02*
X100000000Y-143750000D01*
X105461000Y-142815000D02*
X100000000Y-142815000D01*
X105461000Y-135195000D02*
X105461000Y-142815000D01*
X100000000Y-135195000D02*
X105461000Y-135195000D01*
X100000000Y-134250000D02*
X100000000Y-135195000D01*
X107500000Y-132000000D02*
X102250000Y-132000000D01*
X130000000Y-145250000D02*
X130000000Y-132750000D01*
X102250000Y-146000000D02*
X129250000Y-146000000D01*
X115750000Y-99000000D02*
G75*
G03X115000000Y-99750000I0J-750000D01*
G01*
X115000000Y-112250000D02*
G75*
G03X115750000Y-113000000I750000J0D01*
G01*
X145000000Y-101250000D02*
G75*
G03X142750000Y-99000000I-2250000J0D01*
G01*
X142750000Y-113000000D02*
G75*
G03X145000000Y-110750000I0J2250000D01*
G01*
X145000000Y-102185000D02*
X145000000Y-101250000D01*
X139539000Y-102185000D02*
X145000000Y-102185000D01*
X139539000Y-109805000D02*
X139539000Y-102185000D01*
X145000000Y-109805000D02*
X139539000Y-109805000D01*
X145000000Y-110750000D02*
X145000000Y-109805000D01*
X115000000Y-99750000D02*
X115000000Y-112250000D01*
X142750000Y-99000000D02*
X115750000Y-99000000D01*
M02*
