%TF.GenerationSoftware,KiCad,Pcbnew,4.0.6*%
%TF.CreationDate,2017-04-20T11:48:03-04:00*%
%TF.ProjectId,Panel,50616E656C2E6B696361645F70636200,rev?*%
%TF.FileFunction,Legend,Bot*%
%FSLAX46Y46*%
G04 Gerber Fmt 4.6, Leading zero omitted, Abs format (unit mm)*
G04 Created by KiCad (PCBNEW 4.0.6) date Thu Apr 20 11:48:03 2017*
%MOMM*%
%LPD*%
G01*
G04 APERTURE LIST*
%ADD10C,0.100000*%
%ADD11C,0.150000*%
%ADD12C,0.120000*%
%ADD13C,0.200000*%
%ADD14C,0.203200*%
G04 APERTURE END LIST*
D10*
D11*
X143307857Y-126143143D02*
X142736429Y-125843143D01*
X143307857Y-125628858D02*
X142107857Y-125628858D01*
X142107857Y-125971715D01*
X142165000Y-126057429D01*
X142222143Y-126100286D01*
X142336429Y-126143143D01*
X142507857Y-126143143D01*
X142622143Y-126100286D01*
X142679286Y-126057429D01*
X142736429Y-125971715D01*
X142736429Y-125628858D01*
X143250714Y-126486001D02*
X143307857Y-126614572D01*
X143307857Y-126828858D01*
X143250714Y-126914572D01*
X143193571Y-126957429D01*
X143079286Y-127000286D01*
X142965000Y-127000286D01*
X142850714Y-126957429D01*
X142793571Y-126914572D01*
X142736429Y-126828858D01*
X142679286Y-126657429D01*
X142622143Y-126571715D01*
X142565000Y-126528858D01*
X142450714Y-126486001D01*
X142336429Y-126486001D01*
X142222143Y-126528858D01*
X142165000Y-126571715D01*
X142107857Y-126657429D01*
X142107857Y-126871715D01*
X142165000Y-127000286D01*
X142107857Y-127257429D02*
X142107857Y-127771715D01*
X143307857Y-127514572D02*
X142107857Y-127514572D01*
X141901000Y-125414572D02*
X141901000Y-127857429D01*
X141980857Y-130794572D02*
X141980857Y-131308858D01*
X143180857Y-131051715D02*
X141980857Y-131051715D01*
X143180857Y-131608858D02*
X141980857Y-131608858D01*
X141980857Y-131823143D01*
X142038000Y-131951715D01*
X142152286Y-132037429D01*
X142266571Y-132080286D01*
X142495143Y-132123143D01*
X142666571Y-132123143D01*
X142895143Y-132080286D01*
X143009429Y-132037429D01*
X143123714Y-131951715D01*
X143180857Y-131823143D01*
X143180857Y-131608858D01*
X143180857Y-132508858D02*
X141980857Y-132508858D01*
X143250857Y-122896000D02*
X143250857Y-123410286D01*
X144450857Y-123153143D02*
X143250857Y-123153143D01*
X144450857Y-123710286D02*
X143250857Y-123710286D01*
X144108000Y-124010286D01*
X143250857Y-124310286D01*
X144450857Y-124310286D01*
X144393714Y-124696000D02*
X144450857Y-124824571D01*
X144450857Y-125038857D01*
X144393714Y-125124571D01*
X144336571Y-125167428D01*
X144222286Y-125210285D01*
X144108000Y-125210285D01*
X143993714Y-125167428D01*
X143936571Y-125124571D01*
X143879429Y-125038857D01*
X143822286Y-124867428D01*
X143765143Y-124781714D01*
X143708000Y-124738857D01*
X143593714Y-124696000D01*
X143479429Y-124696000D01*
X143365143Y-124738857D01*
X143308000Y-124781714D01*
X143250857Y-124867428D01*
X143250857Y-125081714D01*
X143308000Y-125210285D01*
X143123857Y-128251429D02*
X143123857Y-128765715D01*
X144323857Y-128508572D02*
X143123857Y-128508572D01*
X144323857Y-129065715D02*
X143123857Y-129065715D01*
X143123857Y-129280000D01*
X143181000Y-129408572D01*
X143295286Y-129494286D01*
X143409571Y-129537143D01*
X143638143Y-129580000D01*
X143809571Y-129580000D01*
X144038143Y-129537143D01*
X144152429Y-129494286D01*
X144266714Y-129408572D01*
X144323857Y-129280000D01*
X144323857Y-129065715D01*
X143123857Y-130137143D02*
X143123857Y-130308572D01*
X143181000Y-130394286D01*
X143295286Y-130480000D01*
X143523857Y-130522858D01*
X143923857Y-130522858D01*
X144152429Y-130480000D01*
X144266714Y-130394286D01*
X144323857Y-130308572D01*
X144323857Y-130137143D01*
X144266714Y-130051429D01*
X144152429Y-129965715D01*
X143923857Y-129922858D01*
X143523857Y-129922858D01*
X143295286Y-129965715D01*
X143181000Y-130051429D01*
X143123857Y-130137143D01*
X142165000Y-120870286D02*
X142107857Y-120784572D01*
X142107857Y-120656001D01*
X142165000Y-120527429D01*
X142279286Y-120441715D01*
X142393571Y-120398858D01*
X142622143Y-120356001D01*
X142793571Y-120356001D01*
X143022143Y-120398858D01*
X143136429Y-120441715D01*
X143250714Y-120527429D01*
X143307857Y-120656001D01*
X143307857Y-120741715D01*
X143250714Y-120870286D01*
X143193571Y-120913143D01*
X142793571Y-120913143D01*
X142793571Y-120741715D01*
X143307857Y-121298858D02*
X142107857Y-121298858D01*
X143307857Y-121813143D01*
X142107857Y-121813143D01*
X143307857Y-122241715D02*
X142107857Y-122241715D01*
X142107857Y-122456000D01*
X142165000Y-122584572D01*
X142279286Y-122670286D01*
X142393571Y-122713143D01*
X142622143Y-122756000D01*
X142793571Y-122756000D01*
X143022143Y-122713143D01*
X143136429Y-122670286D01*
X143250714Y-122584572D01*
X143307857Y-122456000D01*
X143307857Y-122241715D01*
X143250857Y-117731857D02*
X143250857Y-118246143D01*
X144450857Y-117989000D02*
X143250857Y-117989000D01*
X144336571Y-119060428D02*
X144393714Y-119017571D01*
X144450857Y-118889000D01*
X144450857Y-118803286D01*
X144393714Y-118674714D01*
X144279429Y-118589000D01*
X144165143Y-118546143D01*
X143936571Y-118503286D01*
X143765143Y-118503286D01*
X143536571Y-118546143D01*
X143422286Y-118589000D01*
X143308000Y-118674714D01*
X143250857Y-118803286D01*
X143250857Y-118889000D01*
X143308000Y-119017571D01*
X143365143Y-119060428D01*
X144450857Y-119446143D02*
X143250857Y-119446143D01*
X144450857Y-119960428D02*
X143765143Y-119574714D01*
X143250857Y-119960428D02*
X143936571Y-119446143D01*
X141980857Y-115328571D02*
X143180857Y-115628571D01*
X141980857Y-115928571D01*
X143123714Y-116614286D02*
X143180857Y-116528572D01*
X143180857Y-116357143D01*
X143123714Y-116271429D01*
X143066571Y-116228572D01*
X142952286Y-116185715D01*
X142609429Y-116185715D01*
X142495143Y-116228572D01*
X142438000Y-116271429D01*
X142380857Y-116357143D01*
X142380857Y-116528572D01*
X142438000Y-116614286D01*
X143123714Y-117385715D02*
X143180857Y-117300001D01*
X143180857Y-117128572D01*
X143123714Y-117042858D01*
X143066571Y-117000001D01*
X142952286Y-116957144D01*
X142609429Y-116957144D01*
X142495143Y-117000001D01*
X142438000Y-117042858D01*
X142380857Y-117128572D01*
X142380857Y-117300001D01*
X142438000Y-117385715D01*
X103019143Y-129671429D02*
X101819143Y-129371429D01*
X103019143Y-129071429D01*
X101876286Y-128385714D02*
X101819143Y-128471428D01*
X101819143Y-128642857D01*
X101876286Y-128728571D01*
X101933429Y-128771428D01*
X102047714Y-128814285D01*
X102390571Y-128814285D01*
X102504857Y-128771428D01*
X102562000Y-128728571D01*
X102619143Y-128642857D01*
X102619143Y-128471428D01*
X102562000Y-128385714D01*
X101876286Y-127614285D02*
X101819143Y-127699999D01*
X101819143Y-127871428D01*
X101876286Y-127957142D01*
X101933429Y-127999999D01*
X102047714Y-128042856D01*
X102390571Y-128042856D01*
X102504857Y-127999999D01*
X102562000Y-127957142D01*
X102619143Y-127871428D01*
X102619143Y-127699999D01*
X102562000Y-127614285D01*
X101749143Y-127268143D02*
X101749143Y-126753857D01*
X100549143Y-127011000D02*
X101749143Y-127011000D01*
X100663429Y-125939572D02*
X100606286Y-125982429D01*
X100549143Y-126111000D01*
X100549143Y-126196714D01*
X100606286Y-126325286D01*
X100720571Y-126411000D01*
X100834857Y-126453857D01*
X101063429Y-126496714D01*
X101234857Y-126496714D01*
X101463429Y-126453857D01*
X101577714Y-126411000D01*
X101692000Y-126325286D01*
X101749143Y-126196714D01*
X101749143Y-126111000D01*
X101692000Y-125982429D01*
X101634857Y-125939572D01*
X100549143Y-125553857D02*
X101749143Y-125553857D01*
X100549143Y-125039572D02*
X101234857Y-125425286D01*
X101749143Y-125039572D02*
X101063429Y-125553857D01*
X102835000Y-124129714D02*
X102892143Y-124215428D01*
X102892143Y-124343999D01*
X102835000Y-124472571D01*
X102720714Y-124558285D01*
X102606429Y-124601142D01*
X102377857Y-124643999D01*
X102206429Y-124643999D01*
X101977857Y-124601142D01*
X101863571Y-124558285D01*
X101749286Y-124472571D01*
X101692143Y-124343999D01*
X101692143Y-124258285D01*
X101749286Y-124129714D01*
X101806429Y-124086857D01*
X102206429Y-124086857D01*
X102206429Y-124258285D01*
X101692143Y-123701142D02*
X102892143Y-123701142D01*
X101692143Y-123186857D01*
X102892143Y-123186857D01*
X101692143Y-122758285D02*
X102892143Y-122758285D01*
X102892143Y-122544000D01*
X102835000Y-122415428D01*
X102720714Y-122329714D01*
X102606429Y-122286857D01*
X102377857Y-122244000D01*
X102206429Y-122244000D01*
X101977857Y-122286857D01*
X101863571Y-122329714D01*
X101749286Y-122415428D01*
X101692143Y-122544000D01*
X101692143Y-122758285D01*
X101749143Y-122104000D02*
X101749143Y-121589714D01*
X100549143Y-121846857D02*
X101749143Y-121846857D01*
X100549143Y-121289714D02*
X101749143Y-121289714D01*
X100892000Y-120989714D01*
X101749143Y-120689714D01*
X100549143Y-120689714D01*
X100606286Y-120304000D02*
X100549143Y-120175429D01*
X100549143Y-119961143D01*
X100606286Y-119875429D01*
X100663429Y-119832572D01*
X100777714Y-119789715D01*
X100892000Y-119789715D01*
X101006286Y-119832572D01*
X101063429Y-119875429D01*
X101120571Y-119961143D01*
X101177714Y-120132572D01*
X101234857Y-120218286D01*
X101292000Y-120261143D01*
X101406286Y-120304000D01*
X101520571Y-120304000D01*
X101634857Y-120261143D01*
X101692000Y-120218286D01*
X101749143Y-120132572D01*
X101749143Y-119918286D01*
X101692000Y-119789715D01*
X101692143Y-118856857D02*
X102263571Y-119156857D01*
X101692143Y-119371142D02*
X102892143Y-119371142D01*
X102892143Y-119028285D01*
X102835000Y-118942571D01*
X102777857Y-118899714D01*
X102663571Y-118856857D01*
X102492143Y-118856857D01*
X102377857Y-118899714D01*
X102320714Y-118942571D01*
X102263571Y-119028285D01*
X102263571Y-119371142D01*
X101749286Y-118513999D02*
X101692143Y-118385428D01*
X101692143Y-118171142D01*
X101749286Y-118085428D01*
X101806429Y-118042571D01*
X101920714Y-117999714D01*
X102035000Y-117999714D01*
X102149286Y-118042571D01*
X102206429Y-118085428D01*
X102263571Y-118171142D01*
X102320714Y-118342571D01*
X102377857Y-118428285D01*
X102435000Y-118471142D01*
X102549286Y-118513999D01*
X102663571Y-118513999D01*
X102777857Y-118471142D01*
X102835000Y-118428285D01*
X102892143Y-118342571D01*
X102892143Y-118128285D01*
X102835000Y-117999714D01*
X102892143Y-117742571D02*
X102892143Y-117228285D01*
X101692143Y-117485428D02*
X102892143Y-117485428D01*
X103099000Y-119585428D02*
X103099000Y-117142571D01*
X101876143Y-116748571D02*
X101876143Y-116234285D01*
X100676143Y-116491428D02*
X101876143Y-116491428D01*
X100676143Y-115934285D02*
X101876143Y-115934285D01*
X101876143Y-115720000D01*
X101819000Y-115591428D01*
X101704714Y-115505714D01*
X101590429Y-115462857D01*
X101361857Y-115420000D01*
X101190429Y-115420000D01*
X100961857Y-115462857D01*
X100847571Y-115505714D01*
X100733286Y-115591428D01*
X100676143Y-115720000D01*
X100676143Y-115934285D01*
X101876143Y-114862857D02*
X101876143Y-114691428D01*
X101819000Y-114605714D01*
X101704714Y-114520000D01*
X101476143Y-114477142D01*
X101076143Y-114477142D01*
X100847571Y-114520000D01*
X100733286Y-114605714D01*
X100676143Y-114691428D01*
X100676143Y-114862857D01*
X100733286Y-114948571D01*
X100847571Y-115034285D01*
X101076143Y-115077142D01*
X101476143Y-115077142D01*
X101704714Y-115034285D01*
X101819000Y-114948571D01*
X101876143Y-114862857D01*
X103019143Y-114205428D02*
X103019143Y-113691142D01*
X101819143Y-113948285D02*
X103019143Y-113948285D01*
X101819143Y-113391142D02*
X103019143Y-113391142D01*
X103019143Y-113176857D01*
X102962000Y-113048285D01*
X102847714Y-112962571D01*
X102733429Y-112919714D01*
X102504857Y-112876857D01*
X102333429Y-112876857D01*
X102104857Y-112919714D01*
X101990571Y-112962571D01*
X101876286Y-113048285D01*
X101819143Y-113176857D01*
X101819143Y-113391142D01*
X101819143Y-112491142D02*
X103019143Y-112491142D01*
D12*
X122080953Y-145471429D02*
X122080953Y-144871429D01*
X121623810Y-145471429D02*
X121966667Y-145128571D01*
X121623810Y-144871429D02*
X122080953Y-145214286D01*
X121166667Y-145471429D02*
X121242858Y-145442857D01*
X121280953Y-145414286D01*
X121319048Y-145357143D01*
X121319048Y-145185714D01*
X121280953Y-145128571D01*
X121242858Y-145100000D01*
X121166667Y-145071429D01*
X121052381Y-145071429D01*
X120976191Y-145100000D01*
X120938096Y-145128571D01*
X120900000Y-145185714D01*
X120900000Y-145357143D01*
X120938096Y-145414286D01*
X120976191Y-145442857D01*
X121052381Y-145471429D01*
X121166667Y-145471429D01*
X120557143Y-145071429D02*
X120557143Y-145471429D01*
X120557143Y-145128571D02*
X120519048Y-145100000D01*
X120442857Y-145071429D01*
X120328571Y-145071429D01*
X120252381Y-145100000D01*
X120214286Y-145157143D01*
X120214286Y-145471429D01*
X119871428Y-145442857D02*
X119795238Y-145471429D01*
X119642857Y-145471429D01*
X119566666Y-145442857D01*
X119528571Y-145385714D01*
X119528571Y-145357143D01*
X119566666Y-145300000D01*
X119642857Y-145271429D01*
X119757142Y-145271429D01*
X119833333Y-145242857D01*
X119871428Y-145185714D01*
X119871428Y-145157143D01*
X119833333Y-145100000D01*
X119757142Y-145071429D01*
X119642857Y-145071429D01*
X119566666Y-145100000D01*
X118842857Y-145071429D02*
X118842857Y-145557143D01*
X118880952Y-145614286D01*
X118919047Y-145642857D01*
X118995238Y-145671429D01*
X119109523Y-145671429D01*
X119185714Y-145642857D01*
X118842857Y-145442857D02*
X118919047Y-145471429D01*
X119071428Y-145471429D01*
X119147619Y-145442857D01*
X119185714Y-145414286D01*
X119223809Y-145357143D01*
X119223809Y-145185714D01*
X119185714Y-145128571D01*
X119147619Y-145100000D01*
X119071428Y-145071429D01*
X118919047Y-145071429D01*
X118842857Y-145100000D01*
X118461904Y-145071429D02*
X118461904Y-145471429D01*
X118461904Y-145128571D02*
X118423809Y-145100000D01*
X118347618Y-145071429D01*
X118233332Y-145071429D01*
X118157142Y-145100000D01*
X118119047Y-145157143D01*
X118119047Y-145471429D01*
X123342859Y-132861429D02*
X123342859Y-132261429D01*
X123342859Y-132547143D02*
X122885716Y-132547143D01*
X122885716Y-132861429D02*
X122885716Y-132261429D01*
X122161907Y-132861429D02*
X122161907Y-132547143D01*
X122200002Y-132490000D01*
X122276192Y-132461429D01*
X122428573Y-132461429D01*
X122504764Y-132490000D01*
X122161907Y-132832857D02*
X122238097Y-132861429D01*
X122428573Y-132861429D01*
X122504764Y-132832857D01*
X122542859Y-132775714D01*
X122542859Y-132718571D01*
X122504764Y-132661429D01*
X122428573Y-132632857D01*
X122238097Y-132632857D01*
X122161907Y-132604286D01*
X121438097Y-132832857D02*
X121514287Y-132861429D01*
X121666668Y-132861429D01*
X121742859Y-132832857D01*
X121780954Y-132804286D01*
X121819049Y-132747143D01*
X121819049Y-132575714D01*
X121780954Y-132518571D01*
X121742859Y-132490000D01*
X121666668Y-132461429D01*
X121514287Y-132461429D01*
X121438097Y-132490000D01*
X121095240Y-132861429D02*
X121095240Y-132261429D01*
X121019049Y-132632857D02*
X120790478Y-132861429D01*
X120790478Y-132461429D02*
X121095240Y-132690000D01*
X120447621Y-132861429D02*
X120447621Y-132261429D01*
X120180954Y-132690000D01*
X119914287Y-132261429D01*
X119914287Y-132861429D01*
X119190478Y-132861429D02*
X119190478Y-132547143D01*
X119228573Y-132490000D01*
X119304763Y-132461429D01*
X119457144Y-132461429D01*
X119533335Y-132490000D01*
X119190478Y-132832857D02*
X119266668Y-132861429D01*
X119457144Y-132861429D01*
X119533335Y-132832857D01*
X119571430Y-132775714D01*
X119571430Y-132718571D01*
X119533335Y-132661429D01*
X119457144Y-132632857D01*
X119266668Y-132632857D01*
X119190478Y-132604286D01*
X118809525Y-132461429D02*
X118809525Y-132861429D01*
X118809525Y-132518571D02*
X118771430Y-132490000D01*
X118695239Y-132461429D01*
X118580953Y-132461429D01*
X118504763Y-132490000D01*
X118466668Y-132547143D01*
X118466668Y-132861429D01*
X118085715Y-132861429D02*
X118085715Y-132261429D01*
X117742858Y-132861429D02*
X117742858Y-132547143D01*
X117780953Y-132490000D01*
X117857143Y-132461429D01*
X117971429Y-132461429D01*
X118047620Y-132490000D01*
X118085715Y-132518571D01*
X117019048Y-132861429D02*
X117019048Y-132547143D01*
X117057143Y-132490000D01*
X117133333Y-132461429D01*
X117285714Y-132461429D01*
X117361905Y-132490000D01*
X117019048Y-132832857D02*
X117095238Y-132861429D01*
X117285714Y-132861429D01*
X117361905Y-132832857D01*
X117400000Y-132775714D01*
X117400000Y-132718571D01*
X117361905Y-132661429D01*
X117285714Y-132632857D01*
X117095238Y-132632857D01*
X117019048Y-132604286D01*
X116752381Y-132461429D02*
X116447619Y-132461429D01*
X116638095Y-132261429D02*
X116638095Y-132775714D01*
X116600000Y-132832857D01*
X116523809Y-132861429D01*
X116447619Y-132861429D01*
X116295238Y-132461429D02*
X115990476Y-132461429D01*
X116180952Y-132261429D02*
X116180952Y-132775714D01*
X116142857Y-132832857D01*
X116066666Y-132861429D01*
X115990476Y-132861429D01*
X115380952Y-132861429D02*
X115380952Y-132547143D01*
X115419047Y-132490000D01*
X115495237Y-132461429D01*
X115647618Y-132461429D01*
X115723809Y-132490000D01*
X115380952Y-132832857D02*
X115457142Y-132861429D01*
X115647618Y-132861429D01*
X115723809Y-132832857D01*
X115761904Y-132775714D01*
X115761904Y-132718571D01*
X115723809Y-132661429D01*
X115647618Y-132632857D01*
X115457142Y-132632857D01*
X115380952Y-132604286D01*
X114999999Y-132461429D02*
X114999999Y-132861429D01*
X114999999Y-132518571D02*
X114961904Y-132490000D01*
X114885713Y-132461429D01*
X114771427Y-132461429D01*
X114695237Y-132490000D01*
X114657142Y-132547143D01*
X114657142Y-132861429D01*
X124219048Y-133567143D02*
X124104762Y-133595714D01*
X124066667Y-133624286D01*
X124028572Y-133681429D01*
X124028572Y-133767143D01*
X124066667Y-133824286D01*
X124104762Y-133852857D01*
X124180953Y-133881429D01*
X124485715Y-133881429D01*
X124485715Y-133281429D01*
X124219048Y-133281429D01*
X124142858Y-133310000D01*
X124104762Y-133338571D01*
X124066667Y-133395714D01*
X124066667Y-133452857D01*
X124104762Y-133510000D01*
X124142858Y-133538571D01*
X124219048Y-133567143D01*
X124485715Y-133567143D01*
X123571429Y-133881429D02*
X123647620Y-133852857D01*
X123685715Y-133795714D01*
X123685715Y-133281429D01*
X122923810Y-133881429D02*
X122923810Y-133567143D01*
X122961905Y-133510000D01*
X123038095Y-133481429D01*
X123190476Y-133481429D01*
X123266667Y-133510000D01*
X122923810Y-133852857D02*
X123000000Y-133881429D01*
X123190476Y-133881429D01*
X123266667Y-133852857D01*
X123304762Y-133795714D01*
X123304762Y-133738571D01*
X123266667Y-133681429D01*
X123190476Y-133652857D01*
X123000000Y-133652857D01*
X122923810Y-133624286D01*
X122200000Y-133852857D02*
X122276190Y-133881429D01*
X122428571Y-133881429D01*
X122504762Y-133852857D01*
X122542857Y-133824286D01*
X122580952Y-133767143D01*
X122580952Y-133595714D01*
X122542857Y-133538571D01*
X122504762Y-133510000D01*
X122428571Y-133481429D01*
X122276190Y-133481429D01*
X122200000Y-133510000D01*
X121857143Y-133881429D02*
X121857143Y-133281429D01*
X121780952Y-133652857D02*
X121552381Y-133881429D01*
X121552381Y-133481429D02*
X121857143Y-133710000D01*
X120600000Y-133881429D02*
X120600000Y-133281429D01*
X120333333Y-133710000D01*
X120066666Y-133281429D01*
X120066666Y-133881429D01*
X119342857Y-133881429D02*
X119342857Y-133567143D01*
X119380952Y-133510000D01*
X119457142Y-133481429D01*
X119609523Y-133481429D01*
X119685714Y-133510000D01*
X119342857Y-133852857D02*
X119419047Y-133881429D01*
X119609523Y-133881429D01*
X119685714Y-133852857D01*
X119723809Y-133795714D01*
X119723809Y-133738571D01*
X119685714Y-133681429D01*
X119609523Y-133652857D01*
X119419047Y-133652857D01*
X119342857Y-133624286D01*
X118619047Y-133481429D02*
X118619047Y-133967143D01*
X118657142Y-134024286D01*
X118695237Y-134052857D01*
X118771428Y-134081429D01*
X118885713Y-134081429D01*
X118961904Y-134052857D01*
X118619047Y-133852857D02*
X118695237Y-133881429D01*
X118847618Y-133881429D01*
X118923809Y-133852857D01*
X118961904Y-133824286D01*
X118999999Y-133767143D01*
X118999999Y-133595714D01*
X118961904Y-133538571D01*
X118923809Y-133510000D01*
X118847618Y-133481429D01*
X118695237Y-133481429D01*
X118619047Y-133510000D01*
X118238094Y-133881429D02*
X118238094Y-133481429D01*
X118238094Y-133281429D02*
X118276189Y-133310000D01*
X118238094Y-133338571D01*
X118199999Y-133310000D01*
X118238094Y-133281429D01*
X118238094Y-133338571D01*
X117514285Y-133852857D02*
X117590475Y-133881429D01*
X117742856Y-133881429D01*
X117819047Y-133852857D01*
X117857142Y-133824286D01*
X117895237Y-133767143D01*
X117895237Y-133595714D01*
X117857142Y-133538571D01*
X117819047Y-133510000D01*
X117742856Y-133481429D01*
X117590475Y-133481429D01*
X117514285Y-133510000D01*
X116561904Y-133881429D02*
X116561904Y-133281429D01*
X116257142Y-133281429D01*
X116180951Y-133310000D01*
X116142856Y-133338571D01*
X116104761Y-133395714D01*
X116104761Y-133481429D01*
X116142856Y-133538571D01*
X116180951Y-133567143D01*
X116257142Y-133595714D01*
X116561904Y-133595714D01*
X115761904Y-133881429D02*
X115761904Y-133481429D01*
X115761904Y-133595714D02*
X115723809Y-133538571D01*
X115685713Y-133510000D01*
X115609523Y-133481429D01*
X115533332Y-133481429D01*
X115152380Y-133881429D02*
X115228571Y-133852857D01*
X115266666Y-133824286D01*
X115304761Y-133767143D01*
X115304761Y-133595714D01*
X115266666Y-133538571D01*
X115228571Y-133510000D01*
X115152380Y-133481429D01*
X115038094Y-133481429D01*
X114961904Y-133510000D01*
X114923809Y-133538571D01*
X114885713Y-133595714D01*
X114885713Y-133767143D01*
X114923809Y-133824286D01*
X114961904Y-133852857D01*
X115038094Y-133881429D01*
X115152380Y-133881429D01*
X114542856Y-133881429D02*
X114542856Y-133281429D01*
X114542856Y-133510000D02*
X114466665Y-133481429D01*
X114314284Y-133481429D01*
X114238094Y-133510000D01*
X114199999Y-133538571D01*
X114161903Y-133595714D01*
X114161903Y-133767143D01*
X114199999Y-133824286D01*
X114238094Y-133852857D01*
X114314284Y-133881429D01*
X114466665Y-133881429D01*
X114542856Y-133852857D01*
X113514284Y-133852857D02*
X113590474Y-133881429D01*
X113742855Y-133881429D01*
X113819046Y-133852857D01*
X113857141Y-133795714D01*
X113857141Y-133567143D01*
X113819046Y-133510000D01*
X113742855Y-133481429D01*
X113590474Y-133481429D01*
X113514284Y-133510000D01*
X113476189Y-133567143D01*
X113476189Y-133624286D01*
X113857141Y-133681429D01*
D13*
X126750000Y-138000000D02*
X127250000Y-138500000D01*
X126750000Y-138000000D02*
X127250000Y-137500000D01*
X126750000Y-138000000D02*
X128500000Y-138000000D01*
X128500000Y-140500000D02*
X128000000Y-141000000D01*
X128500000Y-140500000D02*
X128000000Y-140000000D01*
X126750000Y-140500000D02*
X128500000Y-140500000D01*
X127042857Y-142791667D02*
X128242857Y-143125000D01*
X127042857Y-143458334D01*
X127250000Y-134713096D02*
X127192857Y-134617858D01*
X127192857Y-134475001D01*
X127250000Y-134332143D01*
X127364286Y-134236905D01*
X127478571Y-134189286D01*
X127707143Y-134141667D01*
X127878571Y-134141667D01*
X128107143Y-134189286D01*
X128221429Y-134236905D01*
X128335714Y-134332143D01*
X128392857Y-134475001D01*
X128392857Y-134570239D01*
X128335714Y-134713096D01*
X128278571Y-134760715D01*
X127878571Y-134760715D01*
X127878571Y-134570239D01*
X128392857Y-135189286D02*
X127192857Y-135189286D01*
X128392857Y-135760715D01*
X127192857Y-135760715D01*
X128392857Y-136236905D02*
X127192857Y-136236905D01*
X127192857Y-136475000D01*
X127250000Y-136617858D01*
X127364286Y-136713096D01*
X127478571Y-136760715D01*
X127707143Y-136808334D01*
X127878571Y-136808334D01*
X128107143Y-136760715D01*
X128221429Y-136713096D01*
X128335714Y-136617858D01*
X128392857Y-136475000D01*
X128392857Y-136236905D01*
X109200000Y-138500000D02*
X109500000Y-138750000D01*
X109200000Y-138500000D02*
X109500000Y-138250000D01*
X110250000Y-138500000D02*
X110250000Y-139025000D01*
X109200000Y-138500000D02*
X110250000Y-138500000D01*
X110139286Y-139686905D02*
X110196429Y-139829762D01*
X110253571Y-139877381D01*
X110367857Y-139925000D01*
X110539286Y-139925000D01*
X110653571Y-139877381D01*
X110710714Y-139829762D01*
X110767857Y-139734524D01*
X110767857Y-139353571D01*
X109567857Y-139353571D01*
X109567857Y-139686905D01*
X109625000Y-139782143D01*
X109682143Y-139829762D01*
X109796429Y-139877381D01*
X109910714Y-139877381D01*
X110025000Y-139829762D01*
X110082143Y-139782143D01*
X110139286Y-139686905D01*
X110139286Y-139353571D01*
X110767857Y-140496428D02*
X110710714Y-140401190D01*
X110653571Y-140353571D01*
X110539286Y-140305952D01*
X110196429Y-140305952D01*
X110082143Y-140353571D01*
X110025000Y-140401190D01*
X109967857Y-140496428D01*
X109967857Y-140639286D01*
X110025000Y-140734524D01*
X110082143Y-140782143D01*
X110196429Y-140829762D01*
X110539286Y-140829762D01*
X110653571Y-140782143D01*
X110710714Y-140734524D01*
X110767857Y-140639286D01*
X110767857Y-140496428D01*
X110767857Y-141401190D02*
X110710714Y-141305952D01*
X110653571Y-141258333D01*
X110539286Y-141210714D01*
X110196429Y-141210714D01*
X110082143Y-141258333D01*
X110025000Y-141305952D01*
X109967857Y-141401190D01*
X109967857Y-141544048D01*
X110025000Y-141639286D01*
X110082143Y-141686905D01*
X110196429Y-141734524D01*
X110539286Y-141734524D01*
X110653571Y-141686905D01*
X110710714Y-141639286D01*
X110767857Y-141544048D01*
X110767857Y-141401190D01*
X109967857Y-142020238D02*
X109967857Y-142401190D01*
X109567857Y-142163095D02*
X110596429Y-142163095D01*
X110710714Y-142210714D01*
X110767857Y-142305952D01*
X110767857Y-142401190D01*
X110767857Y-142877381D02*
X110710714Y-142782143D01*
X110596429Y-142734524D01*
X109567857Y-142734524D01*
X110767857Y-143401191D02*
X110710714Y-143305953D01*
X110653571Y-143258334D01*
X110539286Y-143210715D01*
X110196429Y-143210715D01*
X110082143Y-143258334D01*
X110025000Y-143305953D01*
X109967857Y-143401191D01*
X109967857Y-143544049D01*
X110025000Y-143639287D01*
X110082143Y-143686906D01*
X110196429Y-143734525D01*
X110539286Y-143734525D01*
X110653571Y-143686906D01*
X110710714Y-143639287D01*
X110767857Y-143544049D01*
X110767857Y-143401191D01*
X110767857Y-144591668D02*
X110139286Y-144591668D01*
X110025000Y-144544049D01*
X109967857Y-144448811D01*
X109967857Y-144258334D01*
X110025000Y-144163096D01*
X110710714Y-144591668D02*
X110767857Y-144496430D01*
X110767857Y-144258334D01*
X110710714Y-144163096D01*
X110596429Y-144115477D01*
X110482143Y-144115477D01*
X110367857Y-144163096D01*
X110310714Y-144258334D01*
X110310714Y-144496430D01*
X110253571Y-144591668D01*
X110767857Y-145496430D02*
X109567857Y-145496430D01*
X110710714Y-145496430D02*
X110767857Y-145401192D01*
X110767857Y-145210715D01*
X110710714Y-145115477D01*
X110653571Y-145067858D01*
X110539286Y-145020239D01*
X110196429Y-145020239D01*
X110082143Y-145067858D01*
X110025000Y-145115477D01*
X109967857Y-145210715D01*
X109967857Y-145401192D01*
X110025000Y-145496430D01*
D12*
X122919047Y-99528571D02*
X122919047Y-100128571D01*
X123376190Y-99528571D02*
X123033333Y-99871429D01*
X123376190Y-100128571D02*
X122919047Y-99785714D01*
X123833333Y-99528571D02*
X123757142Y-99557143D01*
X123719047Y-99585714D01*
X123680952Y-99642857D01*
X123680952Y-99814286D01*
X123719047Y-99871429D01*
X123757142Y-99900000D01*
X123833333Y-99928571D01*
X123947619Y-99928571D01*
X124023809Y-99900000D01*
X124061904Y-99871429D01*
X124100000Y-99814286D01*
X124100000Y-99642857D01*
X124061904Y-99585714D01*
X124023809Y-99557143D01*
X123947619Y-99528571D01*
X123833333Y-99528571D01*
X124442857Y-99928571D02*
X124442857Y-99528571D01*
X124442857Y-99871429D02*
X124480952Y-99900000D01*
X124557143Y-99928571D01*
X124671429Y-99928571D01*
X124747619Y-99900000D01*
X124785714Y-99842857D01*
X124785714Y-99528571D01*
X125128572Y-99557143D02*
X125204762Y-99528571D01*
X125357143Y-99528571D01*
X125433334Y-99557143D01*
X125471429Y-99614286D01*
X125471429Y-99642857D01*
X125433334Y-99700000D01*
X125357143Y-99728571D01*
X125242858Y-99728571D01*
X125166667Y-99757143D01*
X125128572Y-99814286D01*
X125128572Y-99842857D01*
X125166667Y-99900000D01*
X125242858Y-99928571D01*
X125357143Y-99928571D01*
X125433334Y-99900000D01*
X126157143Y-99928571D02*
X126157143Y-99442857D01*
X126119048Y-99385714D01*
X126080953Y-99357143D01*
X126004762Y-99328571D01*
X125890477Y-99328571D01*
X125814286Y-99357143D01*
X126157143Y-99557143D02*
X126080953Y-99528571D01*
X125928572Y-99528571D01*
X125852381Y-99557143D01*
X125814286Y-99585714D01*
X125776191Y-99642857D01*
X125776191Y-99814286D01*
X125814286Y-99871429D01*
X125852381Y-99900000D01*
X125928572Y-99928571D01*
X126080953Y-99928571D01*
X126157143Y-99900000D01*
X126538096Y-99928571D02*
X126538096Y-99528571D01*
X126538096Y-99871429D02*
X126576191Y-99900000D01*
X126652382Y-99928571D01*
X126766668Y-99928571D01*
X126842858Y-99900000D01*
X126880953Y-99842857D01*
X126880953Y-99528571D01*
X121657141Y-112138571D02*
X121657141Y-112738571D01*
X121657141Y-112452857D02*
X122114284Y-112452857D01*
X122114284Y-112138571D02*
X122114284Y-112738571D01*
X122838093Y-112138571D02*
X122838093Y-112452857D01*
X122799998Y-112510000D01*
X122723808Y-112538571D01*
X122571427Y-112538571D01*
X122495236Y-112510000D01*
X122838093Y-112167143D02*
X122761903Y-112138571D01*
X122571427Y-112138571D01*
X122495236Y-112167143D01*
X122457141Y-112224286D01*
X122457141Y-112281429D01*
X122495236Y-112338571D01*
X122571427Y-112367143D01*
X122761903Y-112367143D01*
X122838093Y-112395714D01*
X123561903Y-112167143D02*
X123485713Y-112138571D01*
X123333332Y-112138571D01*
X123257141Y-112167143D01*
X123219046Y-112195714D01*
X123180951Y-112252857D01*
X123180951Y-112424286D01*
X123219046Y-112481429D01*
X123257141Y-112510000D01*
X123333332Y-112538571D01*
X123485713Y-112538571D01*
X123561903Y-112510000D01*
X123904760Y-112138571D02*
X123904760Y-112738571D01*
X123980951Y-112367143D02*
X124209522Y-112138571D01*
X124209522Y-112538571D02*
X123904760Y-112310000D01*
X124552379Y-112138571D02*
X124552379Y-112738571D01*
X124819046Y-112310000D01*
X125085713Y-112738571D01*
X125085713Y-112138571D01*
X125809522Y-112138571D02*
X125809522Y-112452857D01*
X125771427Y-112510000D01*
X125695237Y-112538571D01*
X125542856Y-112538571D01*
X125466665Y-112510000D01*
X125809522Y-112167143D02*
X125733332Y-112138571D01*
X125542856Y-112138571D01*
X125466665Y-112167143D01*
X125428570Y-112224286D01*
X125428570Y-112281429D01*
X125466665Y-112338571D01*
X125542856Y-112367143D01*
X125733332Y-112367143D01*
X125809522Y-112395714D01*
X126190475Y-112538571D02*
X126190475Y-112138571D01*
X126190475Y-112481429D02*
X126228570Y-112510000D01*
X126304761Y-112538571D01*
X126419047Y-112538571D01*
X126495237Y-112510000D01*
X126533332Y-112452857D01*
X126533332Y-112138571D01*
X126914285Y-112138571D02*
X126914285Y-112738571D01*
X127257142Y-112138571D02*
X127257142Y-112452857D01*
X127219047Y-112510000D01*
X127142857Y-112538571D01*
X127028571Y-112538571D01*
X126952380Y-112510000D01*
X126914285Y-112481429D01*
X127980952Y-112138571D02*
X127980952Y-112452857D01*
X127942857Y-112510000D01*
X127866667Y-112538571D01*
X127714286Y-112538571D01*
X127638095Y-112510000D01*
X127980952Y-112167143D02*
X127904762Y-112138571D01*
X127714286Y-112138571D01*
X127638095Y-112167143D01*
X127600000Y-112224286D01*
X127600000Y-112281429D01*
X127638095Y-112338571D01*
X127714286Y-112367143D01*
X127904762Y-112367143D01*
X127980952Y-112395714D01*
X128247619Y-112538571D02*
X128552381Y-112538571D01*
X128361905Y-112738571D02*
X128361905Y-112224286D01*
X128400000Y-112167143D01*
X128476191Y-112138571D01*
X128552381Y-112138571D01*
X128704762Y-112538571D02*
X129009524Y-112538571D01*
X128819048Y-112738571D02*
X128819048Y-112224286D01*
X128857143Y-112167143D01*
X128933334Y-112138571D01*
X129009524Y-112138571D01*
X129619048Y-112138571D02*
X129619048Y-112452857D01*
X129580953Y-112510000D01*
X129504763Y-112538571D01*
X129352382Y-112538571D01*
X129276191Y-112510000D01*
X129619048Y-112167143D02*
X129542858Y-112138571D01*
X129352382Y-112138571D01*
X129276191Y-112167143D01*
X129238096Y-112224286D01*
X129238096Y-112281429D01*
X129276191Y-112338571D01*
X129352382Y-112367143D01*
X129542858Y-112367143D01*
X129619048Y-112395714D01*
X130000001Y-112538571D02*
X130000001Y-112138571D01*
X130000001Y-112481429D02*
X130038096Y-112510000D01*
X130114287Y-112538571D01*
X130228573Y-112538571D01*
X130304763Y-112510000D01*
X130342858Y-112452857D01*
X130342858Y-112138571D01*
X120780952Y-111432857D02*
X120895238Y-111404286D01*
X120933333Y-111375714D01*
X120971428Y-111318571D01*
X120971428Y-111232857D01*
X120933333Y-111175714D01*
X120895238Y-111147143D01*
X120819047Y-111118571D01*
X120514285Y-111118571D01*
X120514285Y-111718571D01*
X120780952Y-111718571D01*
X120857142Y-111690000D01*
X120895238Y-111661429D01*
X120933333Y-111604286D01*
X120933333Y-111547143D01*
X120895238Y-111490000D01*
X120857142Y-111461429D01*
X120780952Y-111432857D01*
X120514285Y-111432857D01*
X121428571Y-111118571D02*
X121352380Y-111147143D01*
X121314285Y-111204286D01*
X121314285Y-111718571D01*
X122076190Y-111118571D02*
X122076190Y-111432857D01*
X122038095Y-111490000D01*
X121961905Y-111518571D01*
X121809524Y-111518571D01*
X121733333Y-111490000D01*
X122076190Y-111147143D02*
X122000000Y-111118571D01*
X121809524Y-111118571D01*
X121733333Y-111147143D01*
X121695238Y-111204286D01*
X121695238Y-111261429D01*
X121733333Y-111318571D01*
X121809524Y-111347143D01*
X122000000Y-111347143D01*
X122076190Y-111375714D01*
X122800000Y-111147143D02*
X122723810Y-111118571D01*
X122571429Y-111118571D01*
X122495238Y-111147143D01*
X122457143Y-111175714D01*
X122419048Y-111232857D01*
X122419048Y-111404286D01*
X122457143Y-111461429D01*
X122495238Y-111490000D01*
X122571429Y-111518571D01*
X122723810Y-111518571D01*
X122800000Y-111490000D01*
X123142857Y-111118571D02*
X123142857Y-111718571D01*
X123219048Y-111347143D02*
X123447619Y-111118571D01*
X123447619Y-111518571D02*
X123142857Y-111290000D01*
X124400000Y-111118571D02*
X124400000Y-111718571D01*
X124666667Y-111290000D01*
X124933334Y-111718571D01*
X124933334Y-111118571D01*
X125657143Y-111118571D02*
X125657143Y-111432857D01*
X125619048Y-111490000D01*
X125542858Y-111518571D01*
X125390477Y-111518571D01*
X125314286Y-111490000D01*
X125657143Y-111147143D02*
X125580953Y-111118571D01*
X125390477Y-111118571D01*
X125314286Y-111147143D01*
X125276191Y-111204286D01*
X125276191Y-111261429D01*
X125314286Y-111318571D01*
X125390477Y-111347143D01*
X125580953Y-111347143D01*
X125657143Y-111375714D01*
X126380953Y-111518571D02*
X126380953Y-111032857D01*
X126342858Y-110975714D01*
X126304763Y-110947143D01*
X126228572Y-110918571D01*
X126114287Y-110918571D01*
X126038096Y-110947143D01*
X126380953Y-111147143D02*
X126304763Y-111118571D01*
X126152382Y-111118571D01*
X126076191Y-111147143D01*
X126038096Y-111175714D01*
X126000001Y-111232857D01*
X126000001Y-111404286D01*
X126038096Y-111461429D01*
X126076191Y-111490000D01*
X126152382Y-111518571D01*
X126304763Y-111518571D01*
X126380953Y-111490000D01*
X126761906Y-111118571D02*
X126761906Y-111518571D01*
X126761906Y-111718571D02*
X126723811Y-111690000D01*
X126761906Y-111661429D01*
X126800001Y-111690000D01*
X126761906Y-111718571D01*
X126761906Y-111661429D01*
X127485715Y-111147143D02*
X127409525Y-111118571D01*
X127257144Y-111118571D01*
X127180953Y-111147143D01*
X127142858Y-111175714D01*
X127104763Y-111232857D01*
X127104763Y-111404286D01*
X127142858Y-111461429D01*
X127180953Y-111490000D01*
X127257144Y-111518571D01*
X127409525Y-111518571D01*
X127485715Y-111490000D01*
X128438096Y-111118571D02*
X128438096Y-111718571D01*
X128742858Y-111718571D01*
X128819049Y-111690000D01*
X128857144Y-111661429D01*
X128895239Y-111604286D01*
X128895239Y-111518571D01*
X128857144Y-111461429D01*
X128819049Y-111432857D01*
X128742858Y-111404286D01*
X128438096Y-111404286D01*
X129238096Y-111118571D02*
X129238096Y-111518571D01*
X129238096Y-111404286D02*
X129276191Y-111461429D01*
X129314287Y-111490000D01*
X129390477Y-111518571D01*
X129466668Y-111518571D01*
X129847620Y-111118571D02*
X129771429Y-111147143D01*
X129733334Y-111175714D01*
X129695239Y-111232857D01*
X129695239Y-111404286D01*
X129733334Y-111461429D01*
X129771429Y-111490000D01*
X129847620Y-111518571D01*
X129961906Y-111518571D01*
X130038096Y-111490000D01*
X130076191Y-111461429D01*
X130114287Y-111404286D01*
X130114287Y-111232857D01*
X130076191Y-111175714D01*
X130038096Y-111147143D01*
X129961906Y-111118571D01*
X129847620Y-111118571D01*
X130457144Y-111118571D02*
X130457144Y-111718571D01*
X130457144Y-111490000D02*
X130533335Y-111518571D01*
X130685716Y-111518571D01*
X130761906Y-111490000D01*
X130800001Y-111461429D01*
X130838097Y-111404286D01*
X130838097Y-111232857D01*
X130800001Y-111175714D01*
X130761906Y-111147143D01*
X130685716Y-111118571D01*
X130533335Y-111118571D01*
X130457144Y-111147143D01*
X131485716Y-111147143D02*
X131409526Y-111118571D01*
X131257145Y-111118571D01*
X131180954Y-111147143D01*
X131142859Y-111204286D01*
X131142859Y-111432857D01*
X131180954Y-111490000D01*
X131257145Y-111518571D01*
X131409526Y-111518571D01*
X131485716Y-111490000D01*
X131523811Y-111432857D01*
X131523811Y-111375714D01*
X131142859Y-111318571D01*
D13*
X118250000Y-107000000D02*
X117750000Y-106500000D01*
X118250000Y-107000000D02*
X117750000Y-107500000D01*
X118250000Y-107000000D02*
X116500000Y-107000000D01*
X116500000Y-104500000D02*
X117000000Y-104000000D01*
X116500000Y-104500000D02*
X117000000Y-105000000D01*
X118250000Y-104500000D02*
X116500000Y-104500000D01*
X117957143Y-102208333D02*
X116757143Y-101875000D01*
X117957143Y-101541666D01*
X117750000Y-110286904D02*
X117807143Y-110382142D01*
X117807143Y-110524999D01*
X117750000Y-110667857D01*
X117635714Y-110763095D01*
X117521429Y-110810714D01*
X117292857Y-110858333D01*
X117121429Y-110858333D01*
X116892857Y-110810714D01*
X116778571Y-110763095D01*
X116664286Y-110667857D01*
X116607143Y-110524999D01*
X116607143Y-110429761D01*
X116664286Y-110286904D01*
X116721429Y-110239285D01*
X117121429Y-110239285D01*
X117121429Y-110429761D01*
X116607143Y-109810714D02*
X117807143Y-109810714D01*
X116607143Y-109239285D01*
X117807143Y-109239285D01*
X116607143Y-108763095D02*
X117807143Y-108763095D01*
X117807143Y-108525000D01*
X117750000Y-108382142D01*
X117635714Y-108286904D01*
X117521429Y-108239285D01*
X117292857Y-108191666D01*
X117121429Y-108191666D01*
X116892857Y-108239285D01*
X116778571Y-108286904D01*
X116664286Y-108382142D01*
X116607143Y-108525000D01*
X116607143Y-108763095D01*
X135800000Y-106500000D02*
X135500000Y-106250000D01*
X135800000Y-106500000D02*
X135500000Y-106750000D01*
X134750000Y-106500000D02*
X134750000Y-105975000D01*
X135800000Y-106500000D02*
X134750000Y-106500000D01*
X134860714Y-105313095D02*
X134803571Y-105170238D01*
X134746429Y-105122619D01*
X134632143Y-105075000D01*
X134460714Y-105075000D01*
X134346429Y-105122619D01*
X134289286Y-105170238D01*
X134232143Y-105265476D01*
X134232143Y-105646429D01*
X135432143Y-105646429D01*
X135432143Y-105313095D01*
X135375000Y-105217857D01*
X135317857Y-105170238D01*
X135203571Y-105122619D01*
X135089286Y-105122619D01*
X134975000Y-105170238D01*
X134917857Y-105217857D01*
X134860714Y-105313095D01*
X134860714Y-105646429D01*
X134232143Y-104503572D02*
X134289286Y-104598810D01*
X134346429Y-104646429D01*
X134460714Y-104694048D01*
X134803571Y-104694048D01*
X134917857Y-104646429D01*
X134975000Y-104598810D01*
X135032143Y-104503572D01*
X135032143Y-104360714D01*
X134975000Y-104265476D01*
X134917857Y-104217857D01*
X134803571Y-104170238D01*
X134460714Y-104170238D01*
X134346429Y-104217857D01*
X134289286Y-104265476D01*
X134232143Y-104360714D01*
X134232143Y-104503572D01*
X134232143Y-103598810D02*
X134289286Y-103694048D01*
X134346429Y-103741667D01*
X134460714Y-103789286D01*
X134803571Y-103789286D01*
X134917857Y-103741667D01*
X134975000Y-103694048D01*
X135032143Y-103598810D01*
X135032143Y-103455952D01*
X134975000Y-103360714D01*
X134917857Y-103313095D01*
X134803571Y-103265476D01*
X134460714Y-103265476D01*
X134346429Y-103313095D01*
X134289286Y-103360714D01*
X134232143Y-103455952D01*
X134232143Y-103598810D01*
X135032143Y-102979762D02*
X135032143Y-102598810D01*
X135432143Y-102836905D02*
X134403571Y-102836905D01*
X134289286Y-102789286D01*
X134232143Y-102694048D01*
X134232143Y-102598810D01*
X134232143Y-102122619D02*
X134289286Y-102217857D01*
X134403571Y-102265476D01*
X135432143Y-102265476D01*
X134232143Y-101598809D02*
X134289286Y-101694047D01*
X134346429Y-101741666D01*
X134460714Y-101789285D01*
X134803571Y-101789285D01*
X134917857Y-101741666D01*
X134975000Y-101694047D01*
X135032143Y-101598809D01*
X135032143Y-101455951D01*
X134975000Y-101360713D01*
X134917857Y-101313094D01*
X134803571Y-101265475D01*
X134460714Y-101265475D01*
X134346429Y-101313094D01*
X134289286Y-101360713D01*
X134232143Y-101455951D01*
X134232143Y-101598809D01*
X134232143Y-100408332D02*
X134860714Y-100408332D01*
X134975000Y-100455951D01*
X135032143Y-100551189D01*
X135032143Y-100741666D01*
X134975000Y-100836904D01*
X134289286Y-100408332D02*
X134232143Y-100503570D01*
X134232143Y-100741666D01*
X134289286Y-100836904D01*
X134403571Y-100884523D01*
X134517857Y-100884523D01*
X134632143Y-100836904D01*
X134689286Y-100741666D01*
X134689286Y-100503570D01*
X134746429Y-100408332D01*
X134232143Y-99503570D02*
X135432143Y-99503570D01*
X134289286Y-99503570D02*
X134232143Y-99598808D01*
X134232143Y-99789285D01*
X134289286Y-99884523D01*
X134346429Y-99932142D01*
X134460714Y-99979761D01*
X134803571Y-99979761D01*
X134917857Y-99932142D01*
X134975000Y-99884523D01*
X135032143Y-99789285D01*
X135032143Y-99598808D01*
X134975000Y-99503570D01*
D12*
X135400000Y-137570000D02*
X134870000Y-137570000D01*
X134870000Y-137570000D02*
X134870000Y-142770000D01*
X134870000Y-142770000D02*
X135400000Y-142770000D01*
X142080000Y-137570000D02*
X142610000Y-137570000D01*
X142610000Y-137570000D02*
X142610000Y-142770000D01*
X142610000Y-142770000D02*
X142080000Y-142770000D01*
X135400000Y-135900000D02*
X135400000Y-137570000D01*
X109600000Y-107430000D02*
X110130000Y-107430000D01*
X110130000Y-107430000D02*
X110130000Y-102230000D01*
X110130000Y-102230000D02*
X109600000Y-102230000D01*
X102920000Y-107430000D02*
X102390000Y-107430000D01*
X102390000Y-107430000D02*
X102390000Y-102230000D01*
X102390000Y-102230000D02*
X102920000Y-102230000D01*
X109600000Y-109100000D02*
X109600000Y-107430000D01*
X116986600Y-140336400D02*
X116986600Y-139336400D01*
X115626600Y-139336400D02*
X115626600Y-140336400D01*
X114400000Y-138400000D02*
X113700000Y-138400000D01*
X113700000Y-139600000D02*
X114400000Y-139600000D01*
X114400000Y-143650000D02*
X114400000Y-144350000D01*
X115600000Y-144350000D02*
X115600000Y-143650000D01*
D14*
X121404380Y-134503180D02*
X121955560Y-134503180D01*
X121955560Y-134653040D02*
X121955560Y-134503180D01*
X120007380Y-134503180D02*
X119456200Y-134503180D01*
X119456200Y-134503180D02*
X119456200Y-134653040D01*
X121955560Y-138849120D02*
X121955560Y-138998980D01*
X121955560Y-138998980D02*
X121404380Y-138998980D01*
X119606060Y-138998980D02*
X119456200Y-138849120D01*
D12*
X121665000Y-144033600D02*
X118315000Y-144033600D01*
X118315000Y-144033600D02*
X118315000Y-140133600D01*
X107350000Y-135680000D02*
X108350000Y-135680000D01*
X108350000Y-134320000D02*
X107350000Y-134320000D01*
X109320000Y-136350000D02*
X109320000Y-137350000D01*
X110680000Y-137350000D02*
X110680000Y-136350000D01*
X109480000Y-145000000D02*
X109480000Y-144000000D01*
X108120000Y-144000000D02*
X108120000Y-145000000D01*
X114550000Y-136920000D02*
X113550000Y-136920000D01*
X113550000Y-138280000D02*
X114550000Y-138280000D01*
X107250000Y-133430000D02*
X108250000Y-133430000D01*
X108250000Y-132070000D02*
X107250000Y-132070000D01*
X123545600Y-143023400D02*
X123545600Y-144293400D01*
X123545600Y-144293400D02*
X124815600Y-144293400D01*
X128013400Y-104663600D02*
X128013400Y-105663600D01*
X129373400Y-105663600D02*
X129373400Y-104663600D01*
X130600000Y-106600000D02*
X131300000Y-106600000D01*
X131300000Y-105400000D02*
X130600000Y-105400000D01*
X130600000Y-101350000D02*
X130600000Y-100650000D01*
X129400000Y-100650000D02*
X129400000Y-101350000D01*
D14*
X123595620Y-110496820D02*
X123044440Y-110496820D01*
X123044440Y-110346960D02*
X123044440Y-110496820D01*
X124992620Y-110496820D02*
X125543800Y-110496820D01*
X125543800Y-110496820D02*
X125543800Y-110346960D01*
X123044440Y-106150880D02*
X123044440Y-106001020D01*
X123044440Y-106001020D02*
X123595620Y-106001020D01*
X125393940Y-106001020D02*
X125543800Y-106150880D01*
D12*
X123335000Y-100966400D02*
X126685000Y-100966400D01*
X126685000Y-100966400D02*
X126685000Y-104866400D01*
X137650000Y-109320000D02*
X136650000Y-109320000D01*
X136650000Y-110680000D02*
X137650000Y-110680000D01*
X135680000Y-108650000D02*
X135680000Y-107650000D01*
X134320000Y-107650000D02*
X134320000Y-108650000D01*
X135520000Y-100000000D02*
X135520000Y-101000000D01*
X136880000Y-101000000D02*
X136880000Y-100000000D01*
X130450000Y-108080000D02*
X131450000Y-108080000D01*
X131450000Y-106720000D02*
X130450000Y-106720000D01*
X137750000Y-111570000D02*
X136750000Y-111570000D01*
X136750000Y-112930000D02*
X137750000Y-112930000D01*
X121454400Y-101976600D02*
X121454400Y-100706600D01*
X121454400Y-100706600D02*
X120184400Y-100706600D01*
D11*
X133322381Y-139836667D02*
X134036667Y-139836667D01*
X134179524Y-139789047D01*
X134274762Y-139693809D01*
X134322381Y-139550952D01*
X134322381Y-139455714D01*
X133322381Y-140217619D02*
X133322381Y-140836667D01*
X133703333Y-140503333D01*
X133703333Y-140646191D01*
X133750952Y-140741429D01*
X133798571Y-140789048D01*
X133893810Y-140836667D01*
X134131905Y-140836667D01*
X134227143Y-140789048D01*
X134274762Y-140741429D01*
X134322381Y-140646191D01*
X134322381Y-140360476D01*
X134274762Y-140265238D01*
X134227143Y-140217619D01*
X123452641Y-115666667D02*
X122976450Y-115333333D01*
X123452641Y-115095238D02*
X122452641Y-115095238D01*
X122452641Y-115476191D01*
X122500260Y-115571429D01*
X122547879Y-115619048D01*
X122643117Y-115666667D01*
X122785974Y-115666667D01*
X122881212Y-115619048D01*
X122928831Y-115571429D01*
X122976450Y-115476191D01*
X122976450Y-115095238D01*
X122928831Y-116095238D02*
X122928831Y-116428572D01*
X123452641Y-116571429D02*
X123452641Y-116095238D01*
X122452641Y-116095238D01*
X122452641Y-116571429D01*
X122928831Y-117333334D02*
X122928831Y-117000000D01*
X123452641Y-117000000D02*
X122452641Y-117000000D01*
X122452641Y-117476191D01*
X122452641Y-118000000D02*
X122690736Y-118000000D01*
X122595498Y-117761905D02*
X122690736Y-118000000D01*
X122595498Y-118238096D01*
X122881212Y-117857143D02*
X122690736Y-118000000D01*
X122881212Y-118142858D01*
X122452641Y-118761905D02*
X122690736Y-118761905D01*
X122595498Y-118523810D02*
X122690736Y-118761905D01*
X122595498Y-119000001D01*
X122881212Y-118619048D02*
X122690736Y-118761905D01*
X122881212Y-118904763D01*
X128353061Y-122236816D02*
X128353061Y-121760625D01*
X128829251Y-121713006D01*
X128781632Y-121760625D01*
X128734013Y-121855863D01*
X128734013Y-122093959D01*
X128781632Y-122189197D01*
X128829251Y-122236816D01*
X128924490Y-122284435D01*
X129162585Y-122284435D01*
X129257823Y-122236816D01*
X129305442Y-122189197D01*
X129353061Y-122093959D01*
X129353061Y-121855863D01*
X129305442Y-121760625D01*
X129257823Y-121713006D01*
X128251461Y-116952381D02*
X128251461Y-117047620D01*
X128299080Y-117142858D01*
X128346699Y-117190477D01*
X128441937Y-117238096D01*
X128632413Y-117285715D01*
X128870509Y-117285715D01*
X129060985Y-117238096D01*
X129156223Y-117190477D01*
X129203842Y-117142858D01*
X129251461Y-117047620D01*
X129251461Y-116952381D01*
X129203842Y-116857143D01*
X129156223Y-116809524D01*
X129060985Y-116761905D01*
X128870509Y-116714286D01*
X128632413Y-116714286D01*
X128441937Y-116761905D01*
X128346699Y-116809524D01*
X128299080Y-116857143D01*
X128251461Y-116952381D01*
X129152401Y-125476171D02*
X129152401Y-124904742D01*
X129152401Y-125190456D02*
X128152401Y-125190456D01*
X128295258Y-125095218D01*
X128390496Y-124999980D01*
X128438115Y-124904742D01*
X128152401Y-126095218D02*
X128152401Y-126190457D01*
X128200020Y-126285695D01*
X128247639Y-126333314D01*
X128342877Y-126380933D01*
X128533353Y-126428552D01*
X128771449Y-126428552D01*
X128961925Y-126380933D01*
X129057163Y-126333314D01*
X129104782Y-126285695D01*
X129152401Y-126190457D01*
X129152401Y-126095218D01*
X129104782Y-125999980D01*
X129057163Y-125952361D01*
X128961925Y-125904742D01*
X128771449Y-125857123D01*
X128533353Y-125857123D01*
X128342877Y-125904742D01*
X128247639Y-125952361D01*
X128200020Y-125999980D01*
X128152401Y-126095218D01*
X129152401Y-126857123D02*
X128485734Y-126857123D01*
X128580972Y-126857123D02*
X128533353Y-126904742D01*
X128485734Y-126999980D01*
X128485734Y-127142838D01*
X128533353Y-127238076D01*
X128628591Y-127285695D01*
X129152401Y-127285695D01*
X128628591Y-127285695D02*
X128533353Y-127333314D01*
X128485734Y-127428552D01*
X128485734Y-127571409D01*
X128533353Y-127666647D01*
X128628591Y-127714266D01*
X129152401Y-127714266D01*
X129152401Y-128190456D02*
X128485734Y-128190456D01*
X128580972Y-128190456D02*
X128533353Y-128238075D01*
X128485734Y-128333313D01*
X128485734Y-128476171D01*
X128533353Y-128571409D01*
X128628591Y-128619028D01*
X129152401Y-128619028D01*
X128628591Y-128619028D02*
X128533353Y-128666647D01*
X128485734Y-128761885D01*
X128485734Y-128904742D01*
X128533353Y-128999980D01*
X128628591Y-129047599D01*
X129152401Y-129047599D01*
X117372381Y-120920667D02*
X116896190Y-120587333D01*
X117372381Y-120349238D02*
X116372381Y-120349238D01*
X116372381Y-120730191D01*
X116420000Y-120825429D01*
X116467619Y-120873048D01*
X116562857Y-120920667D01*
X116705714Y-120920667D01*
X116800952Y-120873048D01*
X116848571Y-120825429D01*
X116896190Y-120730191D01*
X116896190Y-120349238D01*
X116848571Y-121349238D02*
X116848571Y-121682572D01*
X117372381Y-121825429D02*
X117372381Y-121349238D01*
X116372381Y-121349238D01*
X116372381Y-121825429D01*
X116848571Y-122587334D02*
X116848571Y-122254000D01*
X117372381Y-122254000D02*
X116372381Y-122254000D01*
X116372381Y-122730191D01*
X116372381Y-123254000D02*
X116610476Y-123254000D01*
X116515238Y-123015905D02*
X116610476Y-123254000D01*
X116515238Y-123492096D01*
X116800952Y-123111143D02*
X116610476Y-123254000D01*
X116800952Y-123396858D01*
X116372381Y-124015905D02*
X116610476Y-124015905D01*
X116515238Y-123777810D02*
X116610476Y-124015905D01*
X116515238Y-124254001D01*
X116800952Y-123873048D02*
X116610476Y-124015905D01*
X116800952Y-124158763D01*
X110582381Y-104496667D02*
X111296667Y-104496667D01*
X111439524Y-104449047D01*
X111534762Y-104353809D01*
X111582381Y-104210952D01*
X111582381Y-104115714D01*
X110582381Y-104877619D02*
X110582381Y-105496667D01*
X110963333Y-105163333D01*
X110963333Y-105306191D01*
X111010952Y-105401429D01*
X111058571Y-105449048D01*
X111153810Y-105496667D01*
X111391905Y-105496667D01*
X111487143Y-105449048D01*
X111534762Y-105401429D01*
X111582381Y-105306191D01*
X111582381Y-105020476D01*
X111534762Y-104925238D01*
X111487143Y-104877619D01*
X116852381Y-137533334D02*
X116376190Y-137200000D01*
X116852381Y-136961905D02*
X115852381Y-136961905D01*
X115852381Y-137342858D01*
X115900000Y-137438096D01*
X115947619Y-137485715D01*
X116042857Y-137533334D01*
X116185714Y-137533334D01*
X116280952Y-137485715D01*
X116328571Y-137438096D01*
X116376190Y-137342858D01*
X116376190Y-136961905D01*
X115852381Y-137866667D02*
X115852381Y-138533334D01*
X116852381Y-138104762D01*
X114266666Y-140757143D02*
X114314285Y-140804762D01*
X114457142Y-140852381D01*
X114552380Y-140852381D01*
X114695238Y-140804762D01*
X114790476Y-140709524D01*
X114838095Y-140614286D01*
X114885714Y-140423810D01*
X114885714Y-140280952D01*
X114838095Y-140090476D01*
X114790476Y-139995238D01*
X114695238Y-139900000D01*
X114552380Y-139852381D01*
X114457142Y-139852381D01*
X114314285Y-139900000D01*
X114266666Y-139947619D01*
X113361904Y-139852381D02*
X113838095Y-139852381D01*
X113885714Y-140328571D01*
X113838095Y-140280952D01*
X113742857Y-140233333D01*
X113504761Y-140233333D01*
X113409523Y-140280952D01*
X113361904Y-140328571D01*
X113314285Y-140423810D01*
X113314285Y-140661905D01*
X113361904Y-140757143D01*
X113409523Y-140804762D01*
X113504761Y-140852381D01*
X113742857Y-140852381D01*
X113838095Y-140804762D01*
X113885714Y-140757143D01*
X113857143Y-143833334D02*
X113904762Y-143785715D01*
X113952381Y-143642858D01*
X113952381Y-143547620D01*
X113904762Y-143404762D01*
X113809524Y-143309524D01*
X113714286Y-143261905D01*
X113523810Y-143214286D01*
X113380952Y-143214286D01*
X113190476Y-143261905D01*
X113095238Y-143309524D01*
X113000000Y-143404762D01*
X112952381Y-143547620D01*
X112952381Y-143642858D01*
X113000000Y-143785715D01*
X113047619Y-143833334D01*
X113380952Y-144404762D02*
X113333333Y-144309524D01*
X113285714Y-144261905D01*
X113190476Y-144214286D01*
X113142857Y-144214286D01*
X113047619Y-144261905D01*
X113000000Y-144309524D01*
X112952381Y-144404762D01*
X112952381Y-144595239D01*
X113000000Y-144690477D01*
X113047619Y-144738096D01*
X113142857Y-144785715D01*
X113190476Y-144785715D01*
X113285714Y-144738096D01*
X113333333Y-144690477D01*
X113380952Y-144595239D01*
X113380952Y-144404762D01*
X113428571Y-144309524D01*
X113476190Y-144261905D01*
X113571429Y-144214286D01*
X113761905Y-144214286D01*
X113857143Y-144261905D01*
X113904762Y-144309524D01*
X113952381Y-144404762D01*
X113952381Y-144595239D01*
X113904762Y-144690477D01*
X113857143Y-144738096D01*
X113761905Y-144785715D01*
X113571429Y-144785715D01*
X113476190Y-144738096D01*
X113428571Y-144690477D01*
X113380952Y-144595239D01*
D10*
X119259524Y-138957143D02*
X119259524Y-139685714D01*
X119221429Y-139771429D01*
X119183333Y-139814286D01*
X119107143Y-139857143D01*
X118954762Y-139857143D01*
X118878571Y-139814286D01*
X118840476Y-139771429D01*
X118802381Y-139685714D01*
X118802381Y-138957143D01*
X118459524Y-139042857D02*
X118421429Y-139000000D01*
X118345238Y-138957143D01*
X118154762Y-138957143D01*
X118078572Y-139000000D01*
X118040476Y-139042857D01*
X118002381Y-139128571D01*
X118002381Y-139214286D01*
X118040476Y-139342857D01*
X118497619Y-139857143D01*
X118002381Y-139857143D01*
D11*
X117076190Y-142123809D02*
X117552381Y-142123809D01*
X116552381Y-141790476D02*
X117076190Y-142123809D01*
X116552381Y-142457143D01*
X117552381Y-143314286D02*
X117552381Y-142742857D01*
X117552381Y-143028571D02*
X116552381Y-143028571D01*
X116695238Y-142933333D01*
X116790476Y-142838095D01*
X116838095Y-142742857D01*
X110066666Y-135552381D02*
X110400000Y-135076190D01*
X110638095Y-135552381D02*
X110638095Y-134552381D01*
X110257142Y-134552381D01*
X110161904Y-134600000D01*
X110114285Y-134647619D01*
X110066666Y-134742857D01*
X110066666Y-134885714D01*
X110114285Y-134980952D01*
X110161904Y-135028571D01*
X110257142Y-135076190D01*
X110638095Y-135076190D01*
X109114285Y-135552381D02*
X109685714Y-135552381D01*
X109400000Y-135552381D02*
X109400000Y-134552381D01*
X109495238Y-134695238D01*
X109590476Y-134790476D01*
X109685714Y-134838095D01*
X111902381Y-136683334D02*
X111426190Y-136350000D01*
X111902381Y-136111905D02*
X110902381Y-136111905D01*
X110902381Y-136492858D01*
X110950000Y-136588096D01*
X110997619Y-136635715D01*
X111092857Y-136683334D01*
X111235714Y-136683334D01*
X111330952Y-136635715D01*
X111378571Y-136588096D01*
X111426190Y-136492858D01*
X111426190Y-136111905D01*
X110997619Y-137064286D02*
X110950000Y-137111905D01*
X110902381Y-137207143D01*
X110902381Y-137445239D01*
X110950000Y-137540477D01*
X110997619Y-137588096D01*
X111092857Y-137635715D01*
X111188095Y-137635715D01*
X111330952Y-137588096D01*
X111902381Y-137016667D01*
X111902381Y-137635715D01*
X107802381Y-144333334D02*
X107326190Y-144000000D01*
X107802381Y-143761905D02*
X106802381Y-143761905D01*
X106802381Y-144142858D01*
X106850000Y-144238096D01*
X106897619Y-144285715D01*
X106992857Y-144333334D01*
X107135714Y-144333334D01*
X107230952Y-144285715D01*
X107278571Y-144238096D01*
X107326190Y-144142858D01*
X107326190Y-143761905D01*
X106802381Y-144666667D02*
X106802381Y-145285715D01*
X107183333Y-144952381D01*
X107183333Y-145095239D01*
X107230952Y-145190477D01*
X107278571Y-145238096D01*
X107373810Y-145285715D01*
X107611905Y-145285715D01*
X107707143Y-145238096D01*
X107754762Y-145190477D01*
X107802381Y-145095239D01*
X107802381Y-144809524D01*
X107754762Y-144714286D01*
X107707143Y-144666667D01*
X114166666Y-136652381D02*
X114500000Y-136176190D01*
X114738095Y-136652381D02*
X114738095Y-135652381D01*
X114357142Y-135652381D01*
X114261904Y-135700000D01*
X114214285Y-135747619D01*
X114166666Y-135842857D01*
X114166666Y-135985714D01*
X114214285Y-136080952D01*
X114261904Y-136128571D01*
X114357142Y-136176190D01*
X114738095Y-136176190D01*
X113595238Y-136080952D02*
X113690476Y-136033333D01*
X113738095Y-135985714D01*
X113785714Y-135890476D01*
X113785714Y-135842857D01*
X113738095Y-135747619D01*
X113690476Y-135700000D01*
X113595238Y-135652381D01*
X113404761Y-135652381D01*
X113309523Y-135700000D01*
X113261904Y-135747619D01*
X113214285Y-135842857D01*
X113214285Y-135890476D01*
X113261904Y-135985714D01*
X113309523Y-136033333D01*
X113404761Y-136080952D01*
X113595238Y-136080952D01*
X113690476Y-136128571D01*
X113738095Y-136176190D01*
X113785714Y-136271429D01*
X113785714Y-136461905D01*
X113738095Y-136557143D01*
X113690476Y-136604762D01*
X113595238Y-136652381D01*
X113404761Y-136652381D01*
X113309523Y-136604762D01*
X113261904Y-136557143D01*
X113214285Y-136461905D01*
X113214285Y-136271429D01*
X113261904Y-136176190D01*
X113309523Y-136128571D01*
X113404761Y-136080952D01*
X110992857Y-133377381D02*
X111326191Y-132901190D01*
X111564286Y-133377381D02*
X111564286Y-132377381D01*
X111183333Y-132377381D01*
X111088095Y-132425000D01*
X111040476Y-132472619D01*
X110992857Y-132567857D01*
X110992857Y-132710714D01*
X111040476Y-132805952D01*
X111088095Y-132853571D01*
X111183333Y-132901190D01*
X111564286Y-132901190D01*
X110040476Y-133377381D02*
X110611905Y-133377381D01*
X110326191Y-133377381D02*
X110326191Y-132377381D01*
X110421429Y-132520238D01*
X110516667Y-132615476D01*
X110611905Y-132663095D01*
X109088095Y-133377381D02*
X109659524Y-133377381D01*
X109373810Y-133377381D02*
X109373810Y-132377381D01*
X109469048Y-132520238D01*
X109564286Y-132615476D01*
X109659524Y-132663095D01*
X129463933Y-144745781D02*
X129463933Y-145460067D01*
X129511553Y-145602924D01*
X129606791Y-145698162D01*
X129749648Y-145745781D01*
X129844886Y-145745781D01*
X129082981Y-144745781D02*
X128463933Y-144745781D01*
X128797267Y-145126733D01*
X128654409Y-145126733D01*
X128559171Y-145174352D01*
X128511552Y-145221971D01*
X128463933Y-145317210D01*
X128463933Y-145555305D01*
X128511552Y-145650543D01*
X128559171Y-145698162D01*
X128654409Y-145745781D01*
X128940124Y-145745781D01*
X129035362Y-145698162D01*
X129082981Y-145650543D01*
X129052381Y-107133334D02*
X128576190Y-106800000D01*
X129052381Y-106561905D02*
X128052381Y-106561905D01*
X128052381Y-106942858D01*
X128100000Y-107038096D01*
X128147619Y-107085715D01*
X128242857Y-107133334D01*
X128385714Y-107133334D01*
X128480952Y-107085715D01*
X128528571Y-107038096D01*
X128576190Y-106942858D01*
X128576190Y-106561905D01*
X128052381Y-107466667D02*
X128052381Y-108133334D01*
X129052381Y-107704762D01*
X131066666Y-104957143D02*
X131114285Y-105004762D01*
X131257142Y-105052381D01*
X131352380Y-105052381D01*
X131495238Y-105004762D01*
X131590476Y-104909524D01*
X131638095Y-104814286D01*
X131685714Y-104623810D01*
X131685714Y-104480952D01*
X131638095Y-104290476D01*
X131590476Y-104195238D01*
X131495238Y-104100000D01*
X131352380Y-104052381D01*
X131257142Y-104052381D01*
X131114285Y-104100000D01*
X131066666Y-104147619D01*
X130161904Y-104052381D02*
X130638095Y-104052381D01*
X130685714Y-104528571D01*
X130638095Y-104480952D01*
X130542857Y-104433333D01*
X130304761Y-104433333D01*
X130209523Y-104480952D01*
X130161904Y-104528571D01*
X130114285Y-104623810D01*
X130114285Y-104861905D01*
X130161904Y-104957143D01*
X130209523Y-105004762D01*
X130304761Y-105052381D01*
X130542857Y-105052381D01*
X130638095Y-105004762D01*
X130685714Y-104957143D01*
X131857143Y-100833334D02*
X131904762Y-100785715D01*
X131952381Y-100642858D01*
X131952381Y-100547620D01*
X131904762Y-100404762D01*
X131809524Y-100309524D01*
X131714286Y-100261905D01*
X131523810Y-100214286D01*
X131380952Y-100214286D01*
X131190476Y-100261905D01*
X131095238Y-100309524D01*
X131000000Y-100404762D01*
X130952381Y-100547620D01*
X130952381Y-100642858D01*
X131000000Y-100785715D01*
X131047619Y-100833334D01*
X131380952Y-101404762D02*
X131333333Y-101309524D01*
X131285714Y-101261905D01*
X131190476Y-101214286D01*
X131142857Y-101214286D01*
X131047619Y-101261905D01*
X131000000Y-101309524D01*
X130952381Y-101404762D01*
X130952381Y-101595239D01*
X131000000Y-101690477D01*
X131047619Y-101738096D01*
X131142857Y-101785715D01*
X131190476Y-101785715D01*
X131285714Y-101738096D01*
X131333333Y-101690477D01*
X131380952Y-101595239D01*
X131380952Y-101404762D01*
X131428571Y-101309524D01*
X131476190Y-101261905D01*
X131571429Y-101214286D01*
X131761905Y-101214286D01*
X131857143Y-101261905D01*
X131904762Y-101309524D01*
X131952381Y-101404762D01*
X131952381Y-101595239D01*
X131904762Y-101690477D01*
X131857143Y-101738096D01*
X131761905Y-101785715D01*
X131571429Y-101785715D01*
X131476190Y-101738096D01*
X131428571Y-101690477D01*
X131380952Y-101595239D01*
D10*
X126959524Y-105057143D02*
X126959524Y-105785714D01*
X126921429Y-105871429D01*
X126883333Y-105914286D01*
X126807143Y-105957143D01*
X126654762Y-105957143D01*
X126578571Y-105914286D01*
X126540476Y-105871429D01*
X126502381Y-105785714D01*
X126502381Y-105057143D01*
X126159524Y-105142857D02*
X126121429Y-105100000D01*
X126045238Y-105057143D01*
X125854762Y-105057143D01*
X125778572Y-105100000D01*
X125740476Y-105142857D01*
X125702381Y-105228571D01*
X125702381Y-105314286D01*
X125740476Y-105442857D01*
X126197619Y-105957143D01*
X125702381Y-105957143D01*
D11*
X127876190Y-101923809D02*
X128352381Y-101923809D01*
X127352381Y-101590476D02*
X127876190Y-101923809D01*
X127352381Y-102257143D01*
X128352381Y-103114286D02*
X128352381Y-102542857D01*
X128352381Y-102828571D02*
X127352381Y-102828571D01*
X127495238Y-102733333D01*
X127590476Y-102638095D01*
X127638095Y-102542857D01*
X135266666Y-110352381D02*
X135600000Y-109876190D01*
X135838095Y-110352381D02*
X135838095Y-109352381D01*
X135457142Y-109352381D01*
X135361904Y-109400000D01*
X135314285Y-109447619D01*
X135266666Y-109542857D01*
X135266666Y-109685714D01*
X135314285Y-109780952D01*
X135361904Y-109828571D01*
X135457142Y-109876190D01*
X135838095Y-109876190D01*
X134314285Y-110352381D02*
X134885714Y-110352381D01*
X134600000Y-110352381D02*
X134600000Y-109352381D01*
X134695238Y-109495238D01*
X134790476Y-109590476D01*
X134885714Y-109638095D01*
X134002381Y-107983334D02*
X133526190Y-107650000D01*
X134002381Y-107411905D02*
X133002381Y-107411905D01*
X133002381Y-107792858D01*
X133050000Y-107888096D01*
X133097619Y-107935715D01*
X133192857Y-107983334D01*
X133335714Y-107983334D01*
X133430952Y-107935715D01*
X133478571Y-107888096D01*
X133526190Y-107792858D01*
X133526190Y-107411905D01*
X133097619Y-108364286D02*
X133050000Y-108411905D01*
X133002381Y-108507143D01*
X133002381Y-108745239D01*
X133050000Y-108840477D01*
X133097619Y-108888096D01*
X133192857Y-108935715D01*
X133288095Y-108935715D01*
X133430952Y-108888096D01*
X134002381Y-108316667D01*
X134002381Y-108935715D01*
X138102381Y-100333334D02*
X137626190Y-100000000D01*
X138102381Y-99761905D02*
X137102381Y-99761905D01*
X137102381Y-100142858D01*
X137150000Y-100238096D01*
X137197619Y-100285715D01*
X137292857Y-100333334D01*
X137435714Y-100333334D01*
X137530952Y-100285715D01*
X137578571Y-100238096D01*
X137626190Y-100142858D01*
X137626190Y-99761905D01*
X137102381Y-100666667D02*
X137102381Y-101285715D01*
X137483333Y-100952381D01*
X137483333Y-101095239D01*
X137530952Y-101190477D01*
X137578571Y-101238096D01*
X137673810Y-101285715D01*
X137911905Y-101285715D01*
X138007143Y-101238096D01*
X138054762Y-101190477D01*
X138102381Y-101095239D01*
X138102381Y-100809524D01*
X138054762Y-100714286D01*
X138007143Y-100666667D01*
X131166666Y-109252381D02*
X131500000Y-108776190D01*
X131738095Y-109252381D02*
X131738095Y-108252381D01*
X131357142Y-108252381D01*
X131261904Y-108300000D01*
X131214285Y-108347619D01*
X131166666Y-108442857D01*
X131166666Y-108585714D01*
X131214285Y-108680952D01*
X131261904Y-108728571D01*
X131357142Y-108776190D01*
X131738095Y-108776190D01*
X130595238Y-108680952D02*
X130690476Y-108633333D01*
X130738095Y-108585714D01*
X130785714Y-108490476D01*
X130785714Y-108442857D01*
X130738095Y-108347619D01*
X130690476Y-108300000D01*
X130595238Y-108252381D01*
X130404761Y-108252381D01*
X130309523Y-108300000D01*
X130261904Y-108347619D01*
X130214285Y-108442857D01*
X130214285Y-108490476D01*
X130261904Y-108585714D01*
X130309523Y-108633333D01*
X130404761Y-108680952D01*
X130595238Y-108680952D01*
X130690476Y-108728571D01*
X130738095Y-108776190D01*
X130785714Y-108871429D01*
X130785714Y-109061905D01*
X130738095Y-109157143D01*
X130690476Y-109204762D01*
X130595238Y-109252381D01*
X130404761Y-109252381D01*
X130309523Y-109204762D01*
X130261904Y-109157143D01*
X130214285Y-109061905D01*
X130214285Y-108871429D01*
X130261904Y-108776190D01*
X130309523Y-108728571D01*
X130404761Y-108680952D01*
X135292857Y-112527381D02*
X135626191Y-112051190D01*
X135864286Y-112527381D02*
X135864286Y-111527381D01*
X135483333Y-111527381D01*
X135388095Y-111575000D01*
X135340476Y-111622619D01*
X135292857Y-111717857D01*
X135292857Y-111860714D01*
X135340476Y-111955952D01*
X135388095Y-112003571D01*
X135483333Y-112051190D01*
X135864286Y-112051190D01*
X134340476Y-112527381D02*
X134911905Y-112527381D01*
X134626191Y-112527381D02*
X134626191Y-111527381D01*
X134721429Y-111670238D01*
X134816667Y-111765476D01*
X134911905Y-111813095D01*
X133388095Y-112527381D02*
X133959524Y-112527381D01*
X133673810Y-112527381D02*
X133673810Y-111527381D01*
X133769048Y-111670238D01*
X133864286Y-111765476D01*
X133959524Y-111813095D01*
X116202733Y-99158981D02*
X116202733Y-99873267D01*
X116250353Y-100016124D01*
X116345591Y-100111362D01*
X116488448Y-100158981D01*
X116583686Y-100158981D01*
X115821781Y-99158981D02*
X115202733Y-99158981D01*
X115536067Y-99539933D01*
X115393209Y-99539933D01*
X115297971Y-99587552D01*
X115250352Y-99635171D01*
X115202733Y-99730410D01*
X115202733Y-99968505D01*
X115250352Y-100063743D01*
X115297971Y-100111362D01*
X115393209Y-100158981D01*
X115678924Y-100158981D01*
X115774162Y-100111362D01*
X115821781Y-100063743D01*
M02*
