%TF.GenerationSoftware,KiCad,Pcbnew,4.0.6*%
%TF.CreationDate,2017-04-20T11:48:03-04:00*%
%TF.ProjectId,Panel,50616E656C2E6B696361645F70636200,rev?*%
%TF.FileFunction,Legend,Top*%
%FSLAX46Y46*%
G04 Gerber Fmt 4.6, Leading zero omitted, Abs format (unit mm)*
G04 Created by KiCad (PCBNEW 4.0.6) date Thu Apr 20 11:48:03 2017*
%MOMM*%
%LPD*%
G01*
G04 APERTURE LIST*
%ADD10C,0.100000*%
%ADD11C,0.150000*%
%ADD12C,0.160000*%
%ADD13C,0.200000*%
%ADD14C,0.120000*%
%ADD15C,0.203200*%
%ADD16C,0.025400*%
%ADD17C,0.050800*%
G04 APERTURE END LIST*
D10*
D11*
X142488857Y-132637428D02*
X142488857Y-132123142D01*
X143688857Y-132380285D02*
X142488857Y-132380285D01*
X143688857Y-131823142D02*
X142488857Y-131823142D01*
X142488857Y-131608857D01*
X142546000Y-131480285D01*
X142660286Y-131394571D01*
X142774571Y-131351714D01*
X143003143Y-131308857D01*
X143174571Y-131308857D01*
X143403143Y-131351714D01*
X143517429Y-131394571D01*
X143631714Y-131480285D01*
X143688857Y-131608857D01*
X143688857Y-131823142D01*
X143688857Y-130923142D02*
X142488857Y-130923142D01*
X142488857Y-130354571D02*
X142488857Y-129840285D01*
X143688857Y-130097428D02*
X142488857Y-130097428D01*
X143688857Y-129540285D02*
X142488857Y-129540285D01*
X142488857Y-129326000D01*
X142546000Y-129197428D01*
X142660286Y-129111714D01*
X142774571Y-129068857D01*
X143003143Y-129026000D01*
X143174571Y-129026000D01*
X143403143Y-129068857D01*
X143517429Y-129111714D01*
X143631714Y-129197428D01*
X143688857Y-129326000D01*
X143688857Y-129540285D01*
X142488857Y-128468857D02*
X142488857Y-128297428D01*
X142546000Y-128211714D01*
X142660286Y-128126000D01*
X142888857Y-128083142D01*
X143288857Y-128083142D01*
X143517429Y-128126000D01*
X143631714Y-128211714D01*
X143688857Y-128297428D01*
X143688857Y-128468857D01*
X143631714Y-128554571D01*
X143517429Y-128640285D01*
X143288857Y-128683142D01*
X142888857Y-128683142D01*
X142660286Y-128640285D01*
X142546000Y-128554571D01*
X142488857Y-128468857D01*
X143688857Y-127128857D02*
X143117429Y-127428857D01*
X143688857Y-127643142D02*
X142488857Y-127643142D01*
X142488857Y-127300285D01*
X142546000Y-127214571D01*
X142603143Y-127171714D01*
X142717429Y-127128857D01*
X142888857Y-127128857D01*
X143003143Y-127171714D01*
X143060286Y-127214571D01*
X143117429Y-127300285D01*
X143117429Y-127643142D01*
X143631714Y-126785999D02*
X143688857Y-126657428D01*
X143688857Y-126443142D01*
X143631714Y-126357428D01*
X143574571Y-126314571D01*
X143460286Y-126271714D01*
X143346000Y-126271714D01*
X143231714Y-126314571D01*
X143174571Y-126357428D01*
X143117429Y-126443142D01*
X143060286Y-126614571D01*
X143003143Y-126700285D01*
X142946000Y-126743142D01*
X142831714Y-126785999D01*
X142717429Y-126785999D01*
X142603143Y-126743142D01*
X142546000Y-126700285D01*
X142488857Y-126614571D01*
X142488857Y-126400285D01*
X142546000Y-126271714D01*
X142488857Y-126014571D02*
X142488857Y-125500285D01*
X143688857Y-125757428D02*
X142488857Y-125757428D01*
X142282000Y-127857428D02*
X142282000Y-125414571D01*
X142488857Y-125296000D02*
X142488857Y-124781714D01*
X143688857Y-125038857D02*
X142488857Y-125038857D01*
X143688857Y-124481714D02*
X142488857Y-124481714D01*
X143346000Y-124181714D01*
X142488857Y-123881714D01*
X143688857Y-123881714D01*
X143631714Y-123496000D02*
X143688857Y-123367429D01*
X143688857Y-123153143D01*
X143631714Y-123067429D01*
X143574571Y-123024572D01*
X143460286Y-122981715D01*
X143346000Y-122981715D01*
X143231714Y-123024572D01*
X143174571Y-123067429D01*
X143117429Y-123153143D01*
X143060286Y-123324572D01*
X143003143Y-123410286D01*
X142946000Y-123453143D01*
X142831714Y-123496000D01*
X142717429Y-123496000D01*
X142603143Y-123453143D01*
X142546000Y-123410286D01*
X142488857Y-123324572D01*
X142488857Y-123110286D01*
X142546000Y-122981715D01*
X142492857Y-117471429D02*
X143692857Y-117171429D01*
X142492857Y-116871429D01*
X143635714Y-116185714D02*
X143692857Y-116271428D01*
X143692857Y-116442857D01*
X143635714Y-116528571D01*
X143578571Y-116571428D01*
X143464286Y-116614285D01*
X143121429Y-116614285D01*
X143007143Y-116571428D01*
X142950000Y-116528571D01*
X142892857Y-116442857D01*
X142892857Y-116271428D01*
X142950000Y-116185714D01*
X143635714Y-115414285D02*
X143692857Y-115499999D01*
X143692857Y-115671428D01*
X143635714Y-115757142D01*
X143578571Y-115799999D01*
X143464286Y-115842856D01*
X143121429Y-115842856D01*
X143007143Y-115799999D01*
X142950000Y-115757142D01*
X142892857Y-115671428D01*
X142892857Y-115499999D01*
X142950000Y-115414285D01*
X142546000Y-122241714D02*
X142488857Y-122327428D01*
X142488857Y-122455999D01*
X142546000Y-122584571D01*
X142660286Y-122670285D01*
X142774571Y-122713142D01*
X143003143Y-122755999D01*
X143174571Y-122755999D01*
X143403143Y-122713142D01*
X143517429Y-122670285D01*
X143631714Y-122584571D01*
X143688857Y-122455999D01*
X143688857Y-122370285D01*
X143631714Y-122241714D01*
X143574571Y-122198857D01*
X143174571Y-122198857D01*
X143174571Y-122370285D01*
X143688857Y-121813142D02*
X142488857Y-121813142D01*
X143688857Y-121298857D01*
X142488857Y-121298857D01*
X143688857Y-120870285D02*
X142488857Y-120870285D01*
X142488857Y-120656000D01*
X142546000Y-120527428D01*
X142660286Y-120441714D01*
X142774571Y-120398857D01*
X143003143Y-120356000D01*
X143174571Y-120356000D01*
X143403143Y-120398857D01*
X143517429Y-120441714D01*
X143631714Y-120527428D01*
X143688857Y-120656000D01*
X143688857Y-120870285D01*
X142492857Y-120173143D02*
X142492857Y-119658857D01*
X143692857Y-119916000D02*
X142492857Y-119916000D01*
X143578571Y-118844572D02*
X143635714Y-118887429D01*
X143692857Y-119016000D01*
X143692857Y-119101714D01*
X143635714Y-119230286D01*
X143521429Y-119316000D01*
X143407143Y-119358857D01*
X143178571Y-119401714D01*
X143007143Y-119401714D01*
X142778571Y-119358857D01*
X142664286Y-119316000D01*
X142550000Y-119230286D01*
X142492857Y-119101714D01*
X142492857Y-119016000D01*
X142550000Y-118887429D01*
X142607143Y-118844572D01*
X143692857Y-118458857D02*
X142492857Y-118458857D01*
X143692857Y-117944572D02*
X143007143Y-118330286D01*
X142492857Y-117944572D02*
X143178571Y-118458857D01*
X102511143Y-112362572D02*
X102511143Y-112876858D01*
X101311143Y-112619715D02*
X102511143Y-112619715D01*
X101311143Y-113176858D02*
X102511143Y-113176858D01*
X102511143Y-113391143D01*
X102454000Y-113519715D01*
X102339714Y-113605429D01*
X102225429Y-113648286D01*
X101996857Y-113691143D01*
X101825429Y-113691143D01*
X101596857Y-113648286D01*
X101482571Y-113605429D01*
X101368286Y-113519715D01*
X101311143Y-113391143D01*
X101311143Y-113176858D01*
X101311143Y-114076858D02*
X102511143Y-114076858D01*
X102511143Y-114645429D02*
X102511143Y-115159715D01*
X101311143Y-114902572D02*
X102511143Y-114902572D01*
X101311143Y-115459715D02*
X102511143Y-115459715D01*
X102511143Y-115674000D01*
X102454000Y-115802572D01*
X102339714Y-115888286D01*
X102225429Y-115931143D01*
X101996857Y-115974000D01*
X101825429Y-115974000D01*
X101596857Y-115931143D01*
X101482571Y-115888286D01*
X101368286Y-115802572D01*
X101311143Y-115674000D01*
X101311143Y-115459715D01*
X102511143Y-116531143D02*
X102511143Y-116702572D01*
X102454000Y-116788286D01*
X102339714Y-116874000D01*
X102111143Y-116916858D01*
X101711143Y-116916858D01*
X101482571Y-116874000D01*
X101368286Y-116788286D01*
X101311143Y-116702572D01*
X101311143Y-116531143D01*
X101368286Y-116445429D01*
X101482571Y-116359715D01*
X101711143Y-116316858D01*
X102111143Y-116316858D01*
X102339714Y-116359715D01*
X102454000Y-116445429D01*
X102511143Y-116531143D01*
X101311143Y-117871143D02*
X101882571Y-117571143D01*
X101311143Y-117356858D02*
X102511143Y-117356858D01*
X102511143Y-117699715D01*
X102454000Y-117785429D01*
X102396857Y-117828286D01*
X102282571Y-117871143D01*
X102111143Y-117871143D01*
X101996857Y-117828286D01*
X101939714Y-117785429D01*
X101882571Y-117699715D01*
X101882571Y-117356858D01*
X101368286Y-118214001D02*
X101311143Y-118342572D01*
X101311143Y-118556858D01*
X101368286Y-118642572D01*
X101425429Y-118685429D01*
X101539714Y-118728286D01*
X101654000Y-118728286D01*
X101768286Y-118685429D01*
X101825429Y-118642572D01*
X101882571Y-118556858D01*
X101939714Y-118385429D01*
X101996857Y-118299715D01*
X102054000Y-118256858D01*
X102168286Y-118214001D01*
X102282571Y-118214001D01*
X102396857Y-118256858D01*
X102454000Y-118299715D01*
X102511143Y-118385429D01*
X102511143Y-118599715D01*
X102454000Y-118728286D01*
X102511143Y-118985429D02*
X102511143Y-119499715D01*
X101311143Y-119242572D02*
X102511143Y-119242572D01*
X102718000Y-117142572D02*
X102718000Y-119585429D01*
X102511143Y-119704000D02*
X102511143Y-120218286D01*
X101311143Y-119961143D02*
X102511143Y-119961143D01*
X101311143Y-120518286D02*
X102511143Y-120518286D01*
X101654000Y-120818286D01*
X102511143Y-121118286D01*
X101311143Y-121118286D01*
X101368286Y-121504000D02*
X101311143Y-121632571D01*
X101311143Y-121846857D01*
X101368286Y-121932571D01*
X101425429Y-121975428D01*
X101539714Y-122018285D01*
X101654000Y-122018285D01*
X101768286Y-121975428D01*
X101825429Y-121932571D01*
X101882571Y-121846857D01*
X101939714Y-121675428D01*
X101996857Y-121589714D01*
X102054000Y-121546857D01*
X102168286Y-121504000D01*
X102282571Y-121504000D01*
X102396857Y-121546857D01*
X102454000Y-121589714D01*
X102511143Y-121675428D01*
X102511143Y-121889714D01*
X102454000Y-122018285D01*
X102454000Y-122758286D02*
X102511143Y-122672572D01*
X102511143Y-122544001D01*
X102454000Y-122415429D01*
X102339714Y-122329715D01*
X102225429Y-122286858D01*
X101996857Y-122244001D01*
X101825429Y-122244001D01*
X101596857Y-122286858D01*
X101482571Y-122329715D01*
X101368286Y-122415429D01*
X101311143Y-122544001D01*
X101311143Y-122629715D01*
X101368286Y-122758286D01*
X101425429Y-122801143D01*
X101825429Y-122801143D01*
X101825429Y-122629715D01*
X101311143Y-123186858D02*
X102511143Y-123186858D01*
X101311143Y-123701143D01*
X102511143Y-123701143D01*
X101311143Y-124129715D02*
X102511143Y-124129715D01*
X102511143Y-124344000D01*
X102454000Y-124472572D01*
X102339714Y-124558286D01*
X102225429Y-124601143D01*
X101996857Y-124644000D01*
X101825429Y-124644000D01*
X101596857Y-124601143D01*
X101482571Y-124558286D01*
X101368286Y-124472572D01*
X101311143Y-124344000D01*
X101311143Y-124129715D01*
X102507143Y-124826857D02*
X102507143Y-125341143D01*
X101307143Y-125084000D02*
X102507143Y-125084000D01*
X101421429Y-126155428D02*
X101364286Y-126112571D01*
X101307143Y-125984000D01*
X101307143Y-125898286D01*
X101364286Y-125769714D01*
X101478571Y-125684000D01*
X101592857Y-125641143D01*
X101821429Y-125598286D01*
X101992857Y-125598286D01*
X102221429Y-125641143D01*
X102335714Y-125684000D01*
X102450000Y-125769714D01*
X102507143Y-125898286D01*
X102507143Y-125984000D01*
X102450000Y-126112571D01*
X102392857Y-126155428D01*
X101307143Y-126541143D02*
X102507143Y-126541143D01*
X101307143Y-127055428D02*
X101992857Y-126669714D01*
X102507143Y-127055428D02*
X101821429Y-126541143D01*
X102507143Y-127528571D02*
X101307143Y-127828571D01*
X102507143Y-128128571D01*
X101364286Y-128814286D02*
X101307143Y-128728572D01*
X101307143Y-128557143D01*
X101364286Y-128471429D01*
X101421429Y-128428572D01*
X101535714Y-128385715D01*
X101878571Y-128385715D01*
X101992857Y-128428572D01*
X102050000Y-128471429D01*
X102107143Y-128557143D01*
X102107143Y-128728572D01*
X102050000Y-128814286D01*
X101364286Y-129585715D02*
X101307143Y-129500001D01*
X101307143Y-129328572D01*
X101364286Y-129242858D01*
X101421429Y-129200001D01*
X101535714Y-129157144D01*
X101878571Y-129157144D01*
X101992857Y-129200001D01*
X102050000Y-129242858D01*
X102107143Y-129328572D01*
X102107143Y-129500001D01*
X102050000Y-129585715D01*
D12*
X129225000Y-143836905D02*
X129525000Y-144636905D01*
X129825000Y-143836905D01*
X129735714Y-142575000D02*
X129650000Y-142536905D01*
X129521429Y-142536905D01*
X129392857Y-142575000D01*
X129307143Y-142651190D01*
X129264286Y-142727381D01*
X129221429Y-142879762D01*
X129221429Y-142994048D01*
X129264286Y-143146429D01*
X129307143Y-143222619D01*
X129392857Y-143298810D01*
X129521429Y-143336905D01*
X129607143Y-143336905D01*
X129735714Y-143298810D01*
X129778571Y-143260714D01*
X129778571Y-142994048D01*
X129607143Y-142994048D01*
X129735714Y-134950000D02*
X129650000Y-134911905D01*
X129521429Y-134911905D01*
X129392857Y-134950000D01*
X129307143Y-135026190D01*
X129264286Y-135102381D01*
X129221429Y-135254762D01*
X129221429Y-135369048D01*
X129264286Y-135521429D01*
X129307143Y-135597619D01*
X129392857Y-135673810D01*
X129521429Y-135711905D01*
X129607143Y-135711905D01*
X129735714Y-135673810D01*
X129778571Y-135635714D01*
X129778571Y-135369048D01*
X129607143Y-135369048D01*
X129264286Y-134661905D02*
X129264286Y-133861905D01*
X129778571Y-134661905D02*
X129392857Y-134204762D01*
X129778571Y-133861905D02*
X129264286Y-134319048D01*
X129760714Y-132850000D02*
X129675000Y-132811905D01*
X129546429Y-132811905D01*
X129417857Y-132850000D01*
X129332143Y-132926190D01*
X129289286Y-133002381D01*
X129246429Y-133154762D01*
X129246429Y-133269048D01*
X129289286Y-133421429D01*
X129332143Y-133497619D01*
X129417857Y-133573810D01*
X129546429Y-133611905D01*
X129632143Y-133611905D01*
X129760714Y-133573810D01*
X129803571Y-133535714D01*
X129803571Y-133269048D01*
X129632143Y-133269048D01*
X121507143Y-136311905D02*
X121207143Y-135930952D01*
X120992858Y-136311905D02*
X120992858Y-135511905D01*
X121335715Y-135511905D01*
X121421429Y-135550000D01*
X121464286Y-135588095D01*
X121507143Y-135664286D01*
X121507143Y-135778571D01*
X121464286Y-135854762D01*
X121421429Y-135892857D01*
X121335715Y-135930952D01*
X120992858Y-135930952D01*
X121850001Y-136273810D02*
X121978572Y-136311905D01*
X122192858Y-136311905D01*
X122278572Y-136273810D01*
X122321429Y-136235714D01*
X122364286Y-136159524D01*
X122364286Y-136083333D01*
X122321429Y-136007143D01*
X122278572Y-135969048D01*
X122192858Y-135930952D01*
X122021429Y-135892857D01*
X121935715Y-135854762D01*
X121892858Y-135816667D01*
X121850001Y-135740476D01*
X121850001Y-135664286D01*
X121892858Y-135588095D01*
X121935715Y-135550000D01*
X122021429Y-135511905D01*
X122235715Y-135511905D01*
X122364286Y-135550000D01*
X122621429Y-135511905D02*
X123135715Y-135511905D01*
X122878572Y-136311905D02*
X122878572Y-135511905D01*
X121078572Y-136686905D02*
X121592858Y-136686905D01*
X121335715Y-137486905D02*
X121335715Y-136686905D01*
X121892858Y-137486905D02*
X121892858Y-136686905D01*
X122107143Y-136686905D01*
X122235715Y-136725000D01*
X122321429Y-136801190D01*
X122364286Y-136877381D01*
X122407143Y-137029762D01*
X122407143Y-137144048D01*
X122364286Y-137296429D01*
X122321429Y-137372619D01*
X122235715Y-137448810D01*
X122107143Y-137486905D01*
X121892858Y-137486905D01*
X122792858Y-137486905D02*
X122792858Y-136686905D01*
X120821429Y-140711905D02*
X121335715Y-140711905D01*
X121078572Y-141511905D02*
X121078572Y-140711905D01*
X121635715Y-141511905D02*
X121635715Y-140711905D01*
X121850000Y-140711905D01*
X121978572Y-140750000D01*
X122064286Y-140826190D01*
X122107143Y-140902381D01*
X122150000Y-141054762D01*
X122150000Y-141169048D01*
X122107143Y-141321429D01*
X122064286Y-141397619D01*
X121978572Y-141473810D01*
X121850000Y-141511905D01*
X121635715Y-141511905D01*
X122707143Y-140711905D02*
X122878572Y-140711905D01*
X122964286Y-140750000D01*
X123050000Y-140826190D01*
X123092858Y-140978571D01*
X123092858Y-141245238D01*
X123050000Y-141397619D01*
X122964286Y-141473810D01*
X122878572Y-141511905D01*
X122707143Y-141511905D01*
X122621429Y-141473810D01*
X122535715Y-141397619D01*
X122492858Y-141245238D01*
X122492858Y-140978571D01*
X122535715Y-140826190D01*
X122621429Y-140750000D01*
X122707143Y-140711905D01*
X120767857Y-141886905D02*
X121282143Y-141886905D01*
X121025000Y-142686905D02*
X121025000Y-141886905D01*
X122096428Y-142610714D02*
X122053571Y-142648810D01*
X121925000Y-142686905D01*
X121839286Y-142686905D01*
X121710714Y-142648810D01*
X121625000Y-142572619D01*
X121582143Y-142496429D01*
X121539286Y-142344048D01*
X121539286Y-142229762D01*
X121582143Y-142077381D01*
X121625000Y-142001190D01*
X121710714Y-141925000D01*
X121839286Y-141886905D01*
X121925000Y-141886905D01*
X122053571Y-141925000D01*
X122096428Y-141963095D01*
X122482143Y-142686905D02*
X122482143Y-141886905D01*
X122996428Y-142686905D02*
X122610714Y-142229762D01*
X122996428Y-141886905D02*
X122482143Y-142344048D01*
X121300000Y-142961905D02*
X121814286Y-142961905D01*
X121557143Y-143761905D02*
X121557143Y-142961905D01*
X122114286Y-143761905D02*
X122114286Y-142961905D01*
X122414286Y-143533333D01*
X122714286Y-142961905D01*
X122714286Y-143761905D01*
X123100000Y-143723810D02*
X123228571Y-143761905D01*
X123442857Y-143761905D01*
X123528571Y-143723810D01*
X123571428Y-143685714D01*
X123614285Y-143609524D01*
X123614285Y-143533333D01*
X123571428Y-143457143D01*
X123528571Y-143419048D01*
X123442857Y-143380952D01*
X123271428Y-143342857D01*
X123185714Y-143304762D01*
X123142857Y-143266667D01*
X123100000Y-143190476D01*
X123100000Y-143114286D01*
X123142857Y-143038095D01*
X123185714Y-143000000D01*
X123271428Y-142961905D01*
X123485714Y-142961905D01*
X123614285Y-143000000D01*
D13*
X120803571Y-134727381D02*
X120503571Y-134251190D01*
X120289286Y-134727381D02*
X120289286Y-133727381D01*
X120632143Y-133727381D01*
X120717857Y-133775000D01*
X120760714Y-133822619D01*
X120803571Y-133917857D01*
X120803571Y-134060714D01*
X120760714Y-134155952D01*
X120717857Y-134203571D01*
X120632143Y-134251190D01*
X120289286Y-134251190D01*
X120550000Y-133327381D02*
X120550000Y-132327381D01*
X104650000Y-132678571D02*
X105050000Y-132678571D01*
X105221429Y-133202381D02*
X104650000Y-133202381D01*
X104650000Y-132202381D01*
X105221429Y-132202381D01*
X105735714Y-133202381D02*
X105735714Y-132535714D01*
X105735714Y-132726190D02*
X105792857Y-132630952D01*
X105850000Y-132583333D01*
X105964286Y-132535714D01*
X106078571Y-132535714D01*
X106478571Y-133202381D02*
X106478571Y-132535714D01*
X106478571Y-132726190D02*
X106535714Y-132630952D01*
X106592857Y-132583333D01*
X106707143Y-132535714D01*
X106821428Y-132535714D01*
X104685714Y-145702381D02*
X104685714Y-144702381D01*
X105142857Y-144702381D01*
X105257143Y-144750000D01*
X105314286Y-144797619D01*
X105371429Y-144892857D01*
X105371429Y-145035714D01*
X105314286Y-145130952D01*
X105257143Y-145178571D01*
X105142857Y-145226190D01*
X104685714Y-145226190D01*
X105771429Y-145035714D02*
X106000000Y-145702381D01*
X106228571Y-145226190D01*
X106457143Y-145702381D01*
X106685714Y-145035714D01*
X107142857Y-145702381D02*
X107142857Y-145035714D01*
X107142857Y-145226190D02*
X107200000Y-145130952D01*
X107257143Y-145083333D01*
X107371429Y-145035714D01*
X107485714Y-145035714D01*
D12*
X115775000Y-101163095D02*
X115475000Y-100363095D01*
X115175000Y-101163095D01*
X115264286Y-102425000D02*
X115350000Y-102463095D01*
X115478571Y-102463095D01*
X115607143Y-102425000D01*
X115692857Y-102348810D01*
X115735714Y-102272619D01*
X115778571Y-102120238D01*
X115778571Y-102005952D01*
X115735714Y-101853571D01*
X115692857Y-101777381D01*
X115607143Y-101701190D01*
X115478571Y-101663095D01*
X115392857Y-101663095D01*
X115264286Y-101701190D01*
X115221429Y-101739286D01*
X115221429Y-102005952D01*
X115392857Y-102005952D01*
X115264286Y-110050000D02*
X115350000Y-110088095D01*
X115478571Y-110088095D01*
X115607143Y-110050000D01*
X115692857Y-109973810D01*
X115735714Y-109897619D01*
X115778571Y-109745238D01*
X115778571Y-109630952D01*
X115735714Y-109478571D01*
X115692857Y-109402381D01*
X115607143Y-109326190D01*
X115478571Y-109288095D01*
X115392857Y-109288095D01*
X115264286Y-109326190D01*
X115221429Y-109364286D01*
X115221429Y-109630952D01*
X115392857Y-109630952D01*
X115735714Y-110338095D02*
X115735714Y-111138095D01*
X115221429Y-110338095D02*
X115607143Y-110795238D01*
X115221429Y-111138095D02*
X115735714Y-110680952D01*
X115239286Y-112150000D02*
X115325000Y-112188095D01*
X115453571Y-112188095D01*
X115582143Y-112150000D01*
X115667857Y-112073810D01*
X115710714Y-111997619D01*
X115753571Y-111845238D01*
X115753571Y-111730952D01*
X115710714Y-111578571D01*
X115667857Y-111502381D01*
X115582143Y-111426190D01*
X115453571Y-111388095D01*
X115367857Y-111388095D01*
X115239286Y-111426190D01*
X115196429Y-111464286D01*
X115196429Y-111730952D01*
X115367857Y-111730952D01*
X123492857Y-108688095D02*
X123792857Y-109069048D01*
X124007142Y-108688095D02*
X124007142Y-109488095D01*
X123664285Y-109488095D01*
X123578571Y-109450000D01*
X123535714Y-109411905D01*
X123492857Y-109335714D01*
X123492857Y-109221429D01*
X123535714Y-109145238D01*
X123578571Y-109107143D01*
X123664285Y-109069048D01*
X124007142Y-109069048D01*
X123149999Y-108726190D02*
X123021428Y-108688095D01*
X122807142Y-108688095D01*
X122721428Y-108726190D01*
X122678571Y-108764286D01*
X122635714Y-108840476D01*
X122635714Y-108916667D01*
X122678571Y-108992857D01*
X122721428Y-109030952D01*
X122807142Y-109069048D01*
X122978571Y-109107143D01*
X123064285Y-109145238D01*
X123107142Y-109183333D01*
X123149999Y-109259524D01*
X123149999Y-109335714D01*
X123107142Y-109411905D01*
X123064285Y-109450000D01*
X122978571Y-109488095D01*
X122764285Y-109488095D01*
X122635714Y-109450000D01*
X122378571Y-109488095D02*
X121864285Y-109488095D01*
X122121428Y-108688095D02*
X122121428Y-109488095D01*
X123921428Y-108313095D02*
X123407142Y-108313095D01*
X123664285Y-107513095D02*
X123664285Y-108313095D01*
X123107142Y-107513095D02*
X123107142Y-108313095D01*
X122892857Y-108313095D01*
X122764285Y-108275000D01*
X122678571Y-108198810D01*
X122635714Y-108122619D01*
X122592857Y-107970238D01*
X122592857Y-107855952D01*
X122635714Y-107703571D01*
X122678571Y-107627381D01*
X122764285Y-107551190D01*
X122892857Y-107513095D01*
X123107142Y-107513095D01*
X122207142Y-107513095D02*
X122207142Y-108313095D01*
X124178571Y-104288095D02*
X123664285Y-104288095D01*
X123921428Y-103488095D02*
X123921428Y-104288095D01*
X123364285Y-103488095D02*
X123364285Y-104288095D01*
X123150000Y-104288095D01*
X123021428Y-104250000D01*
X122935714Y-104173810D01*
X122892857Y-104097619D01*
X122850000Y-103945238D01*
X122850000Y-103830952D01*
X122892857Y-103678571D01*
X122935714Y-103602381D01*
X123021428Y-103526190D01*
X123150000Y-103488095D01*
X123364285Y-103488095D01*
X122292857Y-104288095D02*
X122121428Y-104288095D01*
X122035714Y-104250000D01*
X121950000Y-104173810D01*
X121907142Y-104021429D01*
X121907142Y-103754762D01*
X121950000Y-103602381D01*
X122035714Y-103526190D01*
X122121428Y-103488095D01*
X122292857Y-103488095D01*
X122378571Y-103526190D01*
X122464285Y-103602381D01*
X122507142Y-103754762D01*
X122507142Y-104021429D01*
X122464285Y-104173810D01*
X122378571Y-104250000D01*
X122292857Y-104288095D01*
X124232143Y-103113095D02*
X123717857Y-103113095D01*
X123975000Y-102313095D02*
X123975000Y-103113095D01*
X122903572Y-102389286D02*
X122946429Y-102351190D01*
X123075000Y-102313095D01*
X123160714Y-102313095D01*
X123289286Y-102351190D01*
X123375000Y-102427381D01*
X123417857Y-102503571D01*
X123460714Y-102655952D01*
X123460714Y-102770238D01*
X123417857Y-102922619D01*
X123375000Y-102998810D01*
X123289286Y-103075000D01*
X123160714Y-103113095D01*
X123075000Y-103113095D01*
X122946429Y-103075000D01*
X122903572Y-103036905D01*
X122517857Y-102313095D02*
X122517857Y-103113095D01*
X122003572Y-102313095D02*
X122389286Y-102770238D01*
X122003572Y-103113095D02*
X122517857Y-102655952D01*
X123700000Y-102038095D02*
X123185714Y-102038095D01*
X123442857Y-101238095D02*
X123442857Y-102038095D01*
X122885714Y-101238095D02*
X122885714Y-102038095D01*
X122585714Y-101466667D01*
X122285714Y-102038095D01*
X122285714Y-101238095D01*
X121900000Y-101276190D02*
X121771429Y-101238095D01*
X121557143Y-101238095D01*
X121471429Y-101276190D01*
X121428572Y-101314286D01*
X121385715Y-101390476D01*
X121385715Y-101466667D01*
X121428572Y-101542857D01*
X121471429Y-101580952D01*
X121557143Y-101619048D01*
X121728572Y-101657143D01*
X121814286Y-101695238D01*
X121857143Y-101733333D01*
X121900000Y-101809524D01*
X121900000Y-101885714D01*
X121857143Y-101961905D01*
X121814286Y-102000000D01*
X121728572Y-102038095D01*
X121514286Y-102038095D01*
X121385715Y-102000000D01*
D13*
X124196429Y-110272619D02*
X124496429Y-110748810D01*
X124710714Y-110272619D02*
X124710714Y-111272619D01*
X124367857Y-111272619D01*
X124282143Y-111225000D01*
X124239286Y-111177381D01*
X124196429Y-111082143D01*
X124196429Y-110939286D01*
X124239286Y-110844048D01*
X124282143Y-110796429D01*
X124367857Y-110748810D01*
X124710714Y-110748810D01*
X124450000Y-111672619D02*
X124450000Y-112672619D01*
X140350000Y-112321429D02*
X139950000Y-112321429D01*
X139778571Y-111797619D02*
X140350000Y-111797619D01*
X140350000Y-112797619D01*
X139778571Y-112797619D01*
X139264286Y-111797619D02*
X139264286Y-112464286D01*
X139264286Y-112273810D02*
X139207143Y-112369048D01*
X139150000Y-112416667D01*
X139035714Y-112464286D01*
X138921429Y-112464286D01*
X138521429Y-111797619D02*
X138521429Y-112464286D01*
X138521429Y-112273810D02*
X138464286Y-112369048D01*
X138407143Y-112416667D01*
X138292857Y-112464286D01*
X138178572Y-112464286D01*
X140314286Y-99297619D02*
X140314286Y-100297619D01*
X139857143Y-100297619D01*
X139742857Y-100250000D01*
X139685714Y-100202381D01*
X139628571Y-100107143D01*
X139628571Y-99964286D01*
X139685714Y-99869048D01*
X139742857Y-99821429D01*
X139857143Y-99773810D01*
X140314286Y-99773810D01*
X139228571Y-99964286D02*
X139000000Y-99297619D01*
X138771429Y-99773810D01*
X138542857Y-99297619D01*
X138314286Y-99964286D01*
X137857143Y-99297619D02*
X137857143Y-99964286D01*
X137857143Y-99773810D02*
X137800000Y-99869048D01*
X137742857Y-99916667D01*
X137628571Y-99964286D01*
X137514286Y-99964286D01*
D14*
X141966200Y-115161000D02*
X141966200Y-117761000D01*
X141966200Y-117761000D02*
X144586200Y-117761000D01*
X144586200Y-117761000D02*
X144586200Y-115161000D01*
X144586200Y-115161000D02*
X141966200Y-115161000D01*
X144586200Y-116111000D02*
X144586200Y-116871000D01*
X144586200Y-116871000D02*
X150586200Y-116871000D01*
X150586200Y-116871000D02*
X150586200Y-116111000D01*
X150586200Y-116111000D02*
X144586200Y-116111000D01*
X141536200Y-116111000D02*
X141966200Y-116111000D01*
X141536200Y-116871000D02*
X141966200Y-116871000D01*
X144586200Y-116231000D02*
X150586200Y-116231000D01*
X144586200Y-116351000D02*
X150586200Y-116351000D01*
X144586200Y-116471000D02*
X150586200Y-116471000D01*
X144586200Y-116591000D02*
X150586200Y-116591000D01*
X144586200Y-116711000D02*
X150586200Y-116711000D01*
X144586200Y-116831000D02*
X150586200Y-116831000D01*
X141966200Y-117761000D02*
X141966200Y-120301000D01*
X141966200Y-120301000D02*
X144586200Y-120301000D01*
X144586200Y-120301000D02*
X144586200Y-117761000D01*
X144586200Y-117761000D02*
X141966200Y-117761000D01*
X144586200Y-118651000D02*
X144586200Y-119411000D01*
X144586200Y-119411000D02*
X150586200Y-119411000D01*
X150586200Y-119411000D02*
X150586200Y-118651000D01*
X150586200Y-118651000D02*
X144586200Y-118651000D01*
X141536200Y-118651000D02*
X141966200Y-118651000D01*
X141536200Y-119411000D02*
X141966200Y-119411000D01*
X141966200Y-120301000D02*
X141966200Y-122841000D01*
X141966200Y-122841000D02*
X144586200Y-122841000D01*
X144586200Y-122841000D02*
X144586200Y-120301000D01*
X144586200Y-120301000D02*
X141966200Y-120301000D01*
X144586200Y-121191000D02*
X144586200Y-121951000D01*
X144586200Y-121951000D02*
X150586200Y-121951000D01*
X150586200Y-121951000D02*
X150586200Y-121191000D01*
X150586200Y-121191000D02*
X144586200Y-121191000D01*
X141536200Y-121191000D02*
X141966200Y-121191000D01*
X141536200Y-121951000D02*
X141966200Y-121951000D01*
X141966200Y-122841000D02*
X141966200Y-125381000D01*
X141966200Y-125381000D02*
X144586200Y-125381000D01*
X144586200Y-125381000D02*
X144586200Y-122841000D01*
X144586200Y-122841000D02*
X141966200Y-122841000D01*
X144586200Y-123731000D02*
X144586200Y-124491000D01*
X144586200Y-124491000D02*
X150586200Y-124491000D01*
X150586200Y-124491000D02*
X150586200Y-123731000D01*
X150586200Y-123731000D02*
X144586200Y-123731000D01*
X141536200Y-123731000D02*
X141966200Y-123731000D01*
X141536200Y-124491000D02*
X141966200Y-124491000D01*
X141966200Y-125381000D02*
X141966200Y-127921000D01*
X141966200Y-127921000D02*
X144586200Y-127921000D01*
X144586200Y-127921000D02*
X144586200Y-125381000D01*
X144586200Y-125381000D02*
X141966200Y-125381000D01*
X144586200Y-126271000D02*
X144586200Y-127031000D01*
X144586200Y-127031000D02*
X150586200Y-127031000D01*
X150586200Y-127031000D02*
X150586200Y-126271000D01*
X150586200Y-126271000D02*
X144586200Y-126271000D01*
X141536200Y-126271000D02*
X141966200Y-126271000D01*
X141536200Y-127031000D02*
X141966200Y-127031000D01*
X141966200Y-127921000D02*
X141966200Y-130461000D01*
X141966200Y-130461000D02*
X144586200Y-130461000D01*
X144586200Y-130461000D02*
X144586200Y-127921000D01*
X144586200Y-127921000D02*
X141966200Y-127921000D01*
X144586200Y-128811000D02*
X144586200Y-129571000D01*
X144586200Y-129571000D02*
X150586200Y-129571000D01*
X150586200Y-129571000D02*
X150586200Y-128811000D01*
X150586200Y-128811000D02*
X144586200Y-128811000D01*
X141536200Y-128811000D02*
X141966200Y-128811000D01*
X141536200Y-129571000D02*
X141966200Y-129571000D01*
X141966200Y-130461000D02*
X141966200Y-133061000D01*
X141966200Y-133061000D02*
X144586200Y-133061000D01*
X144586200Y-133061000D02*
X144586200Y-130461000D01*
X144586200Y-130461000D02*
X141966200Y-130461000D01*
X144586200Y-131351000D02*
X144586200Y-132111000D01*
X144586200Y-132111000D02*
X150586200Y-132111000D01*
X150586200Y-132111000D02*
X150586200Y-131351000D01*
X150586200Y-131351000D02*
X144586200Y-131351000D01*
X141536200Y-131351000D02*
X141966200Y-131351000D01*
X141536200Y-132111000D02*
X141966200Y-132111000D01*
X139356200Y-116491000D02*
X139356200Y-115221000D01*
X139356200Y-115221000D02*
X140626200Y-115221000D01*
X103033800Y-129839000D02*
X103033800Y-127239000D01*
X103033800Y-127239000D02*
X100413800Y-127239000D01*
X100413800Y-127239000D02*
X100413800Y-129839000D01*
X100413800Y-129839000D02*
X103033800Y-129839000D01*
X100413800Y-128889000D02*
X100413800Y-128129000D01*
X100413800Y-128129000D02*
X94413800Y-128129000D01*
X94413800Y-128129000D02*
X94413800Y-128889000D01*
X94413800Y-128889000D02*
X100413800Y-128889000D01*
X103463800Y-128889000D02*
X103033800Y-128889000D01*
X103463800Y-128129000D02*
X103033800Y-128129000D01*
X100413800Y-128769000D02*
X94413800Y-128769000D01*
X100413800Y-128649000D02*
X94413800Y-128649000D01*
X100413800Y-128529000D02*
X94413800Y-128529000D01*
X100413800Y-128409000D02*
X94413800Y-128409000D01*
X100413800Y-128289000D02*
X94413800Y-128289000D01*
X100413800Y-128169000D02*
X94413800Y-128169000D01*
X103033800Y-127239000D02*
X103033800Y-124699000D01*
X103033800Y-124699000D02*
X100413800Y-124699000D01*
X100413800Y-124699000D02*
X100413800Y-127239000D01*
X100413800Y-127239000D02*
X103033800Y-127239000D01*
X100413800Y-126349000D02*
X100413800Y-125589000D01*
X100413800Y-125589000D02*
X94413800Y-125589000D01*
X94413800Y-125589000D02*
X94413800Y-126349000D01*
X94413800Y-126349000D02*
X100413800Y-126349000D01*
X103463800Y-126349000D02*
X103033800Y-126349000D01*
X103463800Y-125589000D02*
X103033800Y-125589000D01*
X103033800Y-124699000D02*
X103033800Y-122159000D01*
X103033800Y-122159000D02*
X100413800Y-122159000D01*
X100413800Y-122159000D02*
X100413800Y-124699000D01*
X100413800Y-124699000D02*
X103033800Y-124699000D01*
X100413800Y-123809000D02*
X100413800Y-123049000D01*
X100413800Y-123049000D02*
X94413800Y-123049000D01*
X94413800Y-123049000D02*
X94413800Y-123809000D01*
X94413800Y-123809000D02*
X100413800Y-123809000D01*
X103463800Y-123809000D02*
X103033800Y-123809000D01*
X103463800Y-123049000D02*
X103033800Y-123049000D01*
X103033800Y-122159000D02*
X103033800Y-119619000D01*
X103033800Y-119619000D02*
X100413800Y-119619000D01*
X100413800Y-119619000D02*
X100413800Y-122159000D01*
X100413800Y-122159000D02*
X103033800Y-122159000D01*
X100413800Y-121269000D02*
X100413800Y-120509000D01*
X100413800Y-120509000D02*
X94413800Y-120509000D01*
X94413800Y-120509000D02*
X94413800Y-121269000D01*
X94413800Y-121269000D02*
X100413800Y-121269000D01*
X103463800Y-121269000D02*
X103033800Y-121269000D01*
X103463800Y-120509000D02*
X103033800Y-120509000D01*
X103033800Y-119619000D02*
X103033800Y-117079000D01*
X103033800Y-117079000D02*
X100413800Y-117079000D01*
X100413800Y-117079000D02*
X100413800Y-119619000D01*
X100413800Y-119619000D02*
X103033800Y-119619000D01*
X100413800Y-118729000D02*
X100413800Y-117969000D01*
X100413800Y-117969000D02*
X94413800Y-117969000D01*
X94413800Y-117969000D02*
X94413800Y-118729000D01*
X94413800Y-118729000D02*
X100413800Y-118729000D01*
X103463800Y-118729000D02*
X103033800Y-118729000D01*
X103463800Y-117969000D02*
X103033800Y-117969000D01*
X103033800Y-117079000D02*
X103033800Y-114539000D01*
X103033800Y-114539000D02*
X100413800Y-114539000D01*
X100413800Y-114539000D02*
X100413800Y-117079000D01*
X100413800Y-117079000D02*
X103033800Y-117079000D01*
X100413800Y-116189000D02*
X100413800Y-115429000D01*
X100413800Y-115429000D02*
X94413800Y-115429000D01*
X94413800Y-115429000D02*
X94413800Y-116189000D01*
X94413800Y-116189000D02*
X100413800Y-116189000D01*
X103463800Y-116189000D02*
X103033800Y-116189000D01*
X103463800Y-115429000D02*
X103033800Y-115429000D01*
X103033800Y-114539000D02*
X103033800Y-111939000D01*
X103033800Y-111939000D02*
X100413800Y-111939000D01*
X100413800Y-111939000D02*
X100413800Y-114539000D01*
X100413800Y-114539000D02*
X103033800Y-114539000D01*
X100413800Y-113649000D02*
X100413800Y-112889000D01*
X100413800Y-112889000D02*
X94413800Y-112889000D01*
X94413800Y-112889000D02*
X94413800Y-113649000D01*
X94413800Y-113649000D02*
X100413800Y-113649000D01*
X103463800Y-113649000D02*
X103033800Y-113649000D01*
X103463800Y-112889000D02*
X103033800Y-112889000D01*
X105643800Y-128509000D02*
X105643800Y-129779000D01*
X105643800Y-129779000D02*
X104373800Y-129779000D01*
D11*
X119366400Y-143859000D02*
X119366400Y-143409000D01*
X112116400Y-143859000D02*
X112116400Y-143334000D01*
X112116400Y-136609000D02*
X112116400Y-137134000D01*
X119366400Y-136609000D02*
X119366400Y-137134000D01*
X119366400Y-143859000D02*
X118841400Y-143859000D01*
X119366400Y-136609000D02*
X118841400Y-136609000D01*
X112116400Y-136609000D02*
X112641400Y-136609000D01*
X112116400Y-143859000D02*
X112641400Y-143859000D01*
X119366400Y-143409000D02*
X120741400Y-143409000D01*
D14*
X112814000Y-132200000D02*
X113514000Y-132200000D01*
X113514000Y-133400000D02*
X112814000Y-133400000D01*
X109250000Y-138280000D02*
X108250000Y-138280000D01*
X108250000Y-136920000D02*
X109250000Y-136920000D01*
X103335400Y-134818600D02*
X104335400Y-134818600D01*
X104335400Y-134818600D02*
X104335400Y-132718600D01*
X103335400Y-134818600D02*
X103335400Y-132718600D01*
X122400000Y-138850000D02*
X122400000Y-139550000D01*
X121200000Y-139550000D02*
X121200000Y-138850000D01*
X108239000Y-143094000D02*
X108239000Y-142394000D01*
X109439000Y-142394000D02*
X109439000Y-143094000D01*
X120100000Y-144200000D02*
X120800000Y-144200000D01*
X120800000Y-145400000D02*
X120100000Y-145400000D01*
D10*
X122708000Y-134908000D02*
G75*
G03X122708000Y-134908000I-127000J0D01*
G01*
X121600000Y-135200000D02*
X122800000Y-135200000D01*
X122800000Y-133600000D02*
X121600000Y-133600000D01*
D15*
X110074660Y-135154000D02*
X109216140Y-135154000D01*
X109216140Y-132309200D02*
X110074660Y-132309200D01*
X110455660Y-133464900D02*
X110455660Y-133998300D01*
D14*
X104437000Y-143166000D02*
X103437000Y-143166000D01*
X103437000Y-143166000D02*
X103437000Y-145266000D01*
X104437000Y-143166000D02*
X104437000Y-145266000D01*
X120100000Y-134700000D02*
X120100000Y-133700000D01*
X120100000Y-133700000D02*
X118000000Y-133700000D01*
X120100000Y-134700000D02*
X118000000Y-134700000D01*
X120100000Y-133300000D02*
X120100000Y-132300000D01*
X120100000Y-132300000D02*
X118000000Y-132300000D01*
X120100000Y-133300000D02*
X118000000Y-133300000D01*
X109250000Y-141280000D02*
X108250000Y-141280000D01*
X108250000Y-139920000D02*
X109250000Y-139920000D01*
X109250000Y-139880000D02*
X108250000Y-139880000D01*
X108250000Y-138520000D02*
X109250000Y-138520000D01*
X108250800Y-135510800D02*
X109250800Y-135510800D01*
X109250800Y-136870800D02*
X108250800Y-136870800D01*
X116450000Y-133480000D02*
X115450000Y-133480000D01*
X115450000Y-132120000D02*
X116450000Y-132120000D01*
X116450000Y-134880000D02*
X115450000Y-134880000D01*
X115450000Y-133520000D02*
X116450000Y-133520000D01*
X122650000Y-133480000D02*
X121650000Y-133480000D01*
X121650000Y-132120000D02*
X122650000Y-132120000D01*
D11*
X125633600Y-101141000D02*
X125633600Y-101591000D01*
X132883600Y-101141000D02*
X132883600Y-101666000D01*
X132883600Y-108391000D02*
X132883600Y-107866000D01*
X125633600Y-108391000D02*
X125633600Y-107866000D01*
X125633600Y-101141000D02*
X126158600Y-101141000D01*
X125633600Y-108391000D02*
X126158600Y-108391000D01*
X132883600Y-108391000D02*
X132358600Y-108391000D01*
X132883600Y-101141000D02*
X132358600Y-101141000D01*
X125633600Y-101591000D02*
X124258600Y-101591000D01*
D14*
X132186000Y-112800000D02*
X131486000Y-112800000D01*
X131486000Y-111600000D02*
X132186000Y-111600000D01*
X135750000Y-106720000D02*
X136750000Y-106720000D01*
X136750000Y-108080000D02*
X135750000Y-108080000D01*
X141664600Y-110181400D02*
X140664600Y-110181400D01*
X140664600Y-110181400D02*
X140664600Y-112281400D01*
X141664600Y-110181400D02*
X141664600Y-112281400D01*
X122600000Y-106150000D02*
X122600000Y-105450000D01*
X123800000Y-105450000D02*
X123800000Y-106150000D01*
X136761000Y-101906000D02*
X136761000Y-102606000D01*
X135561000Y-102606000D02*
X135561000Y-101906000D01*
X124900000Y-100800000D02*
X124200000Y-100800000D01*
X124200000Y-99600000D02*
X124900000Y-99600000D01*
D10*
X122546000Y-110092000D02*
G75*
G03X122546000Y-110092000I-127000J0D01*
G01*
X123400000Y-109800000D02*
X122200000Y-109800000D01*
X122200000Y-111400000D02*
X123400000Y-111400000D01*
D15*
X134925340Y-109846000D02*
X135783860Y-109846000D01*
X135783860Y-112690800D02*
X134925340Y-112690800D01*
X134544340Y-111535100D02*
X134544340Y-111001700D01*
D14*
X140563000Y-101834000D02*
X141563000Y-101834000D01*
X141563000Y-101834000D02*
X141563000Y-99734000D01*
X140563000Y-101834000D02*
X140563000Y-99734000D01*
X124900000Y-110300000D02*
X124900000Y-111300000D01*
X124900000Y-111300000D02*
X127000000Y-111300000D01*
X124900000Y-110300000D02*
X127000000Y-110300000D01*
X124900000Y-111700000D02*
X124900000Y-112700000D01*
X124900000Y-112700000D02*
X127000000Y-112700000D01*
X124900000Y-111700000D02*
X127000000Y-111700000D01*
X135750000Y-103720000D02*
X136750000Y-103720000D01*
X136750000Y-105080000D02*
X135750000Y-105080000D01*
X135750000Y-105120000D02*
X136750000Y-105120000D01*
X136750000Y-106480000D02*
X135750000Y-106480000D01*
X136749200Y-109489200D02*
X135749200Y-109489200D01*
X135749200Y-108129200D02*
X136749200Y-108129200D01*
X128550000Y-111520000D02*
X129550000Y-111520000D01*
X129550000Y-112880000D02*
X128550000Y-112880000D01*
X128550000Y-110120000D02*
X129550000Y-110120000D01*
X129550000Y-111480000D02*
X128550000Y-111480000D01*
X122350000Y-111520000D02*
X123350000Y-111520000D01*
X123350000Y-112880000D02*
X122350000Y-112880000D01*
D11*
X135292867Y-116543381D02*
X135292867Y-117257667D01*
X135245247Y-117400524D01*
X135150009Y-117495762D01*
X135007152Y-117543381D01*
X134911914Y-117543381D01*
X136292867Y-117543381D02*
X135721438Y-117543381D01*
X136007152Y-117543381D02*
X136007152Y-116543381D01*
X135911914Y-116686238D01*
X135816676Y-116781476D01*
X135721438Y-116829095D01*
D16*
X140973311Y-141554920D02*
X140987826Y-141511377D01*
X140987826Y-141438806D01*
X140973311Y-141409777D01*
X140958797Y-141395263D01*
X140929769Y-141380748D01*
X140900740Y-141380748D01*
X140871711Y-141395263D01*
X140857197Y-141409777D01*
X140842683Y-141438806D01*
X140828169Y-141496863D01*
X140813654Y-141525891D01*
X140799140Y-141540406D01*
X140770111Y-141554920D01*
X140741083Y-141554920D01*
X140712054Y-141540406D01*
X140697540Y-141525891D01*
X140683026Y-141496863D01*
X140683026Y-141424291D01*
X140697540Y-141380748D01*
X140683026Y-141279148D02*
X140987826Y-141206577D01*
X140770111Y-141148520D01*
X140987826Y-141090462D01*
X140683026Y-141017891D01*
X140987826Y-140742119D02*
X140987826Y-140916291D01*
X140987826Y-140829205D02*
X140683026Y-140829205D01*
X140726569Y-140858234D01*
X140755597Y-140887262D01*
X140770111Y-140916291D01*
X144473431Y-139755874D02*
X144487946Y-139712331D01*
X144487946Y-139639760D01*
X144473431Y-139610731D01*
X144458917Y-139596217D01*
X144429889Y-139581702D01*
X144400860Y-139581702D01*
X144371831Y-139596217D01*
X144357317Y-139610731D01*
X144342803Y-139639760D01*
X144328289Y-139697817D01*
X144313774Y-139726845D01*
X144299260Y-139741360D01*
X144270231Y-139755874D01*
X144241203Y-139755874D01*
X144212174Y-139741360D01*
X144197660Y-139726845D01*
X144183146Y-139697817D01*
X144183146Y-139625245D01*
X144197660Y-139581702D01*
X144183146Y-139480102D02*
X144487946Y-139407531D01*
X144270231Y-139349474D01*
X144487946Y-139291416D01*
X144183146Y-139218845D01*
X144516974Y-139175302D02*
X144516974Y-138943073D01*
X144487946Y-138870502D02*
X144183146Y-138870502D01*
X144183146Y-138754387D01*
X144197660Y-138725359D01*
X144212174Y-138710844D01*
X144241203Y-138696330D01*
X144284746Y-138696330D01*
X144313774Y-138710844D01*
X144328289Y-138725359D01*
X144342803Y-138754387D01*
X144342803Y-138870502D01*
X144284746Y-138435073D02*
X144487946Y-138435073D01*
X144284746Y-138565702D02*
X144444403Y-138565702D01*
X144473431Y-138551187D01*
X144487946Y-138522159D01*
X144487946Y-138478616D01*
X144473431Y-138449587D01*
X144458917Y-138435073D01*
X144473431Y-138304445D02*
X144487946Y-138275416D01*
X144487946Y-138217359D01*
X144473431Y-138188331D01*
X144444403Y-138173816D01*
X144429889Y-138173816D01*
X144400860Y-138188331D01*
X144386346Y-138217359D01*
X144386346Y-138260902D01*
X144371831Y-138289931D01*
X144342803Y-138304445D01*
X144328289Y-138304445D01*
X144299260Y-138289931D01*
X144284746Y-138260902D01*
X144284746Y-138217359D01*
X144299260Y-138188331D01*
X144487946Y-138043188D02*
X144183146Y-138043188D01*
X144487946Y-137912559D02*
X144328289Y-137912559D01*
X144299260Y-137927073D01*
X144284746Y-137956102D01*
X144284746Y-137999645D01*
X144299260Y-138028673D01*
X144313774Y-138043188D01*
D11*
X135216667Y-134702381D02*
X135216667Y-135416667D01*
X135169047Y-135559524D01*
X135073809Y-135654762D01*
X134930952Y-135702381D01*
X134835714Y-135702381D01*
X135645238Y-134797619D02*
X135692857Y-134750000D01*
X135788095Y-134702381D01*
X136026191Y-134702381D01*
X136121429Y-134750000D01*
X136169048Y-134797619D01*
X136216667Y-134892857D01*
X136216667Y-134988095D01*
X136169048Y-135130952D01*
X135597619Y-135702381D01*
X136216667Y-135702381D01*
D16*
X133982820Y-129484311D02*
X134026363Y-129498826D01*
X134098934Y-129498826D01*
X134127963Y-129484311D01*
X134142477Y-129469797D01*
X134156992Y-129440769D01*
X134156992Y-129411740D01*
X134142477Y-129382711D01*
X134127963Y-129368197D01*
X134098934Y-129353683D01*
X134040877Y-129339169D01*
X134011849Y-129324654D01*
X133997334Y-129310140D01*
X133982820Y-129281111D01*
X133982820Y-129252083D01*
X133997334Y-129223054D01*
X134011849Y-129208540D01*
X134040877Y-129194026D01*
X134113449Y-129194026D01*
X134156992Y-129208540D01*
X134258592Y-129194026D02*
X134331163Y-129498826D01*
X134389220Y-129281111D01*
X134447278Y-129498826D01*
X134519849Y-129194026D01*
X134621449Y-129223054D02*
X134635963Y-129208540D01*
X134664992Y-129194026D01*
X134737563Y-129194026D01*
X134766592Y-129208540D01*
X134781106Y-129223054D01*
X134795621Y-129252083D01*
X134795621Y-129281111D01*
X134781106Y-129324654D01*
X134606935Y-129498826D01*
X134795621Y-129498826D01*
X135781866Y-132984431D02*
X135825409Y-132998946D01*
X135897980Y-132998946D01*
X135927009Y-132984431D01*
X135941523Y-132969917D01*
X135956038Y-132940889D01*
X135956038Y-132911860D01*
X135941523Y-132882831D01*
X135927009Y-132868317D01*
X135897980Y-132853803D01*
X135839923Y-132839289D01*
X135810895Y-132824774D01*
X135796380Y-132810260D01*
X135781866Y-132781231D01*
X135781866Y-132752203D01*
X135796380Y-132723174D01*
X135810895Y-132708660D01*
X135839923Y-132694146D01*
X135912495Y-132694146D01*
X135956038Y-132708660D01*
X136057638Y-132694146D02*
X136130209Y-132998946D01*
X136188266Y-132781231D01*
X136246324Y-132998946D01*
X136318895Y-132694146D01*
X136362438Y-133027974D02*
X136594667Y-133027974D01*
X136667238Y-132998946D02*
X136667238Y-132694146D01*
X136783353Y-132694146D01*
X136812381Y-132708660D01*
X136826896Y-132723174D01*
X136841410Y-132752203D01*
X136841410Y-132795746D01*
X136826896Y-132824774D01*
X136812381Y-132839289D01*
X136783353Y-132853803D01*
X136667238Y-132853803D01*
X137102667Y-132795746D02*
X137102667Y-132998946D01*
X136972038Y-132795746D02*
X136972038Y-132955403D01*
X136986553Y-132984431D01*
X137015581Y-132998946D01*
X137059124Y-132998946D01*
X137088153Y-132984431D01*
X137102667Y-132969917D01*
X137233295Y-132984431D02*
X137262324Y-132998946D01*
X137320381Y-132998946D01*
X137349409Y-132984431D01*
X137363924Y-132955403D01*
X137363924Y-132940889D01*
X137349409Y-132911860D01*
X137320381Y-132897346D01*
X137276838Y-132897346D01*
X137247809Y-132882831D01*
X137233295Y-132853803D01*
X137233295Y-132839289D01*
X137247809Y-132810260D01*
X137276838Y-132795746D01*
X137320381Y-132795746D01*
X137349409Y-132810260D01*
X137494552Y-132998946D02*
X137494552Y-132694146D01*
X137625181Y-132998946D02*
X137625181Y-132839289D01*
X137610667Y-132810260D01*
X137581638Y-132795746D01*
X137538095Y-132795746D01*
X137509067Y-132810260D01*
X137494552Y-132824774D01*
D11*
X144607867Y-113673381D02*
X144607867Y-114387667D01*
X144560247Y-114530524D01*
X144465009Y-114625762D01*
X144322152Y-114673381D01*
X144226914Y-114673381D01*
X145512629Y-114006714D02*
X145512629Y-114673381D01*
X145274533Y-113625762D02*
X145036438Y-114340048D01*
X145655486Y-114340048D01*
X109116667Y-109202381D02*
X109116667Y-109916667D01*
X109069047Y-110059524D01*
X108973809Y-110154762D01*
X108830952Y-110202381D01*
X108735714Y-110202381D01*
X109545238Y-109297619D02*
X109592857Y-109250000D01*
X109688095Y-109202381D01*
X109926191Y-109202381D01*
X110021429Y-109250000D01*
X110069048Y-109297619D01*
X110116667Y-109392857D01*
X110116667Y-109488095D01*
X110069048Y-109630952D01*
X109497619Y-110202381D01*
X110116667Y-110202381D01*
D16*
X104273431Y-104257880D02*
X104287946Y-104214337D01*
X104287946Y-104141766D01*
X104273431Y-104112737D01*
X104258917Y-104098223D01*
X104229889Y-104083708D01*
X104200860Y-104083708D01*
X104171831Y-104098223D01*
X104157317Y-104112737D01*
X104142803Y-104141766D01*
X104128289Y-104199823D01*
X104113774Y-104228851D01*
X104099260Y-104243366D01*
X104070231Y-104257880D01*
X104041203Y-104257880D01*
X104012174Y-104243366D01*
X103997660Y-104228851D01*
X103983146Y-104199823D01*
X103983146Y-104127251D01*
X103997660Y-104083708D01*
X103983146Y-103982108D02*
X104287946Y-103909537D01*
X104070231Y-103851480D01*
X104287946Y-103793422D01*
X103983146Y-103720851D01*
X104287946Y-103445079D02*
X104287946Y-103619251D01*
X104287946Y-103532165D02*
X103983146Y-103532165D01*
X104026689Y-103561194D01*
X104055717Y-103590222D01*
X104070231Y-103619251D01*
X100773311Y-107101954D02*
X100787826Y-107058411D01*
X100787826Y-106985840D01*
X100773311Y-106956811D01*
X100758797Y-106942297D01*
X100729769Y-106927782D01*
X100700740Y-106927782D01*
X100671711Y-106942297D01*
X100657197Y-106956811D01*
X100642683Y-106985840D01*
X100628169Y-107043897D01*
X100613654Y-107072925D01*
X100599140Y-107087440D01*
X100570111Y-107101954D01*
X100541083Y-107101954D01*
X100512054Y-107087440D01*
X100497540Y-107072925D01*
X100483026Y-107043897D01*
X100483026Y-106971325D01*
X100497540Y-106927782D01*
X100483026Y-106826182D02*
X100787826Y-106753611D01*
X100570111Y-106695554D01*
X100787826Y-106637496D01*
X100483026Y-106564925D01*
X100816854Y-106521382D02*
X100816854Y-106289153D01*
X100787826Y-106216582D02*
X100483026Y-106216582D01*
X100483026Y-106100467D01*
X100497540Y-106071439D01*
X100512054Y-106056924D01*
X100541083Y-106042410D01*
X100584626Y-106042410D01*
X100613654Y-106056924D01*
X100628169Y-106071439D01*
X100642683Y-106100467D01*
X100642683Y-106216582D01*
X100584626Y-105781153D02*
X100787826Y-105781153D01*
X100584626Y-105911782D02*
X100744283Y-105911782D01*
X100773311Y-105897267D01*
X100787826Y-105868239D01*
X100787826Y-105824696D01*
X100773311Y-105795667D01*
X100758797Y-105781153D01*
X100773311Y-105650525D02*
X100787826Y-105621496D01*
X100787826Y-105563439D01*
X100773311Y-105534411D01*
X100744283Y-105519896D01*
X100729769Y-105519896D01*
X100700740Y-105534411D01*
X100686226Y-105563439D01*
X100686226Y-105606982D01*
X100671711Y-105636011D01*
X100642683Y-105650525D01*
X100628169Y-105650525D01*
X100599140Y-105636011D01*
X100584626Y-105606982D01*
X100584626Y-105563439D01*
X100599140Y-105534411D01*
X100787826Y-105389268D02*
X100483026Y-105389268D01*
X100787826Y-105258639D02*
X100628169Y-105258639D01*
X100599140Y-105273153D01*
X100584626Y-105302182D01*
X100584626Y-105345725D01*
X100599140Y-105374753D01*
X100613654Y-105389268D01*
X110204380Y-115762431D02*
X110247923Y-115776946D01*
X110320494Y-115776946D01*
X110349523Y-115762431D01*
X110364037Y-115747917D01*
X110378552Y-115718889D01*
X110378552Y-115689860D01*
X110364037Y-115660831D01*
X110349523Y-115646317D01*
X110320494Y-115631803D01*
X110262437Y-115617289D01*
X110233409Y-115602774D01*
X110218894Y-115588260D01*
X110204380Y-115559231D01*
X110204380Y-115530203D01*
X110218894Y-115501174D01*
X110233409Y-115486660D01*
X110262437Y-115472146D01*
X110335009Y-115472146D01*
X110378552Y-115486660D01*
X110480152Y-115472146D02*
X110552723Y-115776946D01*
X110610780Y-115559231D01*
X110668838Y-115776946D01*
X110741409Y-115472146D01*
X110843009Y-115501174D02*
X110857523Y-115486660D01*
X110886552Y-115472146D01*
X110959123Y-115472146D01*
X110988152Y-115486660D01*
X111002666Y-115501174D01*
X111017181Y-115530203D01*
X111017181Y-115559231D01*
X111002666Y-115602774D01*
X110828495Y-115776946D01*
X111017181Y-115776946D01*
X107360306Y-112262311D02*
X107403849Y-112276826D01*
X107476420Y-112276826D01*
X107505449Y-112262311D01*
X107519963Y-112247797D01*
X107534478Y-112218769D01*
X107534478Y-112189740D01*
X107519963Y-112160711D01*
X107505449Y-112146197D01*
X107476420Y-112131683D01*
X107418363Y-112117169D01*
X107389335Y-112102654D01*
X107374820Y-112088140D01*
X107360306Y-112059111D01*
X107360306Y-112030083D01*
X107374820Y-112001054D01*
X107389335Y-111986540D01*
X107418363Y-111972026D01*
X107490935Y-111972026D01*
X107534478Y-111986540D01*
X107636078Y-111972026D02*
X107708649Y-112276826D01*
X107766706Y-112059111D01*
X107824764Y-112276826D01*
X107897335Y-111972026D01*
X107940878Y-112305854D02*
X108173107Y-112305854D01*
X108245678Y-112276826D02*
X108245678Y-111972026D01*
X108361793Y-111972026D01*
X108390821Y-111986540D01*
X108405336Y-112001054D01*
X108419850Y-112030083D01*
X108419850Y-112073626D01*
X108405336Y-112102654D01*
X108390821Y-112117169D01*
X108361793Y-112131683D01*
X108245678Y-112131683D01*
X108681107Y-112073626D02*
X108681107Y-112276826D01*
X108550478Y-112073626D02*
X108550478Y-112233283D01*
X108564993Y-112262311D01*
X108594021Y-112276826D01*
X108637564Y-112276826D01*
X108666593Y-112262311D01*
X108681107Y-112247797D01*
X108811735Y-112262311D02*
X108840764Y-112276826D01*
X108898821Y-112276826D01*
X108927849Y-112262311D01*
X108942364Y-112233283D01*
X108942364Y-112218769D01*
X108927849Y-112189740D01*
X108898821Y-112175226D01*
X108855278Y-112175226D01*
X108826249Y-112160711D01*
X108811735Y-112131683D01*
X108811735Y-112117169D01*
X108826249Y-112088140D01*
X108855278Y-112073626D01*
X108898821Y-112073626D01*
X108927849Y-112088140D01*
X109072992Y-112276826D02*
X109072992Y-111972026D01*
X109203621Y-112276826D02*
X109203621Y-112117169D01*
X109189107Y-112088140D01*
X109160078Y-112073626D01*
X109116535Y-112073626D01*
X109087507Y-112088140D01*
X109072992Y-112102654D01*
D11*
X99725467Y-130231381D02*
X99725467Y-130945667D01*
X99677847Y-131088524D01*
X99582609Y-131183762D01*
X99439752Y-131231381D01*
X99344514Y-131231381D01*
X100630229Y-130564714D02*
X100630229Y-131231381D01*
X100392133Y-130183762D02*
X100154038Y-130898048D01*
X100773086Y-130898048D01*
X109040467Y-127361381D02*
X109040467Y-128075667D01*
X108992847Y-128218524D01*
X108897609Y-128313762D01*
X108754752Y-128361381D01*
X108659514Y-128361381D01*
X110040467Y-128361381D02*
X109469038Y-128361381D01*
X109754752Y-128361381D02*
X109754752Y-127361381D01*
X109659514Y-127504238D01*
X109564276Y-127599476D01*
X109469038Y-127647095D01*
X123920667Y-116753381D02*
X123587333Y-116277190D01*
X123349238Y-116753381D02*
X123349238Y-115753381D01*
X123730191Y-115753381D01*
X123825429Y-115801000D01*
X123873048Y-115848619D01*
X123920667Y-115943857D01*
X123920667Y-116086714D01*
X123873048Y-116181952D01*
X123825429Y-116229571D01*
X123730191Y-116277190D01*
X123349238Y-116277190D01*
X124349238Y-116229571D02*
X124682572Y-116229571D01*
X124825429Y-116753381D02*
X124349238Y-116753381D01*
X124349238Y-115753381D01*
X124825429Y-115753381D01*
X125587334Y-116229571D02*
X125254000Y-116229571D01*
X125254000Y-116753381D02*
X125254000Y-115753381D01*
X125730191Y-115753381D01*
X126254000Y-115753381D02*
X126254000Y-115991476D01*
X126015905Y-115896238D02*
X126254000Y-115991476D01*
X126492096Y-115896238D01*
X126111143Y-116181952D02*
X126254000Y-115991476D01*
X126396858Y-116181952D01*
X127015905Y-115753381D02*
X127015905Y-115991476D01*
X126777810Y-115896238D02*
X127015905Y-115991476D01*
X127254001Y-115896238D01*
X126873048Y-116181952D02*
X127015905Y-115991476D01*
X127158763Y-116181952D01*
X115666667Y-123452641D02*
X115333333Y-122976450D01*
X115095238Y-123452641D02*
X115095238Y-122452641D01*
X115476191Y-122452641D01*
X115571429Y-122500260D01*
X115619048Y-122547879D01*
X115666667Y-122643117D01*
X115666667Y-122785974D01*
X115619048Y-122881212D01*
X115571429Y-122928831D01*
X115476191Y-122976450D01*
X115095238Y-122976450D01*
X116095238Y-122928831D02*
X116428572Y-122928831D01*
X116571429Y-123452641D02*
X116095238Y-123452641D01*
X116095238Y-122452641D01*
X116571429Y-122452641D01*
X117333334Y-122928831D02*
X117000000Y-122928831D01*
X117000000Y-123452641D02*
X117000000Y-122452641D01*
X117476191Y-122452641D01*
X118000000Y-122452641D02*
X118000000Y-122690736D01*
X117761905Y-122595498D02*
X118000000Y-122690736D01*
X118238096Y-122595498D01*
X117857143Y-122881212D02*
X118000000Y-122690736D01*
X118142858Y-122881212D01*
X118761905Y-122452641D02*
X118761905Y-122690736D01*
X118523810Y-122595498D02*
X118761905Y-122690736D01*
X119000001Y-122595498D01*
X118619048Y-122881212D02*
X118761905Y-122690736D01*
X118904763Y-122881212D01*
X122236816Y-128353061D02*
X121760625Y-128353061D01*
X121713006Y-128829251D01*
X121760625Y-128781632D01*
X121855863Y-128734013D01*
X122093959Y-128734013D01*
X122189197Y-128781632D01*
X122236816Y-128829251D01*
X122284435Y-128924490D01*
X122284435Y-129162585D01*
X122236816Y-129257823D01*
X122189197Y-129305442D01*
X122093959Y-129353061D01*
X121855863Y-129353061D01*
X121760625Y-129305442D01*
X121713006Y-129257823D01*
X116952381Y-128251461D02*
X117047620Y-128251461D01*
X117142858Y-128299080D01*
X117190477Y-128346699D01*
X117238096Y-128441937D01*
X117285715Y-128632413D01*
X117285715Y-128870509D01*
X117238096Y-129060985D01*
X117190477Y-129156223D01*
X117142858Y-129203842D01*
X117047620Y-129251461D01*
X116952381Y-129251461D01*
X116857143Y-129203842D01*
X116809524Y-129156223D01*
X116761905Y-129060985D01*
X116714286Y-128870509D01*
X116714286Y-128632413D01*
X116761905Y-128441937D01*
X116809524Y-128346699D01*
X116857143Y-128299080D01*
X116952381Y-128251461D01*
X125476171Y-129152401D02*
X124904742Y-129152401D01*
X125190456Y-129152401D02*
X125190456Y-128152401D01*
X125095218Y-128295258D01*
X124999980Y-128390496D01*
X124904742Y-128438115D01*
X126095218Y-128152401D02*
X126190457Y-128152401D01*
X126285695Y-128200020D01*
X126333314Y-128247639D01*
X126380933Y-128342877D01*
X126428552Y-128533353D01*
X126428552Y-128771449D01*
X126380933Y-128961925D01*
X126333314Y-129057163D01*
X126285695Y-129104782D01*
X126190457Y-129152401D01*
X126095218Y-129152401D01*
X125999980Y-129104782D01*
X125952361Y-129057163D01*
X125904742Y-128961925D01*
X125857123Y-128771449D01*
X125857123Y-128533353D01*
X125904742Y-128342877D01*
X125952361Y-128247639D01*
X125999980Y-128200020D01*
X126095218Y-128152401D01*
X126857123Y-129152401D02*
X126857123Y-128485734D01*
X126857123Y-128580972D02*
X126904742Y-128533353D01*
X126999980Y-128485734D01*
X127142838Y-128485734D01*
X127238076Y-128533353D01*
X127285695Y-128628591D01*
X127285695Y-129152401D01*
X127285695Y-128628591D02*
X127333314Y-128533353D01*
X127428552Y-128485734D01*
X127571409Y-128485734D01*
X127666647Y-128533353D01*
X127714266Y-128628591D01*
X127714266Y-129152401D01*
X128190456Y-129152401D02*
X128190456Y-128485734D01*
X128190456Y-128580972D02*
X128238075Y-128533353D01*
X128333313Y-128485734D01*
X128476171Y-128485734D01*
X128571409Y-128533353D01*
X128619028Y-128628591D01*
X128619028Y-129152401D01*
X128619028Y-128628591D02*
X128666647Y-128533353D01*
X128761885Y-128485734D01*
X128904742Y-128485734D01*
X128999980Y-128533353D01*
X129047599Y-128628591D01*
X129047599Y-129152401D01*
X117488095Y-142402381D02*
X117488095Y-143211905D01*
X117535714Y-143307143D01*
X117583333Y-143354762D01*
X117678571Y-143402381D01*
X117869048Y-143402381D01*
X117964286Y-143354762D01*
X118011905Y-143307143D01*
X118059524Y-143211905D01*
X118059524Y-142402381D01*
X118440476Y-142402381D02*
X119059524Y-142402381D01*
X118726190Y-142783333D01*
X118869048Y-142783333D01*
X118964286Y-142830952D01*
X119011905Y-142878571D01*
X119059524Y-142973810D01*
X119059524Y-143211905D01*
X119011905Y-143307143D01*
X118964286Y-143354762D01*
X118869048Y-143402381D01*
X118583333Y-143402381D01*
X118488095Y-143354762D01*
X118440476Y-143307143D01*
X127841667Y-144077381D02*
X127841667Y-144791667D01*
X127794047Y-144934524D01*
X127698809Y-145029762D01*
X127555952Y-145077381D01*
X127460714Y-145077381D01*
X128270238Y-144172619D02*
X128317857Y-144125000D01*
X128413095Y-144077381D01*
X128651191Y-144077381D01*
X128746429Y-144125000D01*
X128794048Y-144172619D01*
X128841667Y-144267857D01*
X128841667Y-144363095D01*
X128794048Y-144505952D01*
X128222619Y-145077381D01*
X128841667Y-145077381D01*
X112508334Y-134432143D02*
X112460715Y-134479762D01*
X112317858Y-134527381D01*
X112222620Y-134527381D01*
X112079762Y-134479762D01*
X111984524Y-134384524D01*
X111936905Y-134289286D01*
X111889286Y-134098810D01*
X111889286Y-133955952D01*
X111936905Y-133765476D01*
X111984524Y-133670238D01*
X112079762Y-133575000D01*
X112222620Y-133527381D01*
X112317858Y-133527381D01*
X112460715Y-133575000D01*
X112508334Y-133622619D01*
X113460715Y-134527381D02*
X112889286Y-134527381D01*
X113175000Y-134527381D02*
X113175000Y-133527381D01*
X113079762Y-133670238D01*
X112984524Y-133765476D01*
X112889286Y-133813095D01*
X106433334Y-137252381D02*
X106100000Y-136776190D01*
X105861905Y-137252381D02*
X105861905Y-136252381D01*
X106242858Y-136252381D01*
X106338096Y-136300000D01*
X106385715Y-136347619D01*
X106433334Y-136442857D01*
X106433334Y-136585714D01*
X106385715Y-136680952D01*
X106338096Y-136728571D01*
X106242858Y-136776190D01*
X105861905Y-136776190D01*
X107338096Y-136252381D02*
X106861905Y-136252381D01*
X106814286Y-136728571D01*
X106861905Y-136680952D01*
X106957143Y-136633333D01*
X107195239Y-136633333D01*
X107290477Y-136680952D01*
X107338096Y-136728571D01*
X107385715Y-136823810D01*
X107385715Y-137061905D01*
X107338096Y-137157143D01*
X107290477Y-137204762D01*
X107195239Y-137252381D01*
X106957143Y-137252381D01*
X106861905Y-137204762D01*
X106814286Y-137157143D01*
D16*
X105733748Y-141929467D02*
X106024033Y-141929467D01*
X106082090Y-141948819D01*
X106120795Y-141987524D01*
X106140148Y-142045581D01*
X106140148Y-142084286D01*
X106140148Y-141523067D02*
X106140148Y-141755295D01*
X106140148Y-141639181D02*
X105733748Y-141639181D01*
X105791805Y-141677886D01*
X105830510Y-141716591D01*
X105849862Y-141755295D01*
X105733748Y-137520752D02*
X106062738Y-137520752D01*
X106101443Y-137501400D01*
X106120795Y-137482047D01*
X106140148Y-137443343D01*
X106140148Y-137365933D01*
X106120795Y-137327228D01*
X106101443Y-137307876D01*
X106062738Y-137288524D01*
X105733748Y-137288524D01*
X106120795Y-137114352D02*
X106140148Y-137056295D01*
X106140148Y-136959533D01*
X106120795Y-136920829D01*
X106101443Y-136901476D01*
X106062738Y-136882124D01*
X106024033Y-136882124D01*
X105985329Y-136901476D01*
X105965976Y-136920829D01*
X105946624Y-136959533D01*
X105927271Y-137036943D01*
X105907919Y-137075648D01*
X105888567Y-137095000D01*
X105849862Y-137114352D01*
X105811157Y-137114352D01*
X105772452Y-137095000D01*
X105753100Y-137075648D01*
X105733748Y-137036943D01*
X105733748Y-136940181D01*
X105753100Y-136882124D01*
X105927271Y-136572485D02*
X105946624Y-136514428D01*
X105965976Y-136495076D01*
X106004681Y-136475724D01*
X106062738Y-136475724D01*
X106101443Y-136495076D01*
X106120795Y-136514428D01*
X106140148Y-136553133D01*
X106140148Y-136707952D01*
X105733748Y-136707952D01*
X105733748Y-136572485D01*
X105753100Y-136533781D01*
X105772452Y-136514428D01*
X105811157Y-136495076D01*
X105849862Y-136495076D01*
X105888567Y-136514428D01*
X105907919Y-136533781D01*
X105927271Y-136572485D01*
X105927271Y-136707952D01*
X106178852Y-136398314D02*
X106178852Y-136088676D01*
X105733748Y-135914505D02*
X105733748Y-135837095D01*
X105753100Y-135798390D01*
X105791805Y-135759686D01*
X105869214Y-135740333D01*
X106004681Y-135740333D01*
X106082090Y-135759686D01*
X106120795Y-135798390D01*
X106140148Y-135837095D01*
X106140148Y-135914505D01*
X106120795Y-135953209D01*
X106082090Y-135991914D01*
X106004681Y-136011266D01*
X105869214Y-136011266D01*
X105791805Y-135991914D01*
X105753100Y-135953209D01*
X105733748Y-135914505D01*
X105733748Y-135624219D02*
X105733748Y-135391991D01*
X106140148Y-135508105D02*
X105733748Y-135508105D01*
X105753100Y-135043648D02*
X105733748Y-135082353D01*
X105733748Y-135140410D01*
X105753100Y-135198467D01*
X105791805Y-135237172D01*
X105830510Y-135256524D01*
X105907919Y-135275876D01*
X105965976Y-135275876D01*
X106043386Y-135256524D01*
X106082090Y-135237172D01*
X106120795Y-135198467D01*
X106140148Y-135140410D01*
X106140148Y-135101705D01*
X106120795Y-135043648D01*
X106101443Y-135024296D01*
X105965976Y-135024296D01*
X105965976Y-135101705D01*
D17*
X110676190Y-134055952D02*
X111080952Y-134055952D01*
X111128571Y-134032143D01*
X111152381Y-134008333D01*
X111176190Y-133960714D01*
X111176190Y-133865476D01*
X111152381Y-133817857D01*
X111128571Y-133794048D01*
X111080952Y-133770238D01*
X110676190Y-133770238D01*
X111176190Y-133270238D02*
X111176190Y-133555952D01*
X111176190Y-133413095D02*
X110676190Y-133413095D01*
X110747619Y-133460714D01*
X110795238Y-133508333D01*
X110819048Y-133555952D01*
D11*
X106608334Y-143077381D02*
X106275000Y-142601190D01*
X106036905Y-143077381D02*
X106036905Y-142077381D01*
X106417858Y-142077381D01*
X106513096Y-142125000D01*
X106560715Y-142172619D01*
X106608334Y-142267857D01*
X106608334Y-142410714D01*
X106560715Y-142505952D01*
X106513096Y-142553571D01*
X106417858Y-142601190D01*
X106036905Y-142601190D01*
X107465477Y-142410714D02*
X107465477Y-143077381D01*
X107227381Y-142029762D02*
X106989286Y-142744048D01*
X107608334Y-142744048D01*
X106458334Y-141827381D02*
X106125000Y-141351190D01*
X105886905Y-141827381D02*
X105886905Y-140827381D01*
X106267858Y-140827381D01*
X106363096Y-140875000D01*
X106410715Y-140922619D01*
X106458334Y-141017857D01*
X106458334Y-141160714D01*
X106410715Y-141255952D01*
X106363096Y-141303571D01*
X106267858Y-141351190D01*
X105886905Y-141351190D01*
X107315477Y-140827381D02*
X107125000Y-140827381D01*
X107029762Y-140875000D01*
X106982143Y-140922619D01*
X106886905Y-141065476D01*
X106839286Y-141255952D01*
X106839286Y-141636905D01*
X106886905Y-141732143D01*
X106934524Y-141779762D01*
X107029762Y-141827381D01*
X107220239Y-141827381D01*
X107315477Y-141779762D01*
X107363096Y-141732143D01*
X107410715Y-141636905D01*
X107410715Y-141398810D01*
X107363096Y-141303571D01*
X107315477Y-141255952D01*
X107220239Y-141208333D01*
X107029762Y-141208333D01*
X106934524Y-141255952D01*
X106886905Y-141303571D01*
X106839286Y-141398810D01*
X106383334Y-136077381D02*
X106050000Y-135601190D01*
X105811905Y-136077381D02*
X105811905Y-135077381D01*
X106192858Y-135077381D01*
X106288096Y-135125000D01*
X106335715Y-135172619D01*
X106383334Y-135267857D01*
X106383334Y-135410714D01*
X106335715Y-135505952D01*
X106288096Y-135553571D01*
X106192858Y-135601190D01*
X105811905Y-135601190D01*
X106859524Y-136077381D02*
X107050000Y-136077381D01*
X107145239Y-136029762D01*
X107192858Y-135982143D01*
X107288096Y-135839286D01*
X107335715Y-135648810D01*
X107335715Y-135267857D01*
X107288096Y-135172619D01*
X107240477Y-135125000D01*
X107145239Y-135077381D01*
X106954762Y-135077381D01*
X106859524Y-135125000D01*
X106811905Y-135172619D01*
X106764286Y-135267857D01*
X106764286Y-135505952D01*
X106811905Y-135601190D01*
X106859524Y-135648810D01*
X106954762Y-135696429D01*
X107145239Y-135696429D01*
X107240477Y-135648810D01*
X107288096Y-135601190D01*
X107335715Y-135505952D01*
X125988095Y-101502381D02*
X125988095Y-102311905D01*
X126035714Y-102407143D01*
X126083333Y-102454762D01*
X126178571Y-102502381D01*
X126369048Y-102502381D01*
X126464286Y-102454762D01*
X126511905Y-102407143D01*
X126559524Y-102311905D01*
X126559524Y-101502381D01*
X126940476Y-101502381D02*
X127559524Y-101502381D01*
X127226190Y-101883333D01*
X127369048Y-101883333D01*
X127464286Y-101930952D01*
X127511905Y-101978571D01*
X127559524Y-102073810D01*
X127559524Y-102311905D01*
X127511905Y-102407143D01*
X127464286Y-102454762D01*
X127369048Y-102502381D01*
X127083333Y-102502381D01*
X126988095Y-102454762D01*
X126940476Y-102407143D01*
X116491667Y-99827381D02*
X116491667Y-100541667D01*
X116444047Y-100684524D01*
X116348809Y-100779762D01*
X116205952Y-100827381D01*
X116110714Y-100827381D01*
X116920238Y-99922619D02*
X116967857Y-99875000D01*
X117063095Y-99827381D01*
X117301191Y-99827381D01*
X117396429Y-99875000D01*
X117444048Y-99922619D01*
X117491667Y-100017857D01*
X117491667Y-100113095D01*
X117444048Y-100255952D01*
X116872619Y-100827381D01*
X117491667Y-100827381D01*
X132158334Y-111282143D02*
X132110715Y-111329762D01*
X131967858Y-111377381D01*
X131872620Y-111377381D01*
X131729762Y-111329762D01*
X131634524Y-111234524D01*
X131586905Y-111139286D01*
X131539286Y-110948810D01*
X131539286Y-110805952D01*
X131586905Y-110615476D01*
X131634524Y-110520238D01*
X131729762Y-110425000D01*
X131872620Y-110377381D01*
X131967858Y-110377381D01*
X132110715Y-110425000D01*
X132158334Y-110472619D01*
X133110715Y-111377381D02*
X132539286Y-111377381D01*
X132825000Y-111377381D02*
X132825000Y-110377381D01*
X132729762Y-110520238D01*
X132634524Y-110615476D01*
X132539286Y-110663095D01*
X138233334Y-108652381D02*
X137900000Y-108176190D01*
X137661905Y-108652381D02*
X137661905Y-107652381D01*
X138042858Y-107652381D01*
X138138096Y-107700000D01*
X138185715Y-107747619D01*
X138233334Y-107842857D01*
X138233334Y-107985714D01*
X138185715Y-108080952D01*
X138138096Y-108128571D01*
X138042858Y-108176190D01*
X137661905Y-108176190D01*
X139138096Y-107652381D02*
X138661905Y-107652381D01*
X138614286Y-108128571D01*
X138661905Y-108080952D01*
X138757143Y-108033333D01*
X138995239Y-108033333D01*
X139090477Y-108080952D01*
X139138096Y-108128571D01*
X139185715Y-108223810D01*
X139185715Y-108461905D01*
X139138096Y-108557143D01*
X139090477Y-108604762D01*
X138995239Y-108652381D01*
X138757143Y-108652381D01*
X138661905Y-108604762D01*
X138614286Y-108557143D01*
D16*
X138821148Y-103341467D02*
X139111433Y-103341467D01*
X139169490Y-103360819D01*
X139208195Y-103399524D01*
X139227548Y-103457581D01*
X139227548Y-103496286D01*
X139227548Y-102935067D02*
X139227548Y-103167295D01*
X139227548Y-103051181D02*
X138821148Y-103051181D01*
X138879205Y-103089886D01*
X138917910Y-103128591D01*
X138937262Y-103167295D01*
X138821148Y-109956352D02*
X139150138Y-109956352D01*
X139188843Y-109937000D01*
X139208195Y-109917647D01*
X139227548Y-109878943D01*
X139227548Y-109801533D01*
X139208195Y-109762828D01*
X139188843Y-109743476D01*
X139150138Y-109724124D01*
X138821148Y-109724124D01*
X139208195Y-109549952D02*
X139227548Y-109491895D01*
X139227548Y-109395133D01*
X139208195Y-109356429D01*
X139188843Y-109337076D01*
X139150138Y-109317724D01*
X139111433Y-109317724D01*
X139072729Y-109337076D01*
X139053376Y-109356429D01*
X139034024Y-109395133D01*
X139014671Y-109472543D01*
X138995319Y-109511248D01*
X138975967Y-109530600D01*
X138937262Y-109549952D01*
X138898557Y-109549952D01*
X138859852Y-109530600D01*
X138840500Y-109511248D01*
X138821148Y-109472543D01*
X138821148Y-109375781D01*
X138840500Y-109317724D01*
X139014671Y-109008085D02*
X139034024Y-108950028D01*
X139053376Y-108930676D01*
X139092081Y-108911324D01*
X139150138Y-108911324D01*
X139188843Y-108930676D01*
X139208195Y-108950028D01*
X139227548Y-108988733D01*
X139227548Y-109143552D01*
X138821148Y-109143552D01*
X138821148Y-109008085D01*
X138840500Y-108969381D01*
X138859852Y-108950028D01*
X138898557Y-108930676D01*
X138937262Y-108930676D01*
X138975967Y-108950028D01*
X138995319Y-108969381D01*
X139014671Y-109008085D01*
X139014671Y-109143552D01*
X139266252Y-108833914D02*
X139266252Y-108524276D01*
X138821148Y-108350105D02*
X138821148Y-108272695D01*
X138840500Y-108233990D01*
X138879205Y-108195286D01*
X138956614Y-108175933D01*
X139092081Y-108175933D01*
X139169490Y-108195286D01*
X139208195Y-108233990D01*
X139227548Y-108272695D01*
X139227548Y-108350105D01*
X139208195Y-108388809D01*
X139169490Y-108427514D01*
X139092081Y-108446866D01*
X138956614Y-108446866D01*
X138879205Y-108427514D01*
X138840500Y-108388809D01*
X138821148Y-108350105D01*
X138821148Y-108059819D02*
X138821148Y-107827591D01*
X139227548Y-107943705D02*
X138821148Y-107943705D01*
X138840500Y-107479248D02*
X138821148Y-107517953D01*
X138821148Y-107576010D01*
X138840500Y-107634067D01*
X138879205Y-107672772D01*
X138917910Y-107692124D01*
X138995319Y-107711476D01*
X139053376Y-107711476D01*
X139130786Y-107692124D01*
X139169490Y-107672772D01*
X139208195Y-107634067D01*
X139227548Y-107576010D01*
X139227548Y-107537305D01*
X139208195Y-107479248D01*
X139188843Y-107459896D01*
X139053376Y-107459896D01*
X139053376Y-107537305D01*
D17*
X133776190Y-111705952D02*
X134180952Y-111705952D01*
X134228571Y-111682143D01*
X134252381Y-111658333D01*
X134276190Y-111610714D01*
X134276190Y-111515476D01*
X134252381Y-111467857D01*
X134228571Y-111444048D01*
X134180952Y-111420238D01*
X133776190Y-111420238D01*
X134276190Y-110920238D02*
X134276190Y-111205952D01*
X134276190Y-111063095D02*
X133776190Y-111063095D01*
X133847619Y-111110714D01*
X133895238Y-111158333D01*
X133919048Y-111205952D01*
D11*
X138058334Y-102827381D02*
X137725000Y-102351190D01*
X137486905Y-102827381D02*
X137486905Y-101827381D01*
X137867858Y-101827381D01*
X137963096Y-101875000D01*
X138010715Y-101922619D01*
X138058334Y-102017857D01*
X138058334Y-102160714D01*
X138010715Y-102255952D01*
X137963096Y-102303571D01*
X137867858Y-102351190D01*
X137486905Y-102351190D01*
X138915477Y-102160714D02*
X138915477Y-102827381D01*
X138677381Y-101779762D02*
X138439286Y-102494048D01*
X139058334Y-102494048D01*
X138208334Y-104077381D02*
X137875000Y-103601190D01*
X137636905Y-104077381D02*
X137636905Y-103077381D01*
X138017858Y-103077381D01*
X138113096Y-103125000D01*
X138160715Y-103172619D01*
X138208334Y-103267857D01*
X138208334Y-103410714D01*
X138160715Y-103505952D01*
X138113096Y-103553571D01*
X138017858Y-103601190D01*
X137636905Y-103601190D01*
X139065477Y-103077381D02*
X138875000Y-103077381D01*
X138779762Y-103125000D01*
X138732143Y-103172619D01*
X138636905Y-103315476D01*
X138589286Y-103505952D01*
X138589286Y-103886905D01*
X138636905Y-103982143D01*
X138684524Y-104029762D01*
X138779762Y-104077381D01*
X138970239Y-104077381D01*
X139065477Y-104029762D01*
X139113096Y-103982143D01*
X139160715Y-103886905D01*
X139160715Y-103648810D01*
X139113096Y-103553571D01*
X139065477Y-103505952D01*
X138970239Y-103458333D01*
X138779762Y-103458333D01*
X138684524Y-103505952D01*
X138636905Y-103553571D01*
X138589286Y-103648810D01*
X138283334Y-109827381D02*
X137950000Y-109351190D01*
X137711905Y-109827381D02*
X137711905Y-108827381D01*
X138092858Y-108827381D01*
X138188096Y-108875000D01*
X138235715Y-108922619D01*
X138283334Y-109017857D01*
X138283334Y-109160714D01*
X138235715Y-109255952D01*
X138188096Y-109303571D01*
X138092858Y-109351190D01*
X137711905Y-109351190D01*
X138759524Y-109827381D02*
X138950000Y-109827381D01*
X139045239Y-109779762D01*
X139092858Y-109732143D01*
X139188096Y-109589286D01*
X139235715Y-109398810D01*
X139235715Y-109017857D01*
X139188096Y-108922619D01*
X139140477Y-108875000D01*
X139045239Y-108827381D01*
X138854762Y-108827381D01*
X138759524Y-108875000D01*
X138711905Y-108922619D01*
X138664286Y-109017857D01*
X138664286Y-109255952D01*
X138711905Y-109351190D01*
X138759524Y-109398810D01*
X138854762Y-109446429D01*
X139045239Y-109446429D01*
X139140477Y-109398810D01*
X139188096Y-109351190D01*
X139235715Y-109255952D01*
M02*
