%TF.GenerationSoftware,KiCad,Pcbnew,4.0.6*%
%TF.CreationDate,2017-04-20T11:48:03-04:00*%
%TF.ProjectId,Panel,50616E656C2E6B696361645F70636200,rev?*%
%TF.FileFunction,Paste,Bot*%
%FSLAX46Y46*%
G04 Gerber Fmt 4.6, Leading zero omitted, Abs format (unit mm)*
G04 Created by KiCad (PCBNEW 4.0.6) date Thu Apr 20 11:48:03 2017*
%MOMM*%
%LPD*%
G01*
G04 APERTURE LIST*
%ADD10C,0.100000*%
%ADD11R,1.000000X3.000000*%
%ADD12R,0.900000X0.500000*%
%ADD13R,0.800000X0.750000*%
%ADD14R,0.750000X0.800000*%
%ADD15R,0.299720X0.797560*%
%ADD16R,0.797560X0.299720*%
%ADD17R,4.100000X0.700000*%
%ADD18R,4.100000X1.000000*%
%ADD19R,1.699260X1.198880*%
%ADD20R,0.500000X0.900000*%
%ADD21R,3.000000X1.000000*%
G04 APERTURE END LIST*
D10*
D11*
X136200000Y-137400000D03*
X136200000Y-142940000D03*
X138740000Y-137400000D03*
X138740000Y-142940000D03*
X141280000Y-137400000D03*
X141280000Y-142940000D03*
X108800000Y-107600000D03*
X108800000Y-102060000D03*
X106260000Y-107600000D03*
X106260000Y-102060000D03*
X103720000Y-107600000D03*
X103720000Y-102060000D03*
D12*
X116306600Y-139086400D03*
X116306600Y-140586400D03*
D13*
X114800000Y-139000000D03*
X113300000Y-139000000D03*
D14*
X115000000Y-143250000D03*
X115000000Y-144750000D03*
D15*
X120456960Y-138950720D03*
D16*
X119507000Y-138498600D03*
X119507000Y-138000760D03*
X119507000Y-137500380D03*
X119507000Y-137000000D03*
X119507000Y-136502160D03*
X119507000Y-136001780D03*
X119507000Y-135501400D03*
X119507000Y-135003560D03*
D15*
X120456960Y-134551440D03*
X120954800Y-134551440D03*
D16*
X121904760Y-135003560D03*
X121904760Y-135501400D03*
X121904760Y-136001780D03*
X121904760Y-136502160D03*
X121904760Y-137000000D03*
X121904760Y-137500380D03*
X121904760Y-138000760D03*
X121904760Y-138498600D03*
D15*
X120954800Y-138950720D03*
D17*
X120015000Y-143583600D03*
D18*
X120015000Y-142083600D03*
D17*
X120015000Y-140583600D03*
D19*
X107700000Y-141136540D03*
X107700000Y-136813460D03*
D20*
X108600000Y-135000000D03*
X107100000Y-135000000D03*
D12*
X110000000Y-137600000D03*
X110000000Y-136100000D03*
X108800000Y-143750000D03*
X108800000Y-145250000D03*
D20*
X113300000Y-137600000D03*
X114800000Y-137600000D03*
X108500000Y-132750000D03*
X107000000Y-132750000D03*
D21*
X124815600Y-143023400D03*
X124815600Y-140483400D03*
X124815600Y-137943400D03*
X124815600Y-135403400D03*
D12*
X128693400Y-105913600D03*
X128693400Y-104413600D03*
D13*
X130200000Y-106000000D03*
X131700000Y-106000000D03*
D14*
X130000000Y-101750000D03*
X130000000Y-100250000D03*
D15*
X124543040Y-106049280D03*
D16*
X125493000Y-106501400D03*
X125493000Y-106999240D03*
X125493000Y-107499620D03*
X125493000Y-108000000D03*
X125493000Y-108497840D03*
X125493000Y-108998220D03*
X125493000Y-109498600D03*
X125493000Y-109996440D03*
D15*
X124543040Y-110448560D03*
X124045200Y-110448560D03*
D16*
X123095240Y-109996440D03*
X123095240Y-109498600D03*
X123095240Y-108998220D03*
X123095240Y-108497840D03*
X123095240Y-108000000D03*
X123095240Y-107499620D03*
X123095240Y-106999240D03*
X123095240Y-106501400D03*
D15*
X124045200Y-106049280D03*
D17*
X124985000Y-101416400D03*
D18*
X124985000Y-102916400D03*
D17*
X124985000Y-104416400D03*
D19*
X137300000Y-103863460D03*
X137300000Y-108186540D03*
D20*
X136400000Y-110000000D03*
X137900000Y-110000000D03*
D12*
X135000000Y-107400000D03*
X135000000Y-108900000D03*
X136200000Y-101250000D03*
X136200000Y-99750000D03*
D20*
X131700000Y-107400000D03*
X130200000Y-107400000D03*
X136500000Y-112250000D03*
X138000000Y-112250000D03*
D21*
X120184400Y-101976600D03*
X120184400Y-104516600D03*
X120184400Y-107056600D03*
X120184400Y-109596600D03*
M02*
